<svg width="702" height="293" viewBox="0 0 702 293" fill="none" xmlns="http://www.w3.org/2000/svg">
    <path d="M233.368 129.256C233.915 152.657 229.977 175.946 221.77 197.859C214.636 216.134 202.139 231.809 185.93 242.811C192.433 246.754 198.245 251.743 203.133 257.577L177.59 292.466C173.987 288.06 169.948 284.032 165.535 280.445C160.885 276.687 155.889 273.383 150.612 270.579C145.354 267.841 139.83 265.652 134.126 264.045C128.629 262.399 122.922 261.563 117.184 261.562C77.2615 261.562 47.9168 250.128 29.1501 227.261C10.3834 204.393 1 171.725 1 129.256C1 87.2661 10.2965 55.3819 28.8894 33.6031C47.4824 11.8242 76.914 0.956573 117.184 1.00013C157.15 1.00013 186.495 11.8896 205.218 33.6684C223.942 55.4473 233.325 87.3097 233.368 129.256ZM52.1523 129.256C52.1523 159.746 57.1698 182.962 67.2048 198.905C77.3049 214.977 93.9213 223.079 117.184 223.079C140.447 223.079 156.998 214.977 166.903 198.905C176.808 182.832 181.76 159.703 181.76 129.256C181.76 98.8089 176.808 76.1372 167.164 61.1751C157.52 46.213 140.447 38.438 117.184 38.438C93.9213 38.438 77.3049 46.017 67.2048 61.1751C57.1047 76.3332 52.1523 99.0049 52.1523 129.256V129.256Z" fill="#C53089" stroke="#C53089" stroke-linecap="round" stroke-linejoin="round"/>
    <path d="M240.406 36.9352C244.538 34.3553 248.901 32.168 253.438 30.4015C259.574 28.1656 266.068 27.0803 272.596 27.2C280.127 26.7723 287.557 29.0932 293.513 33.7337C295.89 35.716 297.796 38.205 299.093 41.0193C300.389 43.8337 301.043 46.9026 301.007 50.0025V187.209H269.208V52.7466C269.208 52.2239 269.208 51.9626 268.295 51.9626C266.673 52.0242 265.069 52.3326 263.539 52.8773C261.614 53.4933 259.741 54.2578 257.935 55.1641C255.719 56.0788 253.438 57.1242 251.418 58.3656L240.406 36.9352Z" fill="#C53089" stroke="#C53089" stroke-width="2" stroke-linecap="round" stroke-linejoin="round"/>
    <path d="M383.567 188.908C373.139 189.246 362.761 187.329 353.137 183.289C345.157 179.696 338.243 174.091 333.067 167.02C327.67 159.347 323.879 150.656 321.924 141.474C319.53 130.245 318.394 118.784 318.535 107.303C318.395 95.9944 319.532 84.7064 321.924 73.6544C323.854 64.5841 327.649 56.0169 333.067 48.4998C338.25 41.5638 345.175 36.1304 353.137 32.7537C362.809 28.9023 373.165 27.079 383.567 27.3961C393.925 27.1096 404.233 28.9322 413.868 32.7537C421.958 35.9992 429.026 41.371 434.329 48.3038C439.746 55.8209 443.541 64.3881 445.471 73.4584C447.863 84.5104 449 95.7984 448.86 107.107C448.931 118.663 447.707 130.191 445.211 141.474C443.334 150.637 439.633 159.326 434.329 167.02C429.134 174.125 422.168 179.736 414.128 183.289C404.46 187.334 394.038 189.25 383.567 188.908V188.908ZM383.567 50.852C377.877 50.6393 372.232 51.9471 367.212 54.6415C362.794 57.2349 359.236 61.0753 356.981 65.6833C354.261 71.2719 352.499 77.2797 351.768 83.4549C350.725 91.2948 350.224 99.1976 350.269 107.107C350.228 115.255 350.729 123.396 351.768 131.477C352.506 137.86 354.266 144.082 356.981 149.902C359.209 154.664 362.762 158.68 367.212 161.467C372.184 164.311 377.846 165.713 383.567 165.518C389.228 165.733 394.833 164.328 399.727 161.467C404.151 158.63 407.712 154.63 410.023 149.902C412.785 144.09 414.59 137.868 415.366 131.477C416.406 123.396 416.906 115.255 416.865 107.107C416.91 99.1976 416.409 91.2948 415.366 83.4549C414.596 77.2717 412.789 71.2633 410.023 65.6833C407.699 61.1027 404.129 57.2748 399.727 54.6415C394.783 51.933 389.197 50.6232 383.567 50.852V50.852Z" fill="#C53089" stroke="#C53089" stroke-width="2" stroke-linecap="round" stroke-linejoin="round"/>
    <path d="M317.558 226.411C317.704 229.619 317.202 232.824 316.082 235.833C314.962 238.842 313.248 241.593 311.042 243.921C305.077 248.832 297.418 251.18 289.734 250.455H276.18V280.902H262.04V213.344C261.958 210.564 262.884 207.848 264.646 205.699C265.688 204.628 266.951 203.797 268.347 203.267C269.743 202.736 271.238 202.518 272.726 202.629H289.799C294.21 202.499 298.612 203.095 302.831 204.393C306.028 205.372 308.982 207.02 311.498 209.228C313.721 211.289 315.401 213.87 316.385 216.741C317.273 219.884 317.668 223.146 317.558 226.411V226.411ZM303.418 226.411C303.552 223.21 302.508 220.071 300.485 217.591C299.047 216.296 297.35 215.324 295.507 214.738C293.664 214.152 291.719 213.967 289.799 214.193H276.18V238.825H289.799C291.723 239.043 293.672 238.847 295.515 238.25C297.358 237.653 299.052 236.668 300.485 235.362C302.539 232.848 303.584 229.657 303.418 226.411V226.411Z" fill="#C53089" stroke="#C53089" stroke-width="0.75" stroke-linecap="round" stroke-linejoin="round"/>
    <path d="M341.472 281.882C337.474 281.497 333.738 279.717 330.916 276.851C328.68 273.916 327.549 270.283 327.723 266.593V211.645H341.472V267.573C341.449 268.788 341.814 269.979 342.515 270.971C343.467 272.104 344.705 272.962 346.099 273.454L341.472 281.882Z" fill="#C53089" stroke="#C53089" stroke-width="0.75" stroke-linecap="round" stroke-linejoin="round"/>
    <path d="M374.901 281.686C371.546 281.902 368.183 281.434 365.013 280.311C361.844 279.188 358.934 277.433 356.46 275.152C354.263 272.817 352.555 270.065 351.435 267.058C350.316 264.051 349.809 260.849 349.944 257.642V218.897H363.693V256.662C363.428 260.332 364.493 263.974 366.69 266.92C367.697 268.083 368.952 269.005 370.362 269.615C371.772 270.226 373.301 270.511 374.836 270.448C376.34 270.495 377.835 270.203 379.211 269.592C380.587 268.981 381.809 268.068 382.785 266.92C384.957 263.961 386.018 260.328 385.783 256.662V218.897H399.662V257.577C399.795 260.774 399.287 263.965 398.168 266.962C397.049 269.958 395.341 272.699 393.146 275.022C390.727 277.333 387.858 279.119 384.718 280.266C381.578 281.413 378.236 281.896 374.901 281.686V281.686Z" fill="#C53089" stroke="#C53089" stroke-width="0.75" stroke-linecap="round" stroke-linejoin="round"/>
    <path d="M445.276 246.012C447.634 246.546 449.854 247.57 451.792 249.018C453.57 250.383 455 252.152 455.962 254.179C457.087 256.75 457.621 259.541 457.526 262.346C457.613 265.15 457.004 267.932 455.753 270.441C454.502 272.95 452.648 275.108 450.359 276.72C444.578 280.537 437.718 282.371 430.81 281.947C421.749 282.049 412.924 279.053 405.788 273.454L411.066 262.477C413.993 265.146 417.312 267.35 420.905 269.011C423.961 270.291 427.238 270.957 430.549 270.971C439.151 270.971 443.582 268.161 443.582 262.608C443.582 258.622 441.171 256.466 436.479 256.074L427.356 255.29C413.737 254.179 406.895 248.299 406.895 237.649C406.792 234.985 407.33 232.336 408.465 229.925C409.599 227.514 411.296 225.412 413.412 223.798C418.51 220.157 424.69 218.36 430.94 218.702C434.721 218.732 438.477 219.327 442.083 220.466C445.835 221.559 449.427 223.141 452.77 225.17L448.273 235.232C445.471 233.292 442.366 231.835 439.086 230.92C436.424 230.227 433.69 229.854 430.94 229.809C424.424 229.809 420.645 232.422 420.645 237.649C420.645 241.373 423.251 243.464 428.399 244.183L437.391 245.098C440.04 245.181 442.678 245.487 445.276 246.012Z" fill="#C53089" stroke="#C53089" stroke-width="0.75" stroke-linecap="round" stroke-linejoin="round"/>
    <path d="M502.352 62H493.602C492.339 62 491.434 61.7201 490.887 61.1602C490.353 60.5872 490.086 59.6823 490.086 58.4453V36.9219C490.086 35.6589 490.359 34.7539 490.906 34.207C491.466 33.6471 492.365 33.3672 493.602 33.3672H502.879C504.246 33.3672 505.431 33.4518 506.434 33.6211C507.436 33.7904 508.335 34.1159 509.129 34.5977C509.806 35.0013 510.405 35.5156 510.926 36.1406C511.447 36.7526 511.844 37.4362 512.117 38.1914C512.391 38.9336 512.527 39.7214 512.527 40.5547C512.527 43.4193 511.095 45.5156 508.23 46.8438C511.993 48.0417 513.875 50.3724 513.875 53.8359C513.875 55.4375 513.465 56.8828 512.645 58.1719C511.824 59.4479 510.717 60.3919 509.324 61.0039C508.452 61.3685 507.449 61.6289 506.316 61.7852C505.184 61.9284 503.862 62 502.352 62ZM501.922 49.2852H495.887V57.6445H502.117C506.036 57.6445 507.996 56.2318 507.996 53.4062C507.996 51.9609 507.488 50.9128 506.473 50.2617C505.457 49.6107 503.94 49.2852 501.922 49.2852ZM495.887 37.7227V45.125H501.199C502.645 45.125 503.758 44.9883 504.539 44.7148C505.333 44.4414 505.939 43.9206 506.355 43.1523C506.681 42.6055 506.844 41.9935 506.844 41.3164C506.844 39.8711 506.329 38.9141 505.301 38.4453C504.272 37.9635 502.703 37.7227 500.594 37.7227H495.887ZM537.781 37.8398H524.715V44.8711H536.746C537.632 44.8711 538.289 45.0729 538.719 45.4766C539.161 45.8672 539.383 46.388 539.383 47.0391C539.383 47.6901 539.168 48.224 538.738 48.6406C538.309 49.0443 537.645 49.2461 536.746 49.2461H524.715V57.3906H538.23C539.142 57.3906 539.826 57.6055 540.281 58.0352C540.75 58.4518 540.984 59.0117 540.984 59.7148C540.984 60.3919 540.75 60.9453 540.281 61.375C539.826 61.7917 539.142 62 538.23 62H522.469C521.206 62 520.294 61.7201 519.734 61.1602C519.188 60.6003 518.914 59.6953 518.914 58.4453V36.9219C518.914 36.0885 519.038 35.4115 519.285 34.8906C519.533 34.3568 519.917 33.9727 520.438 33.7383C520.971 33.4909 521.648 33.3672 522.469 33.3672H537.781C538.706 33.3672 539.389 33.5755 539.832 33.9922C540.288 34.3958 540.516 34.9297 540.516 35.5938C540.516 36.2708 540.288 36.8177 539.832 37.2344C539.389 37.638 538.706 37.8398 537.781 37.8398ZM561.98 58.9531V49.8711L554.988 39.0312C554.376 38.0547 553.94 37.293 553.68 36.7461C553.432 36.1992 553.309 35.724 553.309 35.3203C553.309 34.6562 553.562 34.0833 554.07 33.6016C554.591 33.1198 555.229 32.8789 555.984 32.8789C556.779 32.8789 557.378 33.1068 557.781 33.5625C558.198 34.0052 558.816 34.8971 559.637 36.2383L564.988 44.9297L570.398 36.2383C570.724 35.7044 570.997 35.2552 571.219 34.8906C571.44 34.526 571.681 34.1875 571.941 33.875C572.215 33.5495 572.514 33.3021 572.84 33.1328C573.165 32.9635 573.562 32.8789 574.031 32.8789C574.76 32.8789 575.366 33.1198 575.848 33.6016C576.342 34.0703 576.59 34.6172 576.59 35.2422C576.59 35.75 576.466 36.2578 576.219 36.7656C575.971 37.2734 575.548 37.9766 574.949 38.875L567.781 49.8711V58.9531C567.781 60.138 567.508 61.0234 566.961 61.6094C566.414 62.1953 565.717 62.4883 564.871 62.4883C564.012 62.4883 563.315 62.2018 562.781 61.6289C562.247 61.043 561.98 60.151 561.98 58.9531ZM592.645 32.8789C595.613 32.8789 598.159 33.4844 600.281 34.6953C602.417 35.8932 604.031 37.6055 605.125 39.832C606.219 42.0456 606.766 44.6497 606.766 47.6445C606.766 49.8581 606.466 51.8698 605.867 53.6797C605.268 55.4896 604.37 57.0586 603.172 58.3867C601.974 59.7148 600.503 60.7305 598.758 61.4336C597.013 62.1367 595.014 62.4883 592.762 62.4883C590.522 62.4883 588.517 62.1302 586.746 61.4141C584.975 60.6849 583.497 59.6628 582.312 58.3477C581.128 57.0326 580.229 55.4505 579.617 53.6016C579.018 51.7526 578.719 49.7539 578.719 47.6055C578.719 45.4049 579.031 43.3867 579.656 41.5508C580.294 39.7148 581.212 38.1523 582.41 36.8633C583.608 35.5742 585.066 34.5911 586.785 33.9141C588.504 33.224 590.457 32.8789 592.645 32.8789ZM600.887 47.6055C600.887 45.5091 600.548 43.6927 599.871 42.1562C599.194 40.6198 598.224 39.4609 596.961 38.6797C595.711 37.8854 594.272 37.4883 592.645 37.4883C591.486 37.4883 590.411 37.7096 589.422 38.1523C588.445 38.582 587.599 39.2135 586.883 40.0469C586.18 40.8802 585.62 41.9479 585.203 43.25C584.799 44.5391 584.598 45.9909 584.598 47.6055C584.598 49.2331 584.799 50.7044 585.203 52.0195C585.62 53.3346 586.199 54.4284 586.941 55.3008C587.697 56.1602 588.556 56.8047 589.52 57.2344C590.496 57.6641 591.564 57.8789 592.723 57.8789C594.207 57.8789 595.568 57.5078 596.805 56.7656C598.055 56.0234 599.044 54.8776 599.773 53.3281C600.516 51.7786 600.887 49.8711 600.887 47.6055ZM611.766 50.1641V36.3945C611.766 35.2227 612.026 34.3438 612.547 33.7578C613.081 33.1719 613.777 32.8789 614.637 32.8789C615.535 32.8789 616.245 33.1719 616.766 33.7578C617.299 34.3438 617.566 35.2227 617.566 36.3945V50.4766C617.566 52.0781 617.742 53.4193 618.094 54.5C618.458 55.5677 619.096 56.401 620.008 57C620.919 57.5859 622.195 57.8789 623.836 57.8789C626.102 57.8789 627.703 57.2799 628.641 56.082C629.578 54.8711 630.047 53.0417 630.047 50.5938V36.3945C630.047 35.2096 630.307 34.3307 630.828 33.7578C631.349 33.1719 632.046 32.8789 632.918 32.8789C633.79 32.8789 634.493 33.1719 635.027 33.7578C635.574 34.3307 635.848 35.2096 635.848 36.3945V50.1641C635.848 52.4036 635.626 54.2721 635.184 55.7695C634.754 57.2669 633.934 58.582 632.723 59.7148C631.681 60.6784 630.47 61.3815 629.09 61.8242C627.71 62.2669 626.095 62.4883 624.246 62.4883C622.046 62.4883 620.151 62.2539 618.562 61.7852C616.974 61.3034 615.678 60.5677 614.676 59.5781C613.673 58.5755 612.938 57.2995 612.469 55.75C612 54.1875 611.766 52.3255 611.766 50.1641ZM649.676 36.3555L660.828 53.2305V36.1992C660.828 35.0924 661.062 34.2656 661.531 33.7188C662.013 33.1589 662.658 32.8789 663.465 32.8789C664.298 32.8789 664.956 33.1589 665.438 33.7188C665.919 34.2656 666.16 35.0924 666.16 36.1992V58.7188C666.16 61.2318 665.118 62.4883 663.035 62.4883C662.514 62.4883 662.046 62.4102 661.629 62.2539C661.212 62.1107 660.822 61.8763 660.457 61.5508C660.092 61.2253 659.754 60.8477 659.441 60.418C659.129 59.9753 658.816 59.526 658.504 59.0703L647.625 42.3906V59.168C647.625 60.2617 647.371 61.0885 646.863 61.6484C646.355 62.2083 645.704 62.4883 644.91 62.4883C644.09 62.4883 643.432 62.2083 642.938 61.6484C642.443 61.0755 642.195 60.2487 642.195 59.168V37.0781C642.195 36.1406 642.299 35.4049 642.508 34.8711C642.755 34.2852 643.165 33.8099 643.738 33.4453C644.311 33.0677 644.93 32.8789 645.594 32.8789C646.115 32.8789 646.557 32.9635 646.922 33.1328C647.299 33.3021 647.625 33.5299 647.898 33.8164C648.185 34.1029 648.471 34.474 648.758 34.9297C649.057 35.3854 649.363 35.8607 649.676 36.3555ZM698.66 50.3594V55.8477C698.66 56.5768 698.589 57.1628 698.445 57.6055C698.302 58.0352 698.035 58.4258 697.645 58.7773C697.267 59.1289 696.779 59.4674 696.18 59.793C694.448 60.7305 692.781 61.4141 691.18 61.8438C689.578 62.2734 687.833 62.4883 685.945 62.4883C683.745 62.4883 681.74 62.1497 679.93 61.4727C678.12 60.7956 676.577 59.8125 675.301 58.5234C674.025 57.2344 673.042 55.6719 672.352 53.8359C671.674 52 671.336 49.9492 671.336 47.6836C671.336 45.457 671.668 43.4193 672.332 41.5703C672.996 39.7214 673.973 38.1523 675.262 36.8633C676.551 35.5742 678.12 34.5911 679.969 33.9141C681.818 33.224 683.914 32.8789 686.258 32.8789C688.185 32.8789 689.891 33.1393 691.375 33.6602C692.859 34.168 694.064 34.8125 694.988 35.5938C695.913 36.375 696.609 37.2018 697.078 38.0742C697.547 38.9466 697.781 39.7214 697.781 40.3984C697.781 41.1276 697.508 41.7526 696.961 42.2734C696.427 42.7812 695.783 43.0352 695.027 43.0352C694.611 43.0352 694.207 42.9375 693.816 42.7422C693.439 42.5469 693.12 42.2734 692.859 41.9219C692.143 40.8021 691.538 39.9557 691.043 39.3828C690.548 38.8099 689.878 38.3281 689.031 37.9375C688.198 37.5469 687.13 37.3516 685.828 37.3516C684.487 37.3516 683.289 37.5859 682.234 38.0547C681.18 38.5104 680.275 39.181 679.52 40.0664C678.777 40.9388 678.204 42.013 677.801 43.2891C677.41 44.5651 677.215 45.9779 677.215 47.5273C677.215 50.8867 677.983 53.4714 679.52 55.2812C681.069 57.0911 683.224 57.9961 685.984 57.9961C687.326 57.9961 688.582 57.8203 689.754 57.4688C690.939 57.1172 692.137 56.6159 693.348 55.9648V51.3164H688.855C687.775 51.3164 686.954 51.1536 686.395 50.8281C685.848 50.5026 685.574 49.9492 685.574 49.168C685.574 48.5299 685.802 48.0026 686.258 47.5859C686.727 47.1693 687.358 46.9609 688.152 46.9609H694.734C695.542 46.9609 696.225 47.0326 696.785 47.1758C697.345 47.319 697.794 47.638 698.133 48.1328C698.484 48.6276 698.66 49.3698 698.66 50.3594ZM502.548 99.6494L501.557 97.0439H493.117L492.126 99.7061C491.739 100.744 491.409 101.448 491.135 101.816C490.861 102.175 490.413 102.354 489.79 102.354C489.261 102.354 488.794 102.16 488.388 101.773C487.982 101.386 487.779 100.947 487.779 100.457C487.779 100.173 487.826 99.8807 487.92 99.5786C488.015 99.2765 488.171 98.8564 488.388 98.3184L493.698 84.8379C493.849 84.4508 494.028 83.9883 494.236 83.4502C494.453 82.9027 494.68 82.4495 494.916 82.0908C495.161 81.7321 495.477 81.4442 495.864 81.2271C496.261 81.0005 496.747 80.8872 497.323 80.8872C497.908 80.8872 498.394 81.0005 498.781 81.2271C499.178 81.4442 499.494 81.7274 499.73 82.0767C499.975 82.4259 500.178 82.8035 500.339 83.2095C500.509 83.606 500.721 84.1393 500.976 84.8096L506.399 98.2051C506.824 99.2246 507.037 99.9657 507.037 100.428C507.037 100.91 506.834 101.353 506.428 101.759C506.031 102.156 505.55 102.354 504.983 102.354C504.653 102.354 504.37 102.293 504.134 102.17C503.898 102.057 503.7 101.901 503.539 101.703C503.379 101.495 503.204 101.183 503.015 100.768C502.836 100.343 502.68 99.9704 502.548 99.6494ZM494.222 93.8862H500.424L497.294 85.3193L494.222 93.8862ZM515.618 83.4077L523.703 95.6421V83.2944C523.703 82.492 523.873 81.8926 524.213 81.4961C524.562 81.0902 525.029 80.8872 525.615 80.8872C526.219 80.8872 526.696 81.0902 527.045 81.4961C527.394 81.8926 527.569 82.492 527.569 83.2944V99.6211C527.569 101.443 526.814 102.354 525.303 102.354C524.926 102.354 524.586 102.297 524.284 102.184C523.982 102.08 523.698 101.91 523.434 101.674C523.17 101.438 522.924 101.165 522.698 100.853C522.471 100.532 522.245 100.206 522.018 99.876L514.131 87.7832V99.9468C514.131 100.74 513.947 101.339 513.579 101.745C513.21 102.151 512.738 102.354 512.163 102.354C511.568 102.354 511.091 102.151 510.732 101.745C510.374 101.33 510.194 100.73 510.194 99.9468V83.9316C510.194 83.252 510.27 82.7186 510.421 82.3315C510.6 81.9067 510.898 81.5622 511.313 81.2979C511.728 81.0241 512.177 80.8872 512.658 80.8872C513.036 80.8872 513.357 80.9486 513.621 81.0713C513.895 81.194 514.131 81.3592 514.329 81.5669C514.537 81.7746 514.744 82.0436 514.952 82.374C515.169 82.7044 515.391 83.049 515.618 83.4077ZM545.651 84.7104H541.063V99.791C541.063 100.66 540.87 101.306 540.483 101.731C540.096 102.146 539.596 102.354 538.982 102.354C538.359 102.354 537.849 102.142 537.453 101.717C537.066 101.292 536.872 100.65 536.872 99.791V84.7104H532.284C531.567 84.7104 531.033 84.5547 530.684 84.2432C530.335 83.9222 530.16 83.5021 530.16 82.9829C530.16 82.4448 530.34 82.02 530.698 81.7085C531.066 81.397 531.595 81.2412 532.284 81.2412H545.651C546.378 81.2412 546.916 81.4017 547.266 81.7227C547.624 82.0436 547.804 82.4637 547.804 82.9829C547.804 83.5021 547.624 83.9222 547.266 84.2432C546.907 84.5547 546.369 84.7104 545.651 84.7104ZM550.466 99.791V83.436C550.466 82.5864 550.659 81.9492 551.046 81.5244C551.433 81.0996 551.934 80.8872 552.547 80.8872C553.18 80.8872 553.69 81.0996 554.077 81.5244C554.473 81.9398 554.671 82.577 554.671 83.436V99.791C554.671 100.65 554.473 101.292 554.077 101.717C553.69 102.142 553.18 102.354 552.547 102.354C551.943 102.354 551.443 102.142 551.046 101.717C550.659 101.283 550.466 100.641 550.466 99.791ZM581.335 98.729L577.979 86.2822L574.581 98.729C574.316 99.673 574.104 100.353 573.943 100.768C573.792 101.174 573.523 101.542 573.136 101.873C572.749 102.194 572.235 102.354 571.593 102.354C571.074 102.354 570.644 102.255 570.304 102.057C569.974 101.868 569.705 101.599 569.497 101.25C569.289 100.891 569.119 100.471 568.987 99.9893C568.855 99.4984 568.737 99.0452 568.633 98.6299L565.178 84.6538C564.971 83.842 564.867 83.2236 564.867 82.7988C564.867 82.2607 565.056 81.8076 565.433 81.4395C565.811 81.0713 566.278 80.8872 566.835 80.8872C567.6 80.8872 568.114 81.1326 568.378 81.6235C568.643 82.1144 568.874 82.8271 569.072 83.7617L571.791 95.8828L574.835 84.5405C575.062 83.672 575.265 83.0112 575.444 82.5581C575.624 82.105 575.916 81.7132 576.322 81.3828C576.728 81.0524 577.28 80.8872 577.979 80.8872C578.687 80.8872 579.235 81.0618 579.622 81.4111C580.018 81.751 580.292 82.1239 580.443 82.5298C580.594 82.9357 580.797 83.606 581.052 84.5405L584.125 95.8828L586.843 83.7617C586.975 83.1292 587.098 82.6336 587.211 82.2749C587.334 81.9162 587.537 81.5952 587.82 81.312C588.113 81.0288 588.533 80.8872 589.081 80.8872C589.628 80.8872 590.091 81.0713 590.468 81.4395C590.855 81.7982 591.049 82.2513 591.049 82.7988C591.049 83.1859 590.945 83.8042 590.737 84.6538L587.282 98.6299C587.046 99.5739 586.848 100.268 586.688 100.711C586.536 101.146 586.272 101.528 585.895 101.858C585.526 102.189 585.002 102.354 584.323 102.354C583.681 102.354 583.166 102.194 582.779 101.873C582.392 101.552 582.123 101.193 581.972 100.796C581.821 100.39 581.609 99.7013 581.335 98.729ZM599.502 93.1216H598.03V99.791C598.03 100.669 597.836 101.316 597.449 101.731C597.062 102.146 596.557 102.354 595.934 102.354C595.264 102.354 594.745 102.137 594.376 101.703C594.008 101.268 593.824 100.631 593.824 99.791V83.8184C593.824 82.9121 594.027 82.256 594.433 81.8501C594.839 81.4442 595.495 81.2412 596.401 81.2412H603.241C604.185 81.2412 604.992 81.2837 605.662 81.3687C606.332 81.4442 606.937 81.6047 607.475 81.8501C608.126 82.1239 608.702 82.5156 609.202 83.0254C609.702 83.5352 610.08 84.1299 610.335 84.8096C610.599 85.4798 610.731 86.1925 610.731 86.9478C610.731 88.4959 610.292 89.7326 609.415 90.6577C608.546 91.5828 607.224 92.2389 605.45 92.626C606.195 93.0225 606.908 93.6077 607.588 94.3818C608.268 95.1559 608.872 95.9819 609.4 96.8599C609.938 97.7284 610.354 98.5166 610.646 99.2246C610.949 99.9232 611.1 100.405 611.1 100.669C611.1 100.943 611.01 101.216 610.831 101.49C610.661 101.755 610.425 101.962 610.123 102.113C609.82 102.274 609.471 102.354 609.075 102.354C608.603 102.354 608.206 102.241 607.885 102.014C607.564 101.797 607.286 101.519 607.05 101.179C606.823 100.839 606.512 100.339 606.115 99.6777L604.43 96.874C603.826 95.8451 603.283 95.0615 602.802 94.5234C602.33 93.9854 601.848 93.6172 601.357 93.4189C600.867 93.2207 600.248 93.1216 599.502 93.1216ZM601.91 84.3989H598.03V90.1055H601.796C602.806 90.1055 603.656 90.0205 604.345 89.8506C605.034 89.6712 605.558 89.3739 605.917 88.9585C606.285 88.5337 606.469 87.9531 606.469 87.2168C606.469 86.641 606.323 86.1359 606.03 85.7017C605.738 85.258 605.332 84.9276 604.812 84.7104C604.322 84.5028 603.354 84.3989 601.91 84.3989ZM614.895 99.791V83.436C614.895 82.5864 615.088 81.9492 615.475 81.5244C615.862 81.0996 616.362 80.8872 616.976 80.8872C617.609 80.8872 618.118 81.0996 618.505 81.5244C618.902 81.9398 619.1 82.577 619.1 83.436V99.791C619.1 100.65 618.902 101.292 618.505 101.717C618.118 102.142 617.609 102.354 616.976 102.354C616.372 102.354 615.872 102.142 615.475 101.717C615.088 101.283 614.895 100.641 614.895 99.791ZM629.295 83.4077L637.381 95.6421V83.2944C637.381 82.492 637.551 81.8926 637.891 81.4961C638.24 81.0902 638.707 80.8872 639.292 80.8872C639.897 80.8872 640.373 81.0902 640.723 81.4961C641.072 81.8926 641.247 82.492 641.247 83.2944V99.6211C641.247 101.443 640.491 102.354 638.981 102.354C638.603 102.354 638.264 102.297 637.961 102.184C637.659 102.08 637.376 101.91 637.112 101.674C636.847 101.438 636.602 101.165 636.375 100.853C636.149 100.532 635.922 100.206 635.696 99.876L627.809 87.7832V99.9468C627.809 100.74 627.625 101.339 627.256 101.745C626.888 102.151 626.416 102.354 625.84 102.354C625.246 102.354 624.769 102.151 624.41 101.745C624.051 101.33 623.872 100.73 623.872 99.9468V83.9316C623.872 83.252 623.948 82.7186 624.099 82.3315C624.278 81.9067 624.575 81.5622 624.991 81.2979C625.406 81.0241 625.854 80.8872 626.336 80.8872C626.714 80.8872 627.035 80.9486 627.299 81.0713C627.573 81.194 627.809 81.3592 628.007 81.5669C628.215 81.7746 628.422 82.0436 628.63 82.374C628.847 82.7044 629.069 83.049 629.295 83.4077ZM650.083 83.436V90.7144L658.338 82.105C658.734 81.6896 659.069 81.3828 659.343 81.1846C659.626 80.9863 659.999 80.8872 660.462 80.8872C661.066 80.8872 661.552 81.0666 661.92 81.4253C662.298 81.7746 662.487 82.2041 662.487 82.7139C662.487 83.3275 662.171 83.9364 661.538 84.5405L656.426 89.3833L662.317 97.8228C662.732 98.408 663.044 98.9225 663.251 99.3662C663.459 99.8005 663.563 100.225 663.563 100.641C663.563 101.103 663.379 101.504 663.011 101.844C662.652 102.184 662.161 102.354 661.538 102.354C660.953 102.354 660.476 102.231 660.108 101.986C659.74 101.731 659.428 101.396 659.173 100.98C658.918 100.565 658.692 100.188 658.494 99.8477L653.523 92.2012L650.083 95.5005V99.791C650.083 100.66 649.884 101.306 649.488 101.731C649.091 102.146 648.582 102.354 647.958 102.354C647.6 102.354 647.255 102.26 646.925 102.071C646.594 101.882 646.34 101.627 646.16 101.306C646.028 101.042 645.948 100.735 645.919 100.386C645.891 100.036 645.877 99.5314 645.877 98.8706V83.436C645.877 82.5864 646.061 81.9492 646.429 81.5244C646.807 81.0996 647.317 80.8872 647.958 80.8872C648.591 80.8872 649.101 81.0996 649.488 81.5244C649.884 81.9398 650.083 82.577 650.083 83.436ZM671.436 83.436V98.5449H679.96C680.64 98.5449 681.159 98.7101 681.518 99.0405C681.886 99.3709 682.07 99.7863 682.07 100.287C682.07 100.796 681.891 101.212 681.532 101.533C681.174 101.844 680.65 102 679.96 102H669.808C668.892 102 668.231 101.797 667.825 101.391C667.429 100.985 667.23 100.329 667.23 99.4229V83.436C667.23 82.5864 667.419 81.9492 667.797 81.5244C668.184 81.0996 668.689 80.8872 669.312 80.8872C669.944 80.8872 670.454 81.0996 670.841 81.5244C671.238 81.9398 671.436 82.577 671.436 83.436ZM698.524 84.4839H689.051V89.5815H697.774C698.416 89.5815 698.893 89.7279 699.204 90.0205C699.525 90.3037 699.686 90.6813 699.686 91.1533C699.686 91.6253 699.53 92.0124 699.218 92.3145C698.907 92.6071 698.425 92.7534 697.774 92.7534H689.051V98.6582H698.85C699.511 98.6582 700.007 98.814 700.337 99.1255C700.677 99.4276 700.847 99.8335 700.847 100.343C700.847 100.834 700.677 101.235 700.337 101.547C700.007 101.849 699.511 102 698.85 102H687.423C686.507 102 685.846 101.797 685.44 101.391C685.044 100.985 684.846 100.329 684.846 99.4229V83.8184C684.846 83.2142 684.935 82.7233 685.115 82.3457C685.294 81.9587 685.573 81.6802 685.95 81.5103C686.337 81.3309 686.828 81.2412 687.423 81.2412H698.524C699.195 81.2412 699.69 81.3923 700.011 81.6943C700.342 81.987 700.507 82.374 700.507 82.8555C700.507 83.3464 700.342 83.7428 700.011 84.0449C699.69 84.3376 699.195 84.4839 698.524 84.4839Z" fill="#834D63"/>
    <path d="M497.996 181.92H491.463V185.436H497.479C497.921 185.436 498.25 185.536 498.465 185.738C498.686 185.934 498.797 186.194 498.797 186.52C498.797 186.845 498.689 187.112 498.475 187.32C498.26 187.522 497.928 187.623 497.479 187.623H491.463V191.695H498.221C498.676 191.695 499.018 191.803 499.246 192.018C499.48 192.226 499.598 192.506 499.598 192.857C499.598 193.196 499.48 193.473 499.246 193.688C499.018 193.896 498.676 194 498.221 194H490.34C489.708 194 489.253 193.86 488.973 193.58C488.699 193.3 488.562 192.848 488.562 192.223V181.461C488.562 181.044 488.624 180.706 488.748 180.445C488.872 180.178 489.064 179.986 489.324 179.869C489.591 179.745 489.93 179.684 490.34 179.684H497.996C498.458 179.684 498.8 179.788 499.021 179.996C499.249 180.198 499.363 180.465 499.363 180.797C499.363 181.135 499.249 181.409 499.021 181.617C498.8 181.819 498.458 181.92 497.996 181.92ZM503.602 185.064L505.76 191.119L508.084 184.801C508.266 184.293 508.445 183.935 508.621 183.727C508.797 183.512 509.064 183.404 509.422 183.404C509.76 183.404 510.047 183.518 510.281 183.746C510.522 183.974 510.643 184.238 510.643 184.537C510.643 184.654 510.62 184.791 510.574 184.947C510.535 185.104 510.486 185.25 510.428 185.387C510.376 185.523 510.314 185.68 510.242 185.855L507.684 192.203C507.612 192.385 507.518 192.617 507.4 192.896C507.29 193.176 507.163 193.417 507.02 193.619C506.883 193.814 506.71 193.967 506.502 194.078C506.3 194.189 506.053 194.244 505.76 194.244C505.382 194.244 505.079 194.16 504.852 193.99C504.63 193.814 504.464 193.626 504.354 193.424C504.249 193.215 504.07 192.809 503.816 192.203L501.277 185.924C501.219 185.768 501.157 185.611 501.092 185.455C501.033 185.299 500.981 185.139 500.936 184.977C500.896 184.814 500.877 184.674 500.877 184.557C500.877 184.374 500.932 184.195 501.043 184.02C501.154 183.837 501.307 183.691 501.502 183.58C501.697 183.463 501.909 183.404 502.137 183.404C502.579 183.404 502.882 183.531 503.045 183.785C503.214 184.039 503.4 184.465 503.602 185.064ZM519.725 189.479H514.51C514.516 190.084 514.637 190.618 514.871 191.08C515.112 191.542 515.428 191.891 515.818 192.125C516.215 192.359 516.652 192.477 517.127 192.477C517.446 192.477 517.736 192.441 517.996 192.369C518.263 192.291 518.52 192.174 518.768 192.018C519.015 191.855 519.243 191.682 519.451 191.5C519.66 191.318 519.93 191.07 520.262 190.758C520.398 190.641 520.594 190.582 520.848 190.582C521.121 190.582 521.342 190.657 521.512 190.807C521.681 190.956 521.766 191.168 521.766 191.441C521.766 191.682 521.671 191.965 521.482 192.291C521.294 192.61 521.007 192.919 520.623 193.219C520.245 193.512 519.767 193.756 519.188 193.951C518.615 194.146 517.954 194.244 517.205 194.244C515.493 194.244 514.161 193.756 513.211 192.779C512.26 191.803 511.785 190.478 511.785 188.805C511.785 188.017 511.902 187.288 512.137 186.617C512.371 185.94 512.713 185.361 513.162 184.879C513.611 184.397 514.165 184.029 514.822 183.775C515.48 183.515 516.209 183.385 517.01 183.385C518.051 183.385 518.943 183.606 519.686 184.049C520.434 184.485 520.994 185.051 521.365 185.748C521.736 186.445 521.922 187.154 521.922 187.877C521.922 188.548 521.73 188.984 521.346 189.186C520.962 189.381 520.421 189.479 519.725 189.479ZM514.51 187.965H519.344C519.279 187.053 519.031 186.373 518.602 185.924C518.178 185.468 517.618 185.24 516.922 185.24C516.258 185.24 515.711 185.471 515.281 185.934C514.858 186.389 514.601 187.066 514.51 187.965ZM526.6 184.879V185.201C527.068 184.583 527.579 184.13 528.133 183.844C528.693 183.551 529.334 183.404 530.057 183.404C530.76 183.404 531.388 183.557 531.941 183.863C532.495 184.169 532.908 184.602 533.182 185.162C533.357 185.488 533.471 185.839 533.523 186.217C533.576 186.594 533.602 187.076 533.602 187.662V192.623C533.602 193.157 533.478 193.561 533.23 193.834C532.99 194.107 532.674 194.244 532.283 194.244C531.886 194.244 531.564 194.104 531.316 193.824C531.069 193.544 530.945 193.144 530.945 192.623V188.18C530.945 187.301 530.822 186.63 530.574 186.168C530.333 185.699 529.848 185.465 529.119 185.465C528.644 185.465 528.211 185.608 527.82 185.895C527.43 186.174 527.143 186.562 526.961 187.057C526.831 187.454 526.766 188.196 526.766 189.283V192.623C526.766 193.163 526.639 193.57 526.385 193.844C526.137 194.111 525.815 194.244 525.418 194.244C525.034 194.244 524.718 194.104 524.471 193.824C524.223 193.544 524.1 193.144 524.1 192.623V184.918C524.1 184.41 524.21 184.033 524.432 183.785C524.653 183.531 524.956 183.404 525.34 183.404C525.574 183.404 525.786 183.46 525.975 183.57C526.163 183.681 526.313 183.847 526.424 184.068C526.541 184.29 526.6 184.56 526.6 184.879ZM551.59 191.744L549.275 183.16L546.932 191.744C546.749 192.395 546.603 192.864 546.492 193.15C546.388 193.43 546.202 193.684 545.936 193.912C545.669 194.133 545.314 194.244 544.871 194.244C544.513 194.244 544.217 194.176 543.982 194.039C543.755 193.909 543.569 193.723 543.426 193.482C543.283 193.235 543.165 192.945 543.074 192.613C542.983 192.275 542.902 191.962 542.83 191.676L540.447 182.037C540.304 181.477 540.232 181.051 540.232 180.758C540.232 180.387 540.363 180.074 540.623 179.82C540.883 179.566 541.206 179.439 541.59 179.439C542.117 179.439 542.472 179.609 542.654 179.947C542.837 180.286 542.996 180.777 543.133 181.422L545.008 189.781L547.107 181.959C547.264 181.36 547.404 180.904 547.527 180.592C547.651 180.279 547.853 180.009 548.133 179.781C548.413 179.553 548.794 179.439 549.275 179.439C549.764 179.439 550.141 179.56 550.408 179.801C550.682 180.035 550.87 180.292 550.975 180.572C551.079 180.852 551.219 181.314 551.395 181.959L553.514 189.781L555.389 181.422C555.48 180.986 555.564 180.644 555.643 180.396C555.727 180.149 555.867 179.928 556.062 179.732C556.264 179.537 556.554 179.439 556.932 179.439C557.309 179.439 557.628 179.566 557.889 179.82C558.156 180.068 558.289 180.38 558.289 180.758C558.289 181.025 558.217 181.451 558.074 182.037L555.691 191.676C555.529 192.327 555.392 192.805 555.281 193.111C555.177 193.411 554.995 193.674 554.734 193.902C554.48 194.13 554.119 194.244 553.65 194.244C553.208 194.244 552.853 194.133 552.586 193.912C552.319 193.691 552.133 193.443 552.029 193.17C551.925 192.89 551.779 192.415 551.59 191.744ZM566.268 192.74C565.623 193.242 564.998 193.619 564.393 193.873C563.794 194.12 563.12 194.244 562.371 194.244C561.688 194.244 561.085 194.111 560.564 193.844C560.05 193.57 559.653 193.202 559.373 192.74C559.093 192.278 558.953 191.777 558.953 191.236C558.953 190.507 559.184 189.885 559.646 189.371C560.109 188.857 560.743 188.512 561.551 188.336C561.72 188.297 562.14 188.209 562.811 188.072C563.481 187.936 564.054 187.812 564.529 187.701C565.011 187.584 565.532 187.444 566.092 187.281C566.059 186.578 565.916 186.064 565.662 185.738C565.415 185.406 564.897 185.24 564.109 185.24C563.432 185.24 562.921 185.335 562.576 185.523C562.238 185.712 561.945 185.995 561.697 186.373C561.456 186.751 561.284 187.001 561.18 187.125C561.082 187.242 560.867 187.301 560.535 187.301C560.236 187.301 559.975 187.206 559.754 187.018C559.539 186.822 559.432 186.575 559.432 186.275C559.432 185.807 559.598 185.351 559.93 184.908C560.262 184.465 560.779 184.101 561.482 183.814C562.186 183.528 563.061 183.385 564.109 183.385C565.281 183.385 566.202 183.525 566.873 183.805C567.544 184.078 568.016 184.514 568.289 185.113C568.569 185.712 568.709 186.507 568.709 187.496C568.709 188.121 568.706 188.652 568.699 189.088C568.699 189.524 568.696 190.009 568.689 190.543C568.689 191.044 568.771 191.568 568.934 192.115C569.103 192.656 569.188 193.004 569.188 193.16C569.188 193.434 569.057 193.684 568.797 193.912C568.543 194.133 568.253 194.244 567.928 194.244C567.654 194.244 567.384 194.117 567.117 193.863C566.85 193.603 566.567 193.229 566.268 192.74ZM566.092 188.883C565.701 189.026 565.132 189.179 564.383 189.342C563.641 189.498 563.126 189.615 562.84 189.693C562.553 189.765 562.28 189.911 562.02 190.133C561.759 190.348 561.629 190.65 561.629 191.041C561.629 191.445 561.782 191.79 562.088 192.076C562.394 192.356 562.794 192.496 563.289 192.496C563.816 192.496 564.301 192.382 564.744 192.154C565.193 191.92 565.522 191.62 565.73 191.256C565.971 190.852 566.092 190.188 566.092 189.264V188.883ZM571.062 183.639H571.355V182.037C571.355 181.607 571.365 181.272 571.385 181.031C571.411 180.784 571.476 180.572 571.58 180.396C571.684 180.214 571.834 180.068 572.029 179.957C572.225 179.84 572.443 179.781 572.684 179.781C573.022 179.781 573.328 179.908 573.602 180.162C573.784 180.331 573.898 180.54 573.943 180.787C573.995 181.028 574.021 181.373 574.021 181.822V183.639H574.998C575.376 183.639 575.662 183.73 575.857 183.912C576.059 184.088 576.16 184.316 576.16 184.596C576.16 184.954 576.017 185.204 575.73 185.348C575.451 185.491 575.047 185.562 574.52 185.562H574.021V190.465C574.021 190.882 574.035 191.204 574.061 191.432C574.093 191.653 574.171 191.835 574.295 191.979C574.425 192.115 574.633 192.184 574.92 192.184C575.076 192.184 575.288 192.158 575.555 192.105C575.822 192.047 576.03 192.018 576.18 192.018C576.395 192.018 576.587 192.105 576.756 192.281C576.932 192.451 577.02 192.662 577.02 192.916C577.02 193.346 576.785 193.674 576.316 193.902C575.848 194.13 575.174 194.244 574.295 194.244C573.462 194.244 572.83 194.104 572.4 193.824C571.971 193.544 571.688 193.157 571.551 192.662C571.421 192.167 571.355 191.507 571.355 190.68V185.562H571.004C570.62 185.562 570.327 185.471 570.125 185.289C569.923 185.107 569.822 184.876 569.822 184.596C569.822 184.316 569.926 184.088 570.135 183.912C570.35 183.73 570.659 183.639 571.062 183.639ZM585.447 189.479H580.232C580.239 190.084 580.359 190.618 580.594 191.08C580.835 191.542 581.15 191.891 581.541 192.125C581.938 192.359 582.374 192.477 582.85 192.477C583.169 192.477 583.458 192.441 583.719 192.369C583.986 192.291 584.243 192.174 584.49 192.018C584.738 191.855 584.965 191.682 585.174 191.5C585.382 191.318 585.652 191.07 585.984 190.758C586.121 190.641 586.316 190.582 586.57 190.582C586.844 190.582 587.065 190.657 587.234 190.807C587.404 190.956 587.488 191.168 587.488 191.441C587.488 191.682 587.394 191.965 587.205 192.291C587.016 192.61 586.73 192.919 586.346 193.219C585.968 193.512 585.49 193.756 584.91 193.951C584.337 194.146 583.676 194.244 582.928 194.244C581.215 194.244 579.884 193.756 578.934 192.779C577.983 191.803 577.508 190.478 577.508 188.805C577.508 188.017 577.625 187.288 577.859 186.617C578.094 185.94 578.436 185.361 578.885 184.879C579.334 184.397 579.887 184.029 580.545 183.775C581.202 183.515 581.932 183.385 582.732 183.385C583.774 183.385 584.666 183.606 585.408 184.049C586.157 184.485 586.717 185.051 587.088 185.748C587.459 186.445 587.645 187.154 587.645 187.877C587.645 188.548 587.452 188.984 587.068 189.186C586.684 189.381 586.144 189.479 585.447 189.479ZM580.232 187.965H585.066C585.001 187.053 584.754 186.373 584.324 185.924C583.901 185.468 583.341 185.24 582.645 185.24C581.98 185.24 581.434 185.471 581.004 185.934C580.581 186.389 580.324 187.066 580.232 187.965ZM592.547 190.396V192.623C592.547 193.163 592.42 193.57 592.166 193.844C591.912 194.111 591.59 194.244 591.199 194.244C590.815 194.244 590.499 194.107 590.252 193.834C590.005 193.561 589.881 193.157 589.881 192.623V185.201C589.881 184.003 590.314 183.404 591.18 183.404C591.622 183.404 591.941 183.544 592.137 183.824C592.332 184.104 592.439 184.518 592.459 185.064C592.778 184.518 593.104 184.104 593.436 183.824C593.774 183.544 594.223 183.404 594.783 183.404C595.343 183.404 595.887 183.544 596.414 183.824C596.941 184.104 597.205 184.475 597.205 184.938C597.205 185.263 597.091 185.533 596.863 185.748C596.642 185.956 596.401 186.061 596.141 186.061C596.043 186.061 595.805 186.002 595.428 185.885C595.057 185.761 594.728 185.699 594.441 185.699C594.051 185.699 593.732 185.803 593.484 186.012C593.237 186.214 593.045 186.516 592.908 186.92C592.771 187.324 592.677 187.805 592.625 188.365C592.573 188.919 592.547 189.596 592.547 190.396ZM609.412 188.424H606.756V192.477C606.756 193.056 606.619 193.495 606.346 193.795C606.072 194.094 605.727 194.244 605.311 194.244C604.874 194.244 604.523 194.098 604.256 193.805C603.989 193.505 603.855 193.069 603.855 192.496V181.461C603.855 180.823 604.002 180.367 604.295 180.094C604.588 179.82 605.053 179.684 605.691 179.684H609.412C610.512 179.684 611.359 179.768 611.951 179.938C612.537 180.1 613.042 180.37 613.465 180.748C613.895 181.126 614.22 181.588 614.441 182.135C614.663 182.682 614.773 183.297 614.773 183.98C614.773 185.439 614.324 186.546 613.426 187.301C612.527 188.049 611.189 188.424 609.412 188.424ZM608.709 181.861H606.756V186.236H608.709C609.393 186.236 609.962 186.165 610.418 186.021C610.88 185.878 611.232 185.644 611.473 185.318C611.714 184.993 611.834 184.566 611.834 184.039C611.834 183.408 611.648 182.893 611.277 182.496C610.861 182.073 610.005 181.861 608.709 181.861ZM619.656 190.396V192.623C619.656 193.163 619.529 193.57 619.275 193.844C619.021 194.111 618.699 194.244 618.309 194.244C617.924 194.244 617.609 194.107 617.361 193.834C617.114 193.561 616.99 193.157 616.99 192.623V185.201C616.99 184.003 617.423 183.404 618.289 183.404C618.732 183.404 619.051 183.544 619.246 183.824C619.441 184.104 619.549 184.518 619.568 185.064C619.887 184.518 620.213 184.104 620.545 183.824C620.883 183.544 621.333 183.404 621.893 183.404C622.452 183.404 622.996 183.544 623.523 183.824C624.051 184.104 624.314 184.475 624.314 184.938C624.314 185.263 624.201 185.533 623.973 185.748C623.751 185.956 623.51 186.061 623.25 186.061C623.152 186.061 622.915 186.002 622.537 185.885C622.166 185.761 621.837 185.699 621.551 185.699C621.16 185.699 620.841 185.803 620.594 186.012C620.346 186.214 620.154 186.516 620.018 186.92C619.881 187.324 619.786 187.805 619.734 188.365C619.682 188.919 619.656 189.596 619.656 190.396ZM634.998 188.824C634.998 189.618 634.874 190.351 634.627 191.021C634.38 191.692 634.021 192.268 633.553 192.75C633.084 193.232 632.524 193.603 631.873 193.863C631.222 194.117 630.49 194.244 629.676 194.244C628.868 194.244 628.143 194.114 627.498 193.854C626.854 193.593 626.294 193.222 625.818 192.74C625.35 192.252 624.992 191.679 624.744 191.021C624.503 190.357 624.383 189.625 624.383 188.824C624.383 188.017 624.507 187.278 624.754 186.607C625.001 185.937 625.356 185.364 625.818 184.889C626.281 184.413 626.84 184.049 627.498 183.795C628.156 183.535 628.882 183.404 629.676 183.404C630.483 183.404 631.215 183.535 631.873 183.795C632.531 184.055 633.094 184.426 633.562 184.908C634.031 185.39 634.386 185.963 634.627 186.627C634.874 187.291 634.998 188.023 634.998 188.824ZM632.322 188.824C632.322 187.737 632.081 186.891 631.6 186.285C631.124 185.68 630.483 185.377 629.676 185.377C629.155 185.377 628.696 185.514 628.299 185.787C627.902 186.054 627.596 186.451 627.381 186.979C627.166 187.506 627.059 188.121 627.059 188.824C627.059 189.521 627.163 190.13 627.371 190.65C627.586 191.171 627.889 191.572 628.279 191.852C628.676 192.125 629.142 192.262 629.676 192.262C630.483 192.262 631.124 191.959 631.6 191.354C632.081 190.742 632.322 189.898 632.322 188.824ZM647.088 188.824C647.088 189.618 646.964 190.351 646.717 191.021C646.469 191.692 646.111 192.268 645.643 192.75C645.174 193.232 644.614 193.603 643.963 193.863C643.312 194.117 642.579 194.244 641.766 194.244C640.958 194.244 640.232 194.114 639.588 193.854C638.943 193.593 638.383 193.222 637.908 192.74C637.439 192.252 637.081 191.679 636.834 191.021C636.593 190.357 636.473 189.625 636.473 188.824C636.473 188.017 636.596 187.278 636.844 186.607C637.091 185.937 637.446 185.364 637.908 184.889C638.37 184.413 638.93 184.049 639.588 183.795C640.245 183.535 640.971 183.404 641.766 183.404C642.573 183.404 643.305 183.535 643.963 183.795C644.62 184.055 645.184 184.426 645.652 184.908C646.121 185.39 646.476 185.963 646.717 186.627C646.964 187.291 647.088 188.023 647.088 188.824ZM644.412 188.824C644.412 187.737 644.171 186.891 643.689 186.285C643.214 185.68 642.573 185.377 641.766 185.377C641.245 185.377 640.786 185.514 640.389 185.787C639.992 186.054 639.686 186.451 639.471 186.979C639.256 187.506 639.148 188.121 639.148 188.824C639.148 189.521 639.253 190.13 639.461 190.65C639.676 191.171 639.979 191.572 640.369 191.852C640.766 192.125 641.232 192.262 641.766 192.262C642.573 192.262 643.214 191.959 643.689 191.354C644.171 190.742 644.412 189.898 644.412 188.824ZM648.982 183.639H649.617V182.838C649.617 182.005 649.721 181.344 649.93 180.855C650.145 180.361 650.503 180.003 651.004 179.781C651.512 179.553 652.205 179.439 653.084 179.439C654.64 179.439 655.418 179.82 655.418 180.582C655.418 180.829 655.337 181.041 655.174 181.217C655.011 181.393 654.819 181.48 654.598 181.48C654.493 181.48 654.314 181.461 654.061 181.422C653.807 181.383 653.592 181.363 653.416 181.363C652.934 181.363 652.625 181.507 652.488 181.793C652.352 182.073 652.283 182.477 652.283 183.004V183.639H652.938C653.953 183.639 654.461 183.945 654.461 184.557C654.461 184.993 654.324 185.27 654.051 185.387C653.784 185.504 653.413 185.562 652.938 185.562H652.283V192.623C652.283 193.15 652.156 193.554 651.902 193.834C651.655 194.107 651.333 194.244 650.936 194.244C650.558 194.244 650.242 194.107 649.988 193.834C649.741 193.554 649.617 193.15 649.617 192.623V185.562H648.885C648.488 185.562 648.182 185.475 647.967 185.299C647.752 185.117 647.645 184.882 647.645 184.596C647.645 183.958 648.09 183.639 648.982 183.639ZM493.396 231.842L491.102 222.721V232.604C491.102 233.15 490.978 233.561 490.73 233.834C490.49 234.107 490.167 234.244 489.764 234.244C489.373 234.244 489.054 234.111 488.807 233.844C488.559 233.57 488.436 233.157 488.436 232.604V221.275C488.436 220.65 488.598 220.23 488.924 220.016C489.249 219.794 489.689 219.684 490.242 219.684H491.141C491.681 219.684 492.072 219.732 492.312 219.83C492.56 219.928 492.742 220.104 492.859 220.357C492.977 220.611 493.11 221.025 493.26 221.598L495.34 229.439L497.42 221.598C497.57 221.025 497.703 220.611 497.82 220.357C497.938 220.104 498.117 219.928 498.357 219.83C498.605 219.732 498.999 219.684 499.539 219.684H500.438C500.991 219.684 501.43 219.794 501.756 220.016C502.081 220.23 502.244 220.65 502.244 221.275V232.604C502.244 233.15 502.12 233.561 501.873 233.834C501.632 234.107 501.307 234.244 500.896 234.244C500.512 234.244 500.197 234.107 499.949 233.834C499.702 233.561 499.578 233.15 499.578 232.604V222.721L497.283 231.842C497.133 232.434 497.01 232.87 496.912 233.15C496.821 233.424 496.648 233.674 496.395 233.902C496.141 234.13 495.789 234.244 495.34 234.244C495.001 234.244 494.715 234.169 494.48 234.02C494.246 233.876 494.064 233.691 493.934 233.463C493.803 233.235 493.699 232.984 493.621 232.711C493.549 232.431 493.475 232.141 493.396 231.842ZM511.775 232.74C511.131 233.242 510.506 233.619 509.9 233.873C509.301 234.12 508.628 234.244 507.879 234.244C507.195 234.244 506.593 234.111 506.072 233.844C505.558 233.57 505.161 233.202 504.881 232.74C504.601 232.278 504.461 231.777 504.461 231.236C504.461 230.507 504.692 229.885 505.154 229.371C505.617 228.857 506.251 228.512 507.059 228.336C507.228 228.297 507.648 228.209 508.318 228.072C508.989 227.936 509.562 227.812 510.037 227.701C510.519 227.584 511.04 227.444 511.6 227.281C511.567 226.578 511.424 226.064 511.17 225.738C510.923 225.406 510.405 225.24 509.617 225.24C508.94 225.24 508.429 225.335 508.084 225.523C507.745 225.712 507.452 225.995 507.205 226.373C506.964 226.751 506.792 227.001 506.688 227.125C506.59 227.242 506.375 227.301 506.043 227.301C505.743 227.301 505.483 227.206 505.262 227.018C505.047 226.822 504.939 226.575 504.939 226.275C504.939 225.807 505.105 225.351 505.438 224.908C505.77 224.465 506.287 224.101 506.99 223.814C507.693 223.528 508.569 223.385 509.617 223.385C510.789 223.385 511.71 223.525 512.381 223.805C513.051 224.078 513.523 224.514 513.797 225.113C514.077 225.712 514.217 226.507 514.217 227.496C514.217 228.121 514.214 228.652 514.207 229.088C514.207 229.524 514.204 230.009 514.197 230.543C514.197 231.044 514.279 231.568 514.441 232.115C514.611 232.656 514.695 233.004 514.695 233.16C514.695 233.434 514.565 233.684 514.305 233.912C514.051 234.133 513.761 234.244 513.436 234.244C513.162 234.244 512.892 234.117 512.625 233.863C512.358 233.603 512.075 233.229 511.775 232.74ZM511.6 228.883C511.209 229.026 510.639 229.179 509.891 229.342C509.148 229.498 508.634 229.615 508.348 229.693C508.061 229.765 507.788 229.911 507.527 230.133C507.267 230.348 507.137 230.65 507.137 231.041C507.137 231.445 507.29 231.79 507.596 232.076C507.902 232.356 508.302 232.496 508.797 232.496C509.324 232.496 509.809 232.382 510.252 232.154C510.701 231.92 511.03 231.62 511.238 231.256C511.479 230.852 511.6 230.188 511.6 229.264V228.883ZM523.572 233.023L521.219 229.156L519.773 230.523V232.643C519.773 233.157 519.637 233.554 519.363 233.834C519.096 234.107 518.787 234.244 518.436 234.244C518.025 234.244 517.703 234.107 517.469 233.834C517.234 233.561 517.117 233.157 517.117 232.623V221.256C517.117 220.663 517.231 220.214 517.459 219.908C517.687 219.596 518.012 219.439 518.436 219.439C518.846 219.439 519.171 219.579 519.412 219.859C519.653 220.139 519.773 220.553 519.773 221.1V227.564L522.771 224.42C523.143 224.029 523.426 223.762 523.621 223.619C523.816 223.476 524.054 223.404 524.334 223.404C524.666 223.404 524.943 223.512 525.164 223.727C525.385 223.935 525.496 224.199 525.496 224.518C525.496 224.908 525.135 225.429 524.412 226.08L522.996 227.379L525.73 231.676C525.932 231.995 526.076 232.239 526.16 232.408C526.251 232.571 526.297 232.727 526.297 232.877C526.297 233.3 526.18 233.635 525.945 233.883C525.717 234.124 525.415 234.244 525.037 234.244C524.712 234.244 524.461 234.156 524.285 233.98C524.109 233.805 523.872 233.486 523.572 233.023ZM535.076 229.479H529.861C529.868 230.084 529.988 230.618 530.223 231.08C530.464 231.542 530.779 231.891 531.17 232.125C531.567 232.359 532.003 232.477 532.479 232.477C532.798 232.477 533.087 232.441 533.348 232.369C533.615 232.291 533.872 232.174 534.119 232.018C534.367 231.855 534.594 231.682 534.803 231.5C535.011 231.318 535.281 231.07 535.613 230.758C535.75 230.641 535.945 230.582 536.199 230.582C536.473 230.582 536.694 230.657 536.863 230.807C537.033 230.956 537.117 231.168 537.117 231.441C537.117 231.682 537.023 231.965 536.834 232.291C536.645 232.61 536.359 232.919 535.975 233.219C535.597 233.512 535.118 233.756 534.539 233.951C533.966 234.146 533.305 234.244 532.557 234.244C530.844 234.244 529.513 233.756 528.562 232.779C527.612 231.803 527.137 230.478 527.137 228.805C527.137 228.017 527.254 227.288 527.488 226.617C527.723 225.94 528.064 225.361 528.514 224.879C528.963 224.397 529.516 224.029 530.174 223.775C530.831 223.515 531.561 223.385 532.361 223.385C533.403 223.385 534.295 223.606 535.037 224.049C535.786 224.485 536.346 225.051 536.717 225.748C537.088 226.445 537.273 227.154 537.273 227.877C537.273 228.548 537.081 228.984 536.697 229.186C536.313 229.381 535.773 229.479 535.076 229.479ZM529.861 227.965H534.695C534.63 227.053 534.383 226.373 533.953 225.924C533.53 225.468 532.97 225.24 532.273 225.24C531.609 225.24 531.062 225.471 530.633 225.934C530.21 226.389 529.952 227.066 529.861 227.965ZM543.035 229.977H539.949C539.48 229.977 539.122 229.869 538.875 229.654C538.634 229.433 538.514 229.15 538.514 228.805C538.514 228.453 538.631 228.17 538.865 227.955C539.106 227.734 539.467 227.623 539.949 227.623H543.035C543.517 227.623 543.875 227.734 544.109 227.955C544.35 228.17 544.471 228.453 544.471 228.805C544.471 229.15 544.354 229.433 544.119 229.654C543.885 229.869 543.523 229.977 543.035 229.977ZM546.395 228.082V221.197C546.395 220.611 546.525 220.172 546.785 219.879C547.052 219.586 547.4 219.439 547.83 219.439C548.279 219.439 548.634 219.586 548.895 219.879C549.161 220.172 549.295 220.611 549.295 221.197V228.238C549.295 229.039 549.383 229.71 549.559 230.25C549.741 230.784 550.06 231.201 550.516 231.5C550.971 231.793 551.609 231.939 552.43 231.939C553.562 231.939 554.363 231.64 554.832 231.041C555.301 230.436 555.535 229.521 555.535 228.297V221.197C555.535 220.605 555.665 220.165 555.926 219.879C556.186 219.586 556.535 219.439 556.971 219.439C557.407 219.439 557.758 219.586 558.025 219.879C558.299 220.165 558.436 220.605 558.436 221.197V228.082C558.436 229.202 558.325 230.136 558.104 230.885C557.889 231.633 557.479 232.291 556.873 232.857C556.352 233.339 555.747 233.691 555.057 233.912C554.367 234.133 553.559 234.244 552.635 234.244C551.535 234.244 550.587 234.127 549.793 233.893C548.999 233.652 548.351 233.284 547.85 232.789C547.348 232.288 546.98 231.65 546.746 230.875C546.512 230.094 546.395 229.163 546.395 228.082ZM563.846 224.898V225.221C564.347 224.602 564.868 224.15 565.408 223.863C565.949 223.57 566.561 223.424 567.244 223.424C568.064 223.424 568.82 223.635 569.51 224.059C570.2 224.482 570.743 225.1 571.141 225.914C571.544 226.728 571.746 227.691 571.746 228.805C571.746 229.625 571.629 230.38 571.395 231.07C571.167 231.754 570.851 232.33 570.447 232.799C570.044 233.261 569.565 233.619 569.012 233.873C568.465 234.12 567.876 234.244 567.244 234.244C566.482 234.244 565.841 234.091 565.32 233.785C564.806 233.479 564.314 233.03 563.846 232.438V236.441C563.846 237.613 563.419 238.199 562.566 238.199C562.065 238.199 561.733 238.046 561.57 237.74C561.408 237.441 561.326 237.001 561.326 236.422V224.918C561.326 224.41 561.437 224.033 561.658 223.785C561.88 223.531 562.182 223.404 562.566 223.404C562.944 223.404 563.25 223.535 563.484 223.795C563.725 224.049 563.846 224.417 563.846 224.898ZM569.07 228.775C569.07 228.072 568.963 227.47 568.748 226.969C568.533 226.461 568.234 226.074 567.85 225.807C567.472 225.533 567.052 225.396 566.59 225.396C565.854 225.396 565.232 225.686 564.725 226.266C564.223 226.845 563.973 227.698 563.973 228.824C563.973 229.885 564.223 230.712 564.725 231.305C565.226 231.891 565.848 232.184 566.59 232.184C567.033 232.184 567.443 232.057 567.82 231.803C568.198 231.542 568.501 231.155 568.729 230.641C568.956 230.126 569.07 229.505 569.07 228.775ZM582.967 227.877H581.951V232.477C581.951 233.082 581.818 233.528 581.551 233.814C581.284 234.101 580.936 234.244 580.506 234.244C580.044 234.244 579.686 234.094 579.432 233.795C579.178 233.495 579.051 233.056 579.051 232.477V221.461C579.051 220.836 579.191 220.383 579.471 220.104C579.751 219.824 580.203 219.684 580.828 219.684H585.545C586.196 219.684 586.753 219.713 587.215 219.771C587.677 219.824 588.094 219.934 588.465 220.104C588.914 220.292 589.311 220.562 589.656 220.914C590.001 221.266 590.262 221.676 590.438 222.145C590.62 222.607 590.711 223.098 590.711 223.619C590.711 224.687 590.408 225.54 589.803 226.178C589.204 226.816 588.292 227.268 587.068 227.535C587.583 227.809 588.074 228.212 588.543 228.746C589.012 229.28 589.428 229.85 589.793 230.455C590.164 231.054 590.451 231.598 590.652 232.086C590.861 232.568 590.965 232.9 590.965 233.082C590.965 233.271 590.903 233.46 590.779 233.648C590.662 233.831 590.499 233.974 590.291 234.078C590.083 234.189 589.842 234.244 589.568 234.244C589.243 234.244 588.969 234.166 588.748 234.01C588.527 233.86 588.335 233.668 588.172 233.434C588.016 233.199 587.801 232.854 587.527 232.398L586.365 230.465C585.949 229.755 585.574 229.215 585.242 228.844C584.917 228.473 584.585 228.219 584.246 228.082C583.908 227.945 583.481 227.877 582.967 227.877ZM584.627 221.861H581.951V225.797H584.549C585.245 225.797 585.831 225.738 586.307 225.621C586.782 225.497 587.143 225.292 587.391 225.006C587.645 224.713 587.771 224.312 587.771 223.805C587.771 223.408 587.671 223.059 587.469 222.76C587.267 222.454 586.987 222.226 586.629 222.076C586.29 221.933 585.623 221.861 584.627 221.861ZM600.213 229.479H594.998C595.005 230.084 595.125 230.618 595.359 231.08C595.6 231.542 595.916 231.891 596.307 232.125C596.704 232.359 597.14 232.477 597.615 232.477C597.934 232.477 598.224 232.441 598.484 232.369C598.751 232.291 599.008 232.174 599.256 232.018C599.503 231.855 599.731 231.682 599.939 231.5C600.148 231.318 600.418 231.07 600.75 230.758C600.887 230.641 601.082 230.582 601.336 230.582C601.609 230.582 601.831 230.657 602 230.807C602.169 230.956 602.254 231.168 602.254 231.441C602.254 231.682 602.16 231.965 601.971 232.291C601.782 232.61 601.495 232.919 601.111 233.219C600.734 233.512 600.255 233.756 599.676 233.951C599.103 234.146 598.442 234.244 597.693 234.244C595.981 234.244 594.65 233.756 593.699 232.779C592.749 231.803 592.273 230.478 592.273 228.805C592.273 228.017 592.391 227.288 592.625 226.617C592.859 225.94 593.201 225.361 593.65 224.879C594.1 224.397 594.653 224.029 595.311 223.775C595.968 223.515 596.697 223.385 597.498 223.385C598.54 223.385 599.432 223.606 600.174 224.049C600.923 224.485 601.482 225.051 601.854 225.748C602.225 226.445 602.41 227.154 602.41 227.877C602.41 228.548 602.218 228.984 601.834 229.186C601.45 229.381 600.91 229.479 600.213 229.479ZM594.998 227.965H599.832C599.767 227.053 599.52 226.373 599.09 225.924C598.667 225.468 598.107 225.24 597.41 225.24C596.746 225.24 596.199 225.471 595.77 225.934C595.346 226.389 595.089 227.066 594.998 227.965ZM613.533 229.02V232.564C613.533 233.124 613.406 233.544 613.152 233.824C612.898 234.104 612.563 234.244 612.146 234.244C611.743 234.244 611.414 234.104 611.16 233.824C610.913 233.544 610.789 233.124 610.789 232.564V228.316C610.789 227.646 610.766 227.125 610.721 226.754C610.675 226.383 610.551 226.08 610.35 225.846C610.148 225.605 609.829 225.484 609.393 225.484C608.52 225.484 607.944 225.784 607.664 226.383C607.391 226.982 607.254 227.841 607.254 228.961V232.564C607.254 233.118 607.127 233.538 606.873 233.824C606.626 234.104 606.297 234.244 605.887 234.244C605.483 234.244 605.151 234.104 604.891 233.824C604.637 233.538 604.51 233.118 604.51 232.564V224.938C604.51 224.436 604.624 224.055 604.852 223.795C605.086 223.535 605.392 223.404 605.77 223.404C606.134 223.404 606.437 223.528 606.678 223.775C606.925 224.016 607.049 224.352 607.049 224.781V225.035C607.511 224.482 608.006 224.075 608.533 223.814C609.061 223.554 609.646 223.424 610.291 223.424C610.962 223.424 611.538 223.557 612.02 223.824C612.501 224.091 612.898 224.495 613.211 225.035C613.66 224.488 614.142 224.085 614.656 223.824C615.171 223.557 615.74 223.424 616.365 223.424C617.094 223.424 617.723 223.567 618.25 223.854C618.777 224.14 619.171 224.55 619.432 225.084C619.66 225.566 619.773 226.324 619.773 227.359V232.564C619.773 233.124 619.646 233.544 619.393 233.824C619.139 234.104 618.803 234.244 618.387 234.244C617.983 234.244 617.651 234.104 617.391 233.824C617.137 233.538 617.01 233.118 617.01 232.564V228.082C617.01 227.509 616.984 227.05 616.932 226.705C616.886 226.36 616.756 226.07 616.541 225.836C616.326 225.602 616.001 225.484 615.564 225.484C615.213 225.484 614.878 225.589 614.559 225.797C614.246 226.005 614.002 226.285 613.826 226.637C613.631 227.086 613.533 227.88 613.533 229.02ZM632.342 228.824C632.342 229.618 632.218 230.351 631.971 231.021C631.723 231.692 631.365 232.268 630.896 232.75C630.428 233.232 629.868 233.603 629.217 233.863C628.566 234.117 627.833 234.244 627.02 234.244C626.212 234.244 625.486 234.114 624.842 233.854C624.197 233.593 623.637 233.222 623.162 232.74C622.693 232.252 622.335 231.679 622.088 231.021C621.847 230.357 621.727 229.625 621.727 228.824C621.727 228.017 621.85 227.278 622.098 226.607C622.345 225.937 622.7 225.364 623.162 224.889C623.624 224.413 624.184 224.049 624.842 223.795C625.499 223.535 626.225 223.404 627.02 223.404C627.827 223.404 628.559 223.535 629.217 223.795C629.874 224.055 630.438 224.426 630.906 224.908C631.375 225.39 631.73 225.963 631.971 226.627C632.218 227.291 632.342 228.023 632.342 228.824ZM629.666 228.824C629.666 227.737 629.425 226.891 628.943 226.285C628.468 225.68 627.827 225.377 627.02 225.377C626.499 225.377 626.04 225.514 625.643 225.787C625.245 226.054 624.939 226.451 624.725 226.979C624.51 227.506 624.402 228.121 624.402 228.824C624.402 229.521 624.507 230.13 624.715 230.65C624.93 231.171 625.232 231.572 625.623 231.852C626.02 232.125 626.486 232.262 627.02 232.262C627.827 232.262 628.468 231.959 628.943 231.354C629.425 230.742 629.666 229.898 629.666 228.824ZM636.062 225.064L638.221 231.119L640.545 224.801C640.727 224.293 640.906 223.935 641.082 223.727C641.258 223.512 641.525 223.404 641.883 223.404C642.221 223.404 642.508 223.518 642.742 223.746C642.983 223.974 643.104 224.238 643.104 224.537C643.104 224.654 643.081 224.791 643.035 224.947C642.996 225.104 642.947 225.25 642.889 225.387C642.837 225.523 642.775 225.68 642.703 225.855L640.145 232.203C640.073 232.385 639.979 232.617 639.861 232.896C639.751 233.176 639.624 233.417 639.48 233.619C639.344 233.814 639.171 233.967 638.963 234.078C638.761 234.189 638.514 234.244 638.221 234.244C637.843 234.244 637.54 234.16 637.312 233.99C637.091 233.814 636.925 233.626 636.814 233.424C636.71 233.215 636.531 232.809 636.277 232.203L633.738 225.924C633.68 225.768 633.618 225.611 633.553 225.455C633.494 225.299 633.442 225.139 633.396 224.977C633.357 224.814 633.338 224.674 633.338 224.557C633.338 224.374 633.393 224.195 633.504 224.02C633.615 223.837 633.768 223.691 633.963 223.58C634.158 223.463 634.37 223.404 634.598 223.404C635.04 223.404 635.343 223.531 635.506 223.785C635.675 224.039 635.861 224.465 636.062 225.064ZM652.186 229.479H646.971C646.977 230.084 647.098 230.618 647.332 231.08C647.573 231.542 647.889 231.891 648.279 232.125C648.676 232.359 649.113 232.477 649.588 232.477C649.907 232.477 650.197 232.441 650.457 232.369C650.724 232.291 650.981 232.174 651.229 232.018C651.476 231.855 651.704 231.682 651.912 231.5C652.12 231.318 652.391 231.07 652.723 230.758C652.859 230.641 653.055 230.582 653.309 230.582C653.582 230.582 653.803 230.657 653.973 230.807C654.142 230.956 654.227 231.168 654.227 231.441C654.227 231.682 654.132 231.965 653.943 232.291C653.755 232.61 653.468 232.919 653.084 233.219C652.706 233.512 652.228 233.756 651.648 233.951C651.076 234.146 650.415 234.244 649.666 234.244C647.954 234.244 646.622 233.756 645.672 232.779C644.721 231.803 644.246 230.478 644.246 228.805C644.246 228.017 644.363 227.288 644.598 226.617C644.832 225.94 645.174 225.361 645.623 224.879C646.072 224.397 646.626 224.029 647.283 223.775C647.941 223.515 648.67 223.385 649.471 223.385C650.512 223.385 651.404 223.606 652.146 224.049C652.895 224.485 653.455 225.051 653.826 225.748C654.197 226.445 654.383 227.154 654.383 227.877C654.383 228.548 654.191 228.984 653.807 229.186C653.423 229.381 652.882 229.479 652.186 229.479ZM646.971 227.965H651.805C651.74 227.053 651.492 226.373 651.062 225.924C650.639 225.468 650.079 225.24 649.383 225.24C648.719 225.24 648.172 225.471 647.742 225.934C647.319 226.389 647.062 227.066 646.971 227.965ZM659.285 230.396V232.623C659.285 233.163 659.158 233.57 658.904 233.844C658.65 234.111 658.328 234.244 657.938 234.244C657.553 234.244 657.238 234.107 656.99 233.834C656.743 233.561 656.619 233.157 656.619 232.623V225.201C656.619 224.003 657.052 223.404 657.918 223.404C658.361 223.404 658.68 223.544 658.875 223.824C659.07 224.104 659.178 224.518 659.197 225.064C659.516 224.518 659.842 224.104 660.174 223.824C660.512 223.544 660.962 223.404 661.521 223.404C662.081 223.404 662.625 223.544 663.152 223.824C663.68 224.104 663.943 224.475 663.943 224.938C663.943 225.263 663.829 225.533 663.602 225.748C663.38 225.956 663.139 226.061 662.879 226.061C662.781 226.061 662.544 226.002 662.166 225.885C661.795 225.761 661.466 225.699 661.18 225.699C660.789 225.699 660.47 225.803 660.223 226.012C659.975 226.214 659.783 226.516 659.646 226.92C659.51 227.324 659.415 227.805 659.363 228.365C659.311 228.919 659.285 229.596 659.285 230.396Z" fill="#834D63"/>
    <rect x="487" y="123" width="215" height="32" rx="16" fill="#C53089"/>
    <g filter="url(#filter0_d_8_15)">
    <path d="M514.953 140.562C514.953 141.255 514.773 141.878 514.414 142.43C514.06 142.982 513.539 143.414 512.852 143.727C512.164 144.039 511.349 144.195 510.406 144.195C509.276 144.195 508.344 143.982 507.609 143.555C507.089 143.247 506.664 142.839 506.336 142.328C506.013 141.812 505.852 141.312 505.852 140.828C505.852 140.547 505.948 140.307 506.141 140.109C506.339 139.906 506.589 139.805 506.891 139.805C507.135 139.805 507.341 139.883 507.508 140.039C507.68 140.195 507.826 140.427 507.945 140.734C508.091 141.099 508.247 141.404 508.414 141.648C508.586 141.893 508.826 142.096 509.133 142.258C509.44 142.414 509.844 142.492 510.344 142.492C511.031 142.492 511.589 142.333 512.016 142.016C512.448 141.693 512.664 141.292 512.664 140.812C512.664 140.432 512.547 140.125 512.312 139.891C512.083 139.651 511.784 139.469 511.414 139.344C511.049 139.219 510.56 139.086 509.945 138.945C509.122 138.753 508.432 138.529 507.875 138.273C507.323 138.013 506.883 137.661 506.555 137.219C506.232 136.771 506.07 136.216 506.07 135.555C506.07 134.924 506.242 134.365 506.586 133.875C506.93 133.385 507.427 133.01 508.078 132.75C508.729 132.484 509.495 132.352 510.375 132.352C511.078 132.352 511.685 132.44 512.195 132.617C512.711 132.789 513.138 133.021 513.477 133.312C513.815 133.599 514.062 133.901 514.219 134.219C514.375 134.536 514.453 134.846 514.453 135.148C514.453 135.424 514.354 135.674 514.156 135.898C513.964 136.117 513.721 136.227 513.43 136.227C513.164 136.227 512.961 136.161 512.82 136.031C512.685 135.896 512.536 135.677 512.375 135.375C512.167 134.943 511.917 134.607 511.625 134.367C511.333 134.122 510.865 134 510.219 134C509.62 134 509.135 134.133 508.766 134.398C508.401 134.659 508.219 134.974 508.219 135.344C508.219 135.573 508.281 135.771 508.406 135.938C508.531 136.104 508.703 136.247 508.922 136.367C509.141 136.487 509.362 136.581 509.586 136.648C509.81 136.716 510.18 136.815 510.695 136.945C511.341 137.096 511.924 137.263 512.445 137.445C512.971 137.628 513.417 137.849 513.781 138.109C514.151 138.37 514.438 138.701 514.641 139.102C514.849 139.497 514.953 139.984 514.953 140.562ZM516.891 135.711H517.125V134.43C517.125 134.086 517.133 133.818 517.148 133.625C517.169 133.427 517.221 133.258 517.305 133.117C517.388 132.971 517.508 132.854 517.664 132.766C517.82 132.672 517.995 132.625 518.188 132.625C518.458 132.625 518.703 132.727 518.922 132.93C519.068 133.065 519.159 133.232 519.195 133.43C519.237 133.622 519.258 133.898 519.258 134.258V135.711H520.039C520.341 135.711 520.57 135.784 520.727 135.93C520.888 136.07 520.969 136.253 520.969 136.477C520.969 136.763 520.854 136.964 520.625 137.078C520.401 137.193 520.078 137.25 519.656 137.25H519.258V141.172C519.258 141.505 519.268 141.763 519.289 141.945C519.315 142.122 519.378 142.268 519.477 142.383C519.581 142.492 519.747 142.547 519.977 142.547C520.102 142.547 520.271 142.526 520.484 142.484C520.698 142.438 520.865 142.414 520.984 142.414C521.156 142.414 521.31 142.484 521.445 142.625C521.586 142.76 521.656 142.93 521.656 143.133C521.656 143.477 521.469 143.74 521.094 143.922C520.719 144.104 520.18 144.195 519.477 144.195C518.81 144.195 518.305 144.083 517.961 143.859C517.617 143.635 517.391 143.326 517.281 142.93C517.177 142.534 517.125 142.005 517.125 141.344V137.25H516.844C516.536 137.25 516.302 137.177 516.141 137.031C515.979 136.885 515.898 136.701 515.898 136.477C515.898 136.253 515.982 136.07 516.148 135.93C516.32 135.784 516.568 135.711 516.891 135.711ZM530.43 139.859C530.43 140.495 530.331 141.081 530.133 141.617C529.935 142.154 529.648 142.615 529.273 143C528.898 143.385 528.451 143.682 527.93 143.891C527.409 144.094 526.823 144.195 526.172 144.195C525.526 144.195 524.945 144.091 524.43 143.883C523.914 143.674 523.466 143.378 523.086 142.992C522.711 142.602 522.424 142.143 522.227 141.617C522.034 141.086 521.938 140.5 521.938 139.859C521.938 139.214 522.036 138.622 522.234 138.086C522.432 137.549 522.716 137.091 523.086 136.711C523.456 136.331 523.904 136.039 524.43 135.836C524.956 135.628 525.536 135.523 526.172 135.523C526.818 135.523 527.404 135.628 527.93 135.836C528.456 136.044 528.906 136.341 529.281 136.727C529.656 137.112 529.94 137.57 530.133 138.102C530.331 138.633 530.43 139.219 530.43 139.859ZM528.289 139.859C528.289 138.99 528.096 138.312 527.711 137.828C527.331 137.344 526.818 137.102 526.172 137.102C525.755 137.102 525.388 137.211 525.07 137.43C524.753 137.643 524.508 137.961 524.336 138.383C524.164 138.805 524.078 139.297 524.078 139.859C524.078 140.417 524.161 140.904 524.328 141.32C524.5 141.737 524.742 142.057 525.055 142.281C525.372 142.5 525.745 142.609 526.172 142.609C526.818 142.609 527.331 142.367 527.711 141.883C528.096 141.393 528.289 140.719 528.289 139.859ZM534.086 136.719V136.977C534.487 136.482 534.904 136.12 535.336 135.891C535.768 135.656 536.258 135.539 536.805 135.539C537.461 135.539 538.065 135.708 538.617 136.047C539.169 136.385 539.604 136.88 539.922 137.531C540.245 138.182 540.406 138.953 540.406 139.844C540.406 140.5 540.312 141.104 540.125 141.656C539.943 142.203 539.69 142.664 539.367 143.039C539.044 143.409 538.661 143.695 538.219 143.898C537.781 144.096 537.31 144.195 536.805 144.195C536.195 144.195 535.682 144.073 535.266 143.828C534.854 143.583 534.461 143.224 534.086 142.75V145.953C534.086 146.891 533.745 147.359 533.062 147.359C532.661 147.359 532.396 147.237 532.266 146.992C532.135 146.753 532.07 146.401 532.07 145.938V136.734C532.07 136.328 532.159 136.026 532.336 135.828C532.513 135.625 532.755 135.523 533.062 135.523C533.365 135.523 533.609 135.628 533.797 135.836C533.99 136.039 534.086 136.333 534.086 136.719ZM538.266 139.82C538.266 139.258 538.18 138.776 538.008 138.375C537.836 137.969 537.596 137.659 537.289 137.445C536.987 137.227 536.651 137.117 536.281 137.117C535.693 137.117 535.195 137.349 534.789 137.812C534.388 138.276 534.188 138.958 534.188 139.859C534.188 140.708 534.388 141.37 534.789 141.844C535.19 142.312 535.688 142.547 536.281 142.547C536.635 142.547 536.964 142.445 537.266 142.242C537.568 142.034 537.81 141.724 537.992 141.312C538.174 140.901 538.266 140.404 538.266 139.82ZM546.234 135.711H546.469V134.43C546.469 134.086 546.477 133.818 546.492 133.625C546.513 133.427 546.565 133.258 546.648 133.117C546.732 132.971 546.852 132.854 547.008 132.766C547.164 132.672 547.339 132.625 547.531 132.625C547.802 132.625 548.047 132.727 548.266 132.93C548.411 133.065 548.503 133.232 548.539 133.43C548.581 133.622 548.602 133.898 548.602 134.258V135.711H549.383C549.685 135.711 549.914 135.784 550.07 135.93C550.232 136.07 550.312 136.253 550.312 136.477C550.312 136.763 550.198 136.964 549.969 137.078C549.745 137.193 549.422 137.25 549 137.25H548.602V141.172C548.602 141.505 548.612 141.763 548.633 141.945C548.659 142.122 548.721 142.268 548.82 142.383C548.924 142.492 549.091 142.547 549.32 142.547C549.445 142.547 549.615 142.526 549.828 142.484C550.042 142.438 550.208 142.414 550.328 142.414C550.5 142.414 550.654 142.484 550.789 142.625C550.93 142.76 551 142.93 551 143.133C551 143.477 550.812 143.74 550.438 143.922C550.062 144.104 549.523 144.195 548.82 144.195C548.154 144.195 547.648 144.083 547.305 143.859C546.961 143.635 546.734 143.326 546.625 142.93C546.521 142.534 546.469 142.005 546.469 141.344V137.25H546.188C545.88 137.25 545.646 137.177 545.484 137.031C545.323 136.885 545.242 136.701 545.242 136.477C545.242 136.253 545.326 136.07 545.492 135.93C545.664 135.784 545.911 135.711 546.234 135.711ZM553.875 133.648V136.812C554.146 136.5 554.409 136.253 554.664 136.07C554.924 135.888 555.211 135.753 555.523 135.664C555.836 135.57 556.172 135.523 556.531 135.523C557.073 135.523 557.552 135.638 557.969 135.867C558.391 136.096 558.721 136.43 558.961 136.867C559.112 137.122 559.214 137.409 559.266 137.727C559.318 138.039 559.344 138.401 559.344 138.812V142.898C559.344 143.326 559.245 143.648 559.047 143.867C558.854 144.086 558.596 144.195 558.273 144.195C557.57 144.195 557.219 143.763 557.219 142.898V139.297C557.219 138.615 557.117 138.091 556.914 137.727C556.711 137.357 556.326 137.172 555.758 137.172C555.378 137.172 555.034 137.281 554.727 137.5C554.424 137.714 554.198 138.008 554.047 138.383C553.932 138.701 553.875 139.266 553.875 140.078V142.898C553.875 143.32 553.779 143.643 553.586 143.867C553.398 144.086 553.135 144.195 552.797 144.195C552.094 144.195 551.742 143.763 551.742 142.898V133.648C551.742 133.216 551.833 132.893 552.016 132.68C552.203 132.461 552.464 132.352 552.797 132.352C553.135 132.352 553.398 132.461 553.586 132.68C553.779 132.898 553.875 133.221 553.875 133.648ZM567.414 140.383H563.242C563.247 140.867 563.344 141.294 563.531 141.664C563.724 142.034 563.977 142.312 564.289 142.5C564.607 142.688 564.956 142.781 565.336 142.781C565.591 142.781 565.823 142.753 566.031 142.695C566.245 142.633 566.451 142.539 566.648 142.414C566.846 142.284 567.029 142.146 567.195 142C567.362 141.854 567.578 141.656 567.844 141.406C567.953 141.312 568.109 141.266 568.312 141.266C568.531 141.266 568.708 141.326 568.844 141.445C568.979 141.565 569.047 141.734 569.047 141.953C569.047 142.146 568.971 142.372 568.82 142.633C568.669 142.888 568.44 143.135 568.133 143.375C567.831 143.609 567.448 143.805 566.984 143.961C566.526 144.117 565.997 144.195 565.398 144.195C564.029 144.195 562.964 143.805 562.203 143.023C561.443 142.242 561.062 141.182 561.062 139.844C561.062 139.214 561.156 138.63 561.344 138.094C561.531 137.552 561.805 137.089 562.164 136.703C562.523 136.318 562.966 136.023 563.492 135.82C564.018 135.612 564.602 135.508 565.242 135.508C566.076 135.508 566.789 135.685 567.383 136.039C567.982 136.388 568.43 136.841 568.727 137.398C569.023 137.956 569.172 138.523 569.172 139.102C569.172 139.638 569.018 139.987 568.711 140.148C568.404 140.305 567.971 140.383 567.414 140.383ZM563.242 139.172H567.109C567.057 138.443 566.859 137.898 566.516 137.539C566.177 137.174 565.729 136.992 565.172 136.992C564.641 136.992 564.203 137.177 563.859 137.547C563.521 137.911 563.315 138.453 563.242 139.172ZM581.844 141.406C581.844 141.995 581.701 142.5 581.414 142.922C581.128 143.339 580.703 143.656 580.141 143.875C579.583 144.089 578.904 144.195 578.102 144.195C577.336 144.195 576.68 144.078 576.133 143.844C575.586 143.609 575.182 143.318 574.922 142.969C574.661 142.615 574.531 142.26 574.531 141.906C574.531 141.672 574.615 141.471 574.781 141.305C574.948 141.138 575.159 141.055 575.414 141.055C575.638 141.055 575.81 141.109 575.93 141.219C576.049 141.328 576.164 141.482 576.273 141.68C576.492 142.06 576.753 142.344 577.055 142.531C577.362 142.719 577.779 142.812 578.305 142.812C578.732 142.812 579.081 142.719 579.352 142.531C579.628 142.339 579.766 142.12 579.766 141.875C579.766 141.5 579.622 141.227 579.336 141.055C579.055 140.883 578.589 140.719 577.938 140.562C577.203 140.38 576.604 140.19 576.141 139.992C575.682 139.789 575.315 139.523 575.039 139.195C574.763 138.867 574.625 138.464 574.625 137.984C574.625 137.557 574.753 137.154 575.008 136.773C575.263 136.393 575.638 136.091 576.133 135.867C576.633 135.638 577.234 135.523 577.938 135.523C578.49 135.523 578.984 135.581 579.422 135.695C579.865 135.81 580.232 135.964 580.523 136.156C580.82 136.349 581.044 136.562 581.195 136.797C581.352 137.031 581.43 137.26 581.43 137.484C581.43 137.729 581.346 137.93 581.18 138.086C581.018 138.242 580.786 138.32 580.484 138.32C580.266 138.32 580.078 138.258 579.922 138.133C579.771 138.008 579.596 137.82 579.398 137.57C579.237 137.362 579.047 137.195 578.828 137.07C578.609 136.945 578.312 136.883 577.938 136.883C577.552 136.883 577.232 136.966 576.977 137.133C576.721 137.294 576.594 137.497 576.594 137.742C576.594 137.966 576.688 138.151 576.875 138.297C577.062 138.438 577.315 138.555 577.633 138.648C577.951 138.742 578.388 138.857 578.945 138.992C579.607 139.154 580.146 139.346 580.562 139.57C580.984 139.794 581.302 140.06 581.516 140.367C581.734 140.669 581.844 141.016 581.844 141.406ZM585.781 136.734V142.898C585.781 143.326 585.68 143.648 585.477 143.867C585.273 144.086 585.016 144.195 584.703 144.195C584.391 144.195 584.135 144.083 583.938 143.859C583.745 143.635 583.648 143.315 583.648 142.898V136.797C583.648 136.375 583.745 136.057 583.938 135.844C584.135 135.63 584.391 135.523 584.703 135.523C585.016 135.523 585.273 135.63 585.477 135.844C585.68 136.057 585.781 136.354 585.781 136.734ZM584.727 134.531C584.43 134.531 584.174 134.44 583.961 134.258C583.753 134.076 583.648 133.818 583.648 133.484C583.648 133.182 583.755 132.935 583.969 132.742C584.188 132.544 584.44 132.445 584.727 132.445C585.003 132.445 585.247 132.534 585.461 132.711C585.674 132.888 585.781 133.146 585.781 133.484C585.781 133.812 585.677 134.07 585.469 134.258C585.26 134.44 585.013 134.531 584.727 134.531ZM595.836 137.086V143.281C595.836 143.99 595.76 144.599 595.609 145.109C595.458 145.62 595.216 146.042 594.883 146.375C594.549 146.708 594.112 146.956 593.57 147.117C593.034 147.279 592.365 147.359 591.562 147.359C590.828 147.359 590.172 147.255 589.594 147.047C589.016 146.844 588.57 146.578 588.258 146.25C587.945 145.927 587.789 145.594 587.789 145.25C587.789 144.99 587.878 144.776 588.055 144.609C588.232 144.448 588.445 144.367 588.695 144.367C589.008 144.367 589.281 144.505 589.516 144.781C589.63 144.922 589.747 145.062 589.867 145.203C589.992 145.349 590.128 145.471 590.273 145.57C590.424 145.674 590.604 145.75 590.812 145.797C591.021 145.849 591.26 145.875 591.531 145.875C592.083 145.875 592.51 145.797 592.812 145.641C593.12 145.49 593.333 145.276 593.453 145C593.578 144.724 593.651 144.427 593.672 144.109C593.693 143.797 593.708 143.292 593.719 142.594C593.391 143.052 593.01 143.401 592.578 143.641C592.151 143.88 591.641 144 591.047 144C590.333 144 589.708 143.818 589.172 143.453C588.641 143.089 588.232 142.578 587.945 141.922C587.659 141.266 587.516 140.508 587.516 139.648C587.516 139.008 587.602 138.43 587.773 137.914C587.951 137.398 588.201 136.964 588.523 136.609C588.846 136.255 589.219 135.99 589.641 135.812C590.062 135.63 590.526 135.539 591.031 135.539C591.635 135.539 592.159 135.656 592.602 135.891C593.044 136.12 593.456 136.482 593.836 136.977V136.688C593.836 136.318 593.927 136.031 594.109 135.828C594.292 135.625 594.526 135.523 594.812 135.523C595.224 135.523 595.497 135.659 595.633 135.93C595.768 136.195 595.836 136.581 595.836 137.086ZM589.656 139.789C589.656 140.654 589.844 141.307 590.219 141.75C590.599 142.193 591.089 142.414 591.688 142.414C592.042 142.414 592.375 142.32 592.688 142.133C593.005 141.94 593.263 141.654 593.461 141.273C593.659 140.888 593.758 140.422 593.758 139.875C593.758 139.005 593.565 138.328 593.18 137.844C592.799 137.359 592.297 137.117 591.672 137.117C591.062 137.117 590.573 137.349 590.203 137.812C589.839 138.276 589.656 138.935 589.656 139.789ZM599.93 136.703V136.961C600.305 136.466 600.714 136.104 601.156 135.875C601.604 135.641 602.117 135.523 602.695 135.523C603.258 135.523 603.76 135.646 604.203 135.891C604.646 136.135 604.977 136.482 605.195 136.93C605.336 137.19 605.427 137.471 605.469 137.773C605.51 138.076 605.531 138.461 605.531 138.93V142.898C605.531 143.326 605.432 143.648 605.234 143.867C605.042 144.086 604.789 144.195 604.477 144.195C604.159 144.195 603.901 144.083 603.703 143.859C603.505 143.635 603.406 143.315 603.406 142.898V139.344C603.406 138.641 603.307 138.104 603.109 137.734C602.917 137.359 602.529 137.172 601.945 137.172C601.565 137.172 601.219 137.286 600.906 137.516C600.594 137.74 600.365 138.049 600.219 138.445C600.115 138.763 600.062 139.357 600.062 140.227V142.898C600.062 143.331 599.961 143.656 599.758 143.875C599.56 144.089 599.302 144.195 598.984 144.195C598.677 144.195 598.424 144.083 598.227 143.859C598.029 143.635 597.93 143.315 597.93 142.898V136.734C597.93 136.328 598.018 136.026 598.195 135.828C598.372 135.625 598.615 135.523 598.922 135.523C599.109 135.523 599.279 135.568 599.43 135.656C599.581 135.745 599.701 135.878 599.789 136.055C599.883 136.232 599.93 136.448 599.93 136.703ZM614.531 141.406C614.531 141.995 614.388 142.5 614.102 142.922C613.815 143.339 613.391 143.656 612.828 143.875C612.271 144.089 611.591 144.195 610.789 144.195C610.023 144.195 609.367 144.078 608.82 143.844C608.273 143.609 607.87 143.318 607.609 142.969C607.349 142.615 607.219 142.26 607.219 141.906C607.219 141.672 607.302 141.471 607.469 141.305C607.635 141.138 607.846 141.055 608.102 141.055C608.326 141.055 608.497 141.109 608.617 141.219C608.737 141.328 608.852 141.482 608.961 141.68C609.18 142.06 609.44 142.344 609.742 142.531C610.049 142.719 610.466 142.812 610.992 142.812C611.419 142.812 611.768 142.719 612.039 142.531C612.315 142.339 612.453 142.12 612.453 141.875C612.453 141.5 612.31 141.227 612.023 141.055C611.742 140.883 611.276 140.719 610.625 140.562C609.891 140.38 609.292 140.19 608.828 139.992C608.37 139.789 608.003 139.523 607.727 139.195C607.451 138.867 607.312 138.464 607.312 137.984C607.312 137.557 607.44 137.154 607.695 136.773C607.951 136.393 608.326 136.091 608.82 135.867C609.32 135.638 609.922 135.523 610.625 135.523C611.177 135.523 611.672 135.581 612.109 135.695C612.552 135.81 612.919 135.964 613.211 136.156C613.508 136.349 613.732 136.562 613.883 136.797C614.039 137.031 614.117 137.26 614.117 137.484C614.117 137.729 614.034 137.93 613.867 138.086C613.706 138.242 613.474 138.32 613.172 138.32C612.953 138.32 612.766 138.258 612.609 138.133C612.458 138.008 612.284 137.82 612.086 137.57C611.924 137.362 611.734 137.195 611.516 137.07C611.297 136.945 611 136.883 610.625 136.883C610.24 136.883 609.919 136.966 609.664 137.133C609.409 137.294 609.281 137.497 609.281 137.742C609.281 137.966 609.375 138.151 609.562 138.297C609.75 138.438 610.003 138.555 610.32 138.648C610.638 138.742 611.076 138.857 611.633 138.992C612.294 139.154 612.833 139.346 613.25 139.57C613.672 139.794 613.99 140.06 614.203 140.367C614.422 140.669 614.531 141.016 614.531 141.406ZM628.32 139.859C628.32 140.495 628.221 141.081 628.023 141.617C627.826 142.154 627.539 142.615 627.164 143C626.789 143.385 626.341 143.682 625.82 143.891C625.299 144.094 624.714 144.195 624.062 144.195C623.417 144.195 622.836 144.091 622.32 143.883C621.805 143.674 621.357 143.378 620.977 142.992C620.602 142.602 620.315 142.143 620.117 141.617C619.924 141.086 619.828 140.5 619.828 139.859C619.828 139.214 619.927 138.622 620.125 138.086C620.323 137.549 620.607 137.091 620.977 136.711C621.346 136.331 621.794 136.039 622.32 135.836C622.846 135.628 623.427 135.523 624.062 135.523C624.708 135.523 625.294 135.628 625.82 135.836C626.346 136.044 626.797 136.341 627.172 136.727C627.547 137.112 627.831 137.57 628.023 138.102C628.221 138.633 628.32 139.219 628.32 139.859ZM626.18 139.859C626.18 138.99 625.987 138.312 625.602 137.828C625.221 137.344 624.708 137.102 624.062 137.102C623.646 137.102 623.279 137.211 622.961 137.43C622.643 137.643 622.398 137.961 622.227 138.383C622.055 138.805 621.969 139.297 621.969 139.859C621.969 140.417 622.052 140.904 622.219 141.32C622.391 141.737 622.633 142.057 622.945 142.281C623.263 142.5 623.635 142.609 624.062 142.609C624.708 142.609 625.221 142.367 625.602 141.883C625.987 141.393 626.18 140.719 626.18 139.859ZM629.836 135.711H630.344V135.07C630.344 134.404 630.427 133.875 630.594 133.484C630.766 133.089 631.052 132.802 631.453 132.625C631.859 132.443 632.414 132.352 633.117 132.352C634.362 132.352 634.984 132.656 634.984 133.266C634.984 133.464 634.919 133.633 634.789 133.773C634.659 133.914 634.505 133.984 634.328 133.984C634.245 133.984 634.102 133.969 633.898 133.938C633.695 133.906 633.523 133.891 633.383 133.891C632.997 133.891 632.75 134.005 632.641 134.234C632.531 134.458 632.477 134.781 632.477 135.203V135.711H633C633.812 135.711 634.219 135.956 634.219 136.445C634.219 136.794 634.109 137.016 633.891 137.109C633.677 137.203 633.38 137.25 633 137.25H632.477V142.898C632.477 143.32 632.375 143.643 632.172 143.867C631.974 144.086 631.716 144.195 631.398 144.195C631.096 144.195 630.844 144.086 630.641 143.867C630.443 143.643 630.344 143.32 630.344 142.898V137.25H629.758C629.44 137.25 629.195 137.18 629.023 137.039C628.852 136.893 628.766 136.706 628.766 136.477C628.766 135.966 629.122 135.711 629.836 135.711ZM646.523 142.992C646.008 143.393 645.508 143.695 645.023 143.898C644.544 144.096 644.005 144.195 643.406 144.195C642.859 144.195 642.378 144.089 641.961 143.875C641.549 143.656 641.232 143.362 641.008 142.992C640.784 142.622 640.672 142.221 640.672 141.789C640.672 141.206 640.857 140.708 641.227 140.297C641.596 139.885 642.104 139.609 642.75 139.469C642.885 139.438 643.221 139.367 643.758 139.258C644.294 139.148 644.753 139.049 645.133 138.961C645.518 138.867 645.935 138.755 646.383 138.625C646.357 138.062 646.242 137.651 646.039 137.391C645.841 137.125 645.427 136.992 644.797 136.992C644.255 136.992 643.846 137.068 643.57 137.219C643.299 137.37 643.065 137.596 642.867 137.898C642.674 138.201 642.536 138.401 642.453 138.5C642.375 138.594 642.203 138.641 641.938 138.641C641.698 138.641 641.49 138.565 641.312 138.414C641.141 138.258 641.055 138.06 641.055 137.82C641.055 137.445 641.188 137.081 641.453 136.727C641.719 136.372 642.133 136.081 642.695 135.852C643.258 135.622 643.958 135.508 644.797 135.508C645.734 135.508 646.471 135.62 647.008 135.844C647.544 136.062 647.922 136.411 648.141 136.891C648.365 137.37 648.477 138.005 648.477 138.797C648.477 139.297 648.474 139.721 648.469 140.07C648.469 140.419 648.466 140.807 648.461 141.234C648.461 141.635 648.526 142.055 648.656 142.492C648.792 142.924 648.859 143.203 648.859 143.328C648.859 143.547 648.755 143.747 648.547 143.93C648.344 144.107 648.112 144.195 647.852 144.195C647.633 144.195 647.417 144.094 647.203 143.891C646.99 143.682 646.763 143.383 646.523 142.992ZM646.383 139.906C646.07 140.021 645.615 140.143 645.016 140.273C644.422 140.398 644.01 140.492 643.781 140.555C643.552 140.612 643.333 140.729 643.125 140.906C642.917 141.078 642.812 141.32 642.812 141.633C642.812 141.956 642.935 142.232 643.18 142.461C643.424 142.685 643.745 142.797 644.141 142.797C644.562 142.797 644.951 142.706 645.305 142.523C645.664 142.336 645.927 142.096 646.094 141.805C646.286 141.482 646.383 140.951 646.383 140.211V139.906ZM658.273 137.086V143.281C658.273 143.99 658.198 144.599 658.047 145.109C657.896 145.62 657.654 146.042 657.32 146.375C656.987 146.708 656.549 146.956 656.008 147.117C655.471 147.279 654.802 147.359 654 147.359C653.266 147.359 652.609 147.255 652.031 147.047C651.453 146.844 651.008 146.578 650.695 146.25C650.383 145.927 650.227 145.594 650.227 145.25C650.227 144.99 650.315 144.776 650.492 144.609C650.669 144.448 650.883 144.367 651.133 144.367C651.445 144.367 651.719 144.505 651.953 144.781C652.068 144.922 652.185 145.062 652.305 145.203C652.43 145.349 652.565 145.471 652.711 145.57C652.862 145.674 653.042 145.75 653.25 145.797C653.458 145.849 653.698 145.875 653.969 145.875C654.521 145.875 654.948 145.797 655.25 145.641C655.557 145.49 655.771 145.276 655.891 145C656.016 144.724 656.089 144.427 656.109 144.109C656.13 143.797 656.146 143.292 656.156 142.594C655.828 143.052 655.448 143.401 655.016 143.641C654.589 143.88 654.078 144 653.484 144C652.771 144 652.146 143.818 651.609 143.453C651.078 143.089 650.669 142.578 650.383 141.922C650.096 141.266 649.953 140.508 649.953 139.648C649.953 139.008 650.039 138.43 650.211 137.914C650.388 137.398 650.638 136.964 650.961 136.609C651.284 136.255 651.656 135.99 652.078 135.812C652.5 135.63 652.964 135.539 653.469 135.539C654.073 135.539 654.596 135.656 655.039 135.891C655.482 136.12 655.893 136.482 656.273 136.977V136.688C656.273 136.318 656.365 136.031 656.547 135.828C656.729 135.625 656.964 135.523 657.25 135.523C657.661 135.523 657.935 135.659 658.07 135.93C658.206 136.195 658.273 136.581 658.273 137.086ZM652.094 139.789C652.094 140.654 652.281 141.307 652.656 141.75C653.036 142.193 653.526 142.414 654.125 142.414C654.479 142.414 654.812 142.32 655.125 142.133C655.443 141.94 655.701 141.654 655.898 141.273C656.096 140.888 656.195 140.422 656.195 139.875C656.195 139.005 656.003 138.328 655.617 137.844C655.237 137.359 654.734 137.117 654.109 137.117C653.5 137.117 653.01 137.349 652.641 137.812C652.276 138.276 652.094 138.935 652.094 139.789ZM662.562 136.734V142.898C662.562 143.326 662.461 143.648 662.258 143.867C662.055 144.086 661.797 144.195 661.484 144.195C661.172 144.195 660.917 144.083 660.719 143.859C660.526 143.635 660.43 143.315 660.43 142.898V136.797C660.43 136.375 660.526 136.057 660.719 135.844C660.917 135.63 661.172 135.523 661.484 135.523C661.797 135.523 662.055 135.63 662.258 135.844C662.461 136.057 662.562 136.354 662.562 136.734ZM661.508 134.531C661.211 134.531 660.956 134.44 660.742 134.258C660.534 134.076 660.43 133.818 660.43 133.484C660.43 133.182 660.536 132.935 660.75 132.742C660.969 132.544 661.221 132.445 661.508 132.445C661.784 132.445 662.029 132.534 662.242 132.711C662.456 132.888 662.562 133.146 662.562 133.484C662.562 133.812 662.458 134.07 662.25 134.258C662.042 134.44 661.794 134.531 661.508 134.531ZM666.711 136.703V136.961C667.086 136.466 667.495 136.104 667.938 135.875C668.385 135.641 668.898 135.523 669.477 135.523C670.039 135.523 670.542 135.646 670.984 135.891C671.427 136.135 671.758 136.482 671.977 136.93C672.117 137.19 672.208 137.471 672.25 137.773C672.292 138.076 672.312 138.461 672.312 138.93V142.898C672.312 143.326 672.214 143.648 672.016 143.867C671.823 144.086 671.57 144.195 671.258 144.195C670.94 144.195 670.682 144.083 670.484 143.859C670.286 143.635 670.188 143.315 670.188 142.898V139.344C670.188 138.641 670.089 138.104 669.891 137.734C669.698 137.359 669.31 137.172 668.727 137.172C668.346 137.172 668 137.286 667.688 137.516C667.375 137.74 667.146 138.049 667 138.445C666.896 138.763 666.844 139.357 666.844 140.227V142.898C666.844 143.331 666.742 143.656 666.539 143.875C666.341 144.089 666.083 144.195 665.766 144.195C665.458 144.195 665.206 144.083 665.008 143.859C664.81 143.635 664.711 143.315 664.711 142.898V136.734C664.711 136.328 664.799 136.026 664.977 135.828C665.154 135.625 665.396 135.523 665.703 135.523C665.891 135.523 666.06 135.568 666.211 135.656C666.362 135.745 666.482 135.878 666.57 136.055C666.664 136.232 666.711 136.448 666.711 136.703ZM682.289 137.086V143.281C682.289 143.99 682.214 144.599 682.062 145.109C681.911 145.62 681.669 146.042 681.336 146.375C681.003 146.708 680.565 146.956 680.023 147.117C679.487 147.279 678.818 147.359 678.016 147.359C677.281 147.359 676.625 147.255 676.047 147.047C675.469 146.844 675.023 146.578 674.711 146.25C674.398 145.927 674.242 145.594 674.242 145.25C674.242 144.99 674.331 144.776 674.508 144.609C674.685 144.448 674.898 144.367 675.148 144.367C675.461 144.367 675.734 144.505 675.969 144.781C676.083 144.922 676.201 145.062 676.32 145.203C676.445 145.349 676.581 145.471 676.727 145.57C676.878 145.674 677.057 145.75 677.266 145.797C677.474 145.849 677.714 145.875 677.984 145.875C678.536 145.875 678.964 145.797 679.266 145.641C679.573 145.49 679.786 145.276 679.906 145C680.031 144.724 680.104 144.427 680.125 144.109C680.146 143.797 680.161 143.292 680.172 142.594C679.844 143.052 679.464 143.401 679.031 143.641C678.604 143.88 678.094 144 677.5 144C676.786 144 676.161 143.818 675.625 143.453C675.094 143.089 674.685 142.578 674.398 141.922C674.112 141.266 673.969 140.508 673.969 139.648C673.969 139.008 674.055 138.43 674.227 137.914C674.404 137.398 674.654 136.964 674.977 136.609C675.299 136.255 675.672 135.99 676.094 135.812C676.516 135.63 676.979 135.539 677.484 135.539C678.089 135.539 678.612 135.656 679.055 135.891C679.497 136.12 679.909 136.482 680.289 136.977V136.688C680.289 136.318 680.38 136.031 680.562 135.828C680.745 135.625 680.979 135.523 681.266 135.523C681.677 135.523 681.951 135.659 682.086 135.93C682.221 136.195 682.289 136.581 682.289 137.086ZM676.109 139.789C676.109 140.654 676.297 141.307 676.672 141.75C677.052 142.193 677.542 142.414 678.141 142.414C678.495 142.414 678.828 142.32 679.141 142.133C679.458 141.94 679.716 141.654 679.914 141.273C680.112 140.888 680.211 140.422 680.211 139.875C680.211 139.005 680.018 138.328 679.633 137.844C679.253 137.359 678.75 137.117 678.125 137.117C677.516 137.117 677.026 137.349 676.656 137.812C676.292 138.276 676.109 138.935 676.109 139.789Z" fill="white"/>
    </g>
    <defs>
    <filter id="filter0_d_8_15" x="501.852" y="132.352" width="184.438" height="23.0078" filterUnits="userSpaceOnUse" color-interpolation-filters="sRGB">
    <feFlood flood-opacity="0" result="BackgroundImageFix"/>
    <feColorMatrix in="SourceAlpha" type="matrix" values="0 0 0 0 0 0 0 0 0 0 0 0 0 0 0 0 0 0 127 0" result="hardAlpha"/>
    <feOffset dy="4"/>
    <feGaussianBlur stdDeviation="2"/>
    <feComposite in2="hardAlpha" operator="out"/>
    <feColorMatrix type="matrix" values="0 0 0 0 0.513333 0 0 0 0 0.301583 0 0 0 0 0.389382 0 0 0 1 0"/>
    <feBlend mode="normal" in2="BackgroundImageFix" result="effect1_dropShadow_8_15"/>
    <feBlend mode="normal" in="SourceGraphic" in2="effect1_dropShadow_8_15" result="shape"/>
    </filter>
    </defs>
    </svg>
    