<svg width="242" height="252" viewBox="0 0 242 252" fill="none" xmlns="http://www.w3.org/2000/svg">
    <path
        d="M9.84375 232.681C9.84375 233.642 9.78516 234.468 9.66797 235.159C9.55078 235.851 9.33398 236.478 9.01758 237.04C8.61914 237.731 8.10352 238.265 7.4707 238.64C6.83789 239.015 6.13477 239.202 5.36133 239.202C4.4707 239.202 3.6709 238.95 2.96191 238.446C2.25879 237.942 1.72852 237.245 1.37109 236.354C1.18945 235.868 1.05469 235.332 0.966797 234.746C0.884766 234.154 0.84375 233.516 0.84375 232.83C0.84375 231.945 0.890625 231.148 0.984375 230.439C1.07812 229.73 1.22461 229.121 1.42383 228.611C1.76953 227.768 2.27051 227.126 2.92676 226.687C3.58887 226.241 4.37695 226.019 5.29102 226.019C5.89453 226.019 6.44238 226.118 6.93457 226.317C7.42676 226.511 7.85742 226.798 8.22656 227.179C8.60156 227.554 8.91797 228.02 9.17578 228.576C9.62109 229.543 9.84375 230.911 9.84375 232.681ZM7.43555 232.505C7.43555 231.433 7.37109 230.557 7.24219 229.877C7.11328 229.191 6.89648 228.676 6.5918 228.33C6.28711 227.979 5.86523 227.803 5.32617 227.803C4.55273 227.803 4.01367 228.192 3.70898 228.972C3.41016 229.751 3.26074 230.952 3.26074 232.575C3.26074 233.677 3.3252 234.579 3.4541 235.282C3.58301 235.985 3.7998 236.519 4.10449 236.882C4.40918 237.239 4.82227 237.418 5.34375 237.418C5.88281 237.418 6.30469 237.23 6.60938 236.855C6.91406 236.48 7.12793 235.944 7.25098 235.247C7.37402 234.55 7.43555 233.636 7.43555 232.505ZM21.1465 229.42C21.1465 230.539 20.9004 231.371 20.4082 231.916C19.916 232.461 19.2422 232.733 18.3867 232.733C17.8594 232.733 17.3848 232.619 16.9629 232.391C16.5469 232.156 16.2217 231.793 15.9873 231.301C15.7529 230.809 15.6357 230.208 15.6357 229.499C15.6357 228.737 15.7266 228.102 15.9082 227.592C16.0898 227.082 16.3828 226.695 16.7871 226.432C17.1973 226.168 17.7188 226.036 18.3516 226.036C18.8086 226.036 19.21 226.106 19.5557 226.247C19.9014 226.388 20.1943 226.604 20.4346 226.897C20.6748 227.185 20.8535 227.536 20.9707 227.952C21.0879 228.368 21.1465 228.857 21.1465 229.42ZM19.5029 229.332C19.5029 228.564 19.4209 228.008 19.2568 227.662C19.0928 227.311 18.8027 227.135 18.3867 227.135C18.1055 227.135 17.8799 227.22 17.71 227.39C17.5459 227.554 17.4316 227.8 17.3672 228.128C17.3086 228.45 17.2793 228.863 17.2793 229.367C17.2793 229.889 17.3086 230.313 17.3672 230.642C17.4316 230.97 17.5459 231.219 17.71 231.389C17.874 231.553 18.0996 231.635 18.3867 231.635C18.8203 231.635 19.1133 231.45 19.2656 231.081C19.4238 230.712 19.5029 230.129 19.5029 229.332ZM30.1465 235.774C30.1465 236.894 29.9004 237.726 29.4082 238.271C28.916 238.815 28.2422 239.088 27.3867 239.088C26.8535 239.088 26.376 238.971 25.9541 238.736C25.5381 238.502 25.21 238.142 24.9697 237.655C24.7354 237.169 24.6182 236.568 24.6182 235.854C24.6182 234.711 24.835 233.853 25.2686 233.278C25.708 232.698 26.4023 232.408 27.3516 232.408C27.8086 232.408 28.207 232.479 28.5469 232.619C28.8926 232.76 29.1855 232.971 29.4258 233.252C29.6719 233.533 29.8535 233.885 29.9707 234.307C30.0879 234.723 30.1465 235.212 30.1465 235.774ZM28.5029 235.687C28.5029 234.931 28.4209 234.38 28.2568 234.034C28.0928 233.683 27.8027 233.507 27.3867 233.507C27.0938 233.507 26.8652 233.589 26.7012 233.753C26.5371 233.917 26.4199 234.16 26.3496 234.482C26.2852 234.799 26.2529 235.212 26.2529 235.722C26.2529 236.507 26.335 237.081 26.499 237.444C26.6689 237.808 26.9648 237.989 27.3867 237.989C27.8145 237.989 28.1074 237.805 28.2656 237.436C28.4238 237.061 28.5029 236.478 28.5029 235.687ZM27.0088 227.196L19.6875 239C19.5 239.322 19.2891 239.483 19.0547 239.483C18.9199 239.483 18.7852 239.431 18.6504 239.325C18.5156 239.226 18.4482 239.094 18.4482 238.93C18.4482 238.807 18.5068 238.657 18.624 238.481L25.9893 226.581C26.1182 226.364 26.2295 226.203 26.3232 226.098C26.4229 225.986 26.5635 225.931 26.7451 225.931C26.9209 225.931 27.0615 225.983 27.167 226.089C27.2783 226.188 27.334 226.323 27.334 226.493C27.334 226.616 27.2256 226.851 27.0088 227.196ZM45.9932 233.981H43.6025V237.629C43.6025 238.15 43.4795 238.546 43.2334 238.815C42.9873 239.085 42.6768 239.22 42.3018 239.22C41.9092 239.22 41.5928 239.088 41.3525 238.824C41.1123 238.555 40.9922 238.162 40.9922 237.646V227.715C40.9922 227.141 41.124 226.73 41.3877 226.484C41.6514 226.238 42.0703 226.115 42.6445 226.115H45.9932C46.9834 226.115 47.7451 226.191 48.2783 226.344C48.8057 226.49 49.2598 226.733 49.6406 227.073C50.0273 227.413 50.3203 227.829 50.5195 228.321C50.7188 228.813 50.8184 229.367 50.8184 229.982C50.8184 231.295 50.4141 232.291 49.6055 232.971C48.7969 233.645 47.5928 233.981 45.9932 233.981ZM45.3604 228.075H43.6025V232.013H45.3604C45.9756 232.013 46.4883 231.948 46.8984 231.819C47.3145 231.69 47.6309 231.479 47.8477 231.187C48.0645 230.894 48.1729 230.51 48.1729 230.035C48.1729 229.467 48.0059 229.004 47.6719 228.646C47.2969 228.266 46.5264 228.075 45.3604 228.075ZM59.6602 237.541L59.0449 235.924H53.8066L53.1914 237.576C52.9512 238.221 52.7461 238.657 52.5762 238.886C52.4062 239.108 52.1279 239.22 51.7412 239.22C51.4131 239.22 51.123 239.1 50.8711 238.859C50.6191 238.619 50.4932 238.347 50.4932 238.042C50.4932 237.866 50.5225 237.685 50.5811 237.497C50.6396 237.31 50.7363 237.049 50.8711 236.715L54.167 228.348C54.2607 228.107 54.3721 227.82 54.501 227.486C54.6357 227.146 54.7764 226.865 54.9229 226.643C55.0752 226.42 55.2715 226.241 55.5117 226.106C55.7578 225.966 56.0596 225.896 56.417 225.896C56.7803 225.896 57.082 225.966 57.3223 226.106C57.5684 226.241 57.7646 226.417 57.9111 226.634C58.0635 226.851 58.1895 227.085 58.2891 227.337C58.3945 227.583 58.5264 227.914 58.6846 228.33L62.0508 236.645C62.3145 237.277 62.4463 237.737 62.4463 238.024C62.4463 238.323 62.3203 238.599 62.0684 238.851C61.8223 239.097 61.5234 239.22 61.1719 239.22C60.9668 239.22 60.791 239.182 60.6445 239.105C60.498 239.035 60.375 238.938 60.2754 238.815C60.1758 238.687 60.0674 238.493 59.9502 238.235C59.8389 237.972 59.7422 237.74 59.6602 237.541ZM54.4922 233.964H58.3418L56.3994 228.646L54.4922 233.964ZM67.8779 233.489H66.9639V237.629C66.9639 238.174 66.8438 238.575 66.6035 238.833C66.3633 239.091 66.0498 239.22 65.6631 239.22C65.2471 239.22 64.9248 239.085 64.6963 238.815C64.4678 238.546 64.3535 238.15 64.3535 237.629V227.715C64.3535 227.152 64.4795 226.745 64.7314 226.493C64.9834 226.241 65.3906 226.115 65.9531 226.115H70.1982C70.7842 226.115 71.2852 226.142 71.7012 226.194C72.1172 226.241 72.4922 226.341 72.8262 226.493C73.2305 226.663 73.5879 226.906 73.8984 227.223C74.209 227.539 74.4434 227.908 74.6016 228.33C74.7656 228.746 74.8477 229.188 74.8477 229.657C74.8477 230.618 74.5752 231.386 74.0303 231.96C73.4912 232.534 72.6709 232.941 71.5693 233.182C72.0322 233.428 72.4746 233.791 72.8965 234.271C73.3184 234.752 73.6934 235.265 74.0215 235.81C74.3555 236.349 74.6133 236.838 74.7949 237.277C74.9824 237.711 75.0762 238.01 75.0762 238.174C75.0762 238.344 75.0205 238.514 74.9092 238.684C74.8037 238.848 74.6572 238.977 74.4697 239.07C74.2822 239.17 74.0654 239.22 73.8193 239.22C73.5264 239.22 73.2803 239.149 73.0811 239.009C72.8818 238.874 72.709 238.701 72.5625 238.49C72.4219 238.279 72.2285 237.969 71.9824 237.559L70.9365 235.818C70.5615 235.18 70.2246 234.693 69.9258 234.359C69.6328 234.025 69.334 233.797 69.0293 233.674C68.7246 233.551 68.3408 233.489 67.8779 233.489ZM69.3721 228.075H66.9639V231.617H69.3018C69.9287 231.617 70.4561 231.564 70.8838 231.459C71.3115 231.348 71.6367 231.163 71.8594 230.905C72.0879 230.642 72.2021 230.281 72.2021 229.824C72.2021 229.467 72.1113 229.153 71.9297 228.884C71.748 228.608 71.4961 228.403 71.1738 228.269C70.8691 228.14 70.2686 228.075 69.3721 228.075ZM85.5703 237.541L84.9551 235.924H79.7168L79.1016 237.576C78.8613 238.221 78.6562 238.657 78.4863 238.886C78.3164 239.108 78.0381 239.22 77.6514 239.22C77.3232 239.22 77.0332 239.1 76.7812 238.859C76.5293 238.619 76.4033 238.347 76.4033 238.042C76.4033 237.866 76.4326 237.685 76.4912 237.497C76.5498 237.31 76.6465 237.049 76.7812 236.715L80.0771 228.348C80.1709 228.107 80.2822 227.82 80.4111 227.486C80.5459 227.146 80.6865 226.865 80.833 226.643C80.9854 226.42 81.1816 226.241 81.4219 226.106C81.668 225.966 81.9697 225.896 82.3271 225.896C82.6904 225.896 82.9922 225.966 83.2324 226.106C83.4785 226.241 83.6748 226.417 83.8213 226.634C83.9736 226.851 84.0996 227.085 84.1992 227.337C84.3047 227.583 84.4365 227.914 84.5947 228.33L87.9609 236.645C88.2246 237.277 88.3564 237.737 88.3564 238.024C88.3564 238.323 88.2305 238.599 87.9785 238.851C87.7324 239.097 87.4336 239.22 87.082 239.22C86.877 239.22 86.7012 239.182 86.5547 239.105C86.4082 239.035 86.2852 238.938 86.1855 238.815C86.0859 238.687 85.9775 238.493 85.8604 238.235C85.749 237.972 85.6523 237.74 85.5703 237.541ZM80.4023 233.964H84.252L82.3096 228.646L80.4023 233.964ZM95.7832 239H91.8457C91.2773 239 90.8701 238.874 90.624 238.622C90.3838 238.364 90.2637 237.957 90.2637 237.4V227.715C90.2637 227.146 90.3867 226.739 90.6328 226.493C90.8848 226.241 91.2891 226.115 91.8457 226.115H96.0205C96.6357 226.115 97.1689 226.153 97.6201 226.229C98.0713 226.306 98.4756 226.452 98.833 226.669C99.1377 226.851 99.4072 227.082 99.6416 227.363C99.876 227.639 100.055 227.946 100.178 228.286C100.301 228.62 100.362 228.975 100.362 229.35C100.362 230.639 99.7178 231.582 98.4287 232.18C100.122 232.719 100.969 233.768 100.969 235.326C100.969 236.047 100.784 236.697 100.415 237.277C100.046 237.852 99.5479 238.276 98.9209 238.552C98.5283 238.716 98.0771 238.833 97.5674 238.903C97.0576 238.968 96.4629 239 95.7832 239ZM95.5898 233.278H92.874V237.04H95.6777C97.4414 237.04 98.3232 236.404 98.3232 235.133C98.3232 234.482 98.0947 234.011 97.6377 233.718C97.1807 233.425 96.498 233.278 95.5898 233.278ZM92.874 228.075V231.406H95.2646C95.915 231.406 96.416 231.345 96.7676 231.222C97.125 231.099 97.3975 230.864 97.585 230.519C97.7314 230.272 97.8047 229.997 97.8047 229.692C97.8047 229.042 97.5732 228.611 97.1104 228.4C96.6475 228.184 95.9414 228.075 94.9922 228.075H92.874ZM111.727 228.128H105.847V231.292H111.261C111.659 231.292 111.955 231.383 112.148 231.564C112.348 231.74 112.447 231.975 112.447 232.268C112.447 232.561 112.351 232.801 112.157 232.988C111.964 233.17 111.665 233.261 111.261 233.261H105.847V236.926H111.929C112.339 236.926 112.646 237.022 112.852 237.216C113.062 237.403 113.168 237.655 113.168 237.972C113.168 238.276 113.062 238.525 112.852 238.719C112.646 238.906 112.339 239 111.929 239H104.836C104.268 239 103.857 238.874 103.605 238.622C103.359 238.37 103.236 237.963 103.236 237.4V227.715C103.236 227.34 103.292 227.035 103.403 226.801C103.515 226.561 103.688 226.388 103.922 226.282C104.162 226.171 104.467 226.115 104.836 226.115H111.727C112.143 226.115 112.45 226.209 112.649 226.396C112.854 226.578 112.957 226.818 112.957 227.117C112.957 227.422 112.854 227.668 112.649 227.855C112.45 228.037 112.143 228.128 111.727 228.128ZM118.644 227.46L123.662 235.054V227.39C123.662 226.892 123.768 226.52 123.979 226.273C124.195 226.021 124.485 225.896 124.849 225.896C125.224 225.896 125.52 226.021 125.736 226.273C125.953 226.52 126.062 226.892 126.062 227.39V237.523C126.062 238.654 125.593 239.22 124.655 239.22C124.421 239.22 124.21 239.185 124.022 239.114C123.835 239.05 123.659 238.944 123.495 238.798C123.331 238.651 123.179 238.481 123.038 238.288C122.897 238.089 122.757 237.887 122.616 237.682L117.721 230.176V237.726C117.721 238.218 117.606 238.59 117.378 238.842C117.149 239.094 116.856 239.22 116.499 239.22C116.13 239.22 115.834 239.094 115.611 238.842C115.389 238.584 115.277 238.212 115.277 237.726V227.785C115.277 227.363 115.324 227.032 115.418 226.792C115.529 226.528 115.714 226.314 115.972 226.15C116.229 225.98 116.508 225.896 116.807 225.896C117.041 225.896 117.24 225.934 117.404 226.01C117.574 226.086 117.721 226.188 117.844 226.317C117.973 226.446 118.102 226.613 118.23 226.818C118.365 227.023 118.503 227.237 118.644 227.46ZM134.798 228.849C134.798 228.304 134.938 227.809 135.22 227.363C135.507 226.912 135.926 226.555 136.477 226.291C137.027 226.027 137.675 225.896 138.419 225.896C139.157 225.896 139.796 226.033 140.335 226.309C140.874 226.584 141.275 226.944 141.539 227.39C141.809 227.835 141.943 228.298 141.943 228.778C141.943 229.435 141.727 230.006 141.293 230.492C140.859 230.979 140.221 231.474 139.377 231.978C139.67 232.323 139.942 232.648 140.194 232.953C140.446 233.258 140.689 233.542 140.924 233.806C141.158 234.069 141.372 234.295 141.565 234.482C141.653 234.318 141.788 234.011 141.97 233.56C142.157 233.108 142.33 232.783 142.488 232.584C142.652 232.385 142.881 232.285 143.174 232.285C143.449 232.285 143.692 232.385 143.903 232.584C144.114 232.777 144.22 233.015 144.22 233.296C144.22 233.554 144.129 233.92 143.947 234.395C143.766 234.863 143.502 235.385 143.156 235.959C143.373 236.146 143.716 236.431 144.185 236.812C144.659 237.192 144.949 237.453 145.055 237.594C145.166 237.729 145.222 237.91 145.222 238.139C145.222 238.443 145.11 238.701 144.888 238.912C144.671 239.117 144.428 239.22 144.158 239.22C143.883 239.22 143.616 239.132 143.358 238.956C143.101 238.78 142.553 238.35 141.715 237.664C141.334 238.021 140.938 238.314 140.528 238.543C140.124 238.771 139.688 238.941 139.219 239.053C138.756 239.164 138.237 239.22 137.663 239.22C136.931 239.22 136.271 239.114 135.686 238.903C135.105 238.687 134.622 238.396 134.235 238.033C133.849 237.67 133.562 237.269 133.374 236.829C133.187 236.384 133.093 235.933 133.093 235.476C133.093 235.036 133.163 234.635 133.304 234.271C133.444 233.902 133.641 233.571 133.893 233.278C134.15 232.979 134.464 232.698 134.833 232.435C135.208 232.165 135.642 231.904 136.134 231.652C135.694 231.102 135.36 230.612 135.132 230.185C134.909 229.751 134.798 229.306 134.798 228.849ZM137.285 233.059C136.688 233.404 136.239 233.75 135.94 234.096C135.647 234.441 135.501 234.852 135.501 235.326C135.501 235.596 135.554 235.854 135.659 236.1C135.771 236.346 135.929 236.574 136.134 236.785C136.345 236.996 136.588 237.157 136.863 237.269C137.139 237.38 137.429 237.436 137.733 237.436C138.032 237.436 138.322 237.389 138.604 237.295C138.885 237.201 139.151 237.069 139.403 236.899C139.655 236.724 139.916 236.507 140.186 236.249C139.664 235.769 139.195 235.294 138.779 234.825C138.363 234.351 137.865 233.762 137.285 233.059ZM138.182 230.65C138.779 230.27 139.21 229.95 139.474 229.692C139.743 229.429 139.878 229.112 139.878 228.743C139.878 228.38 139.743 228.075 139.474 227.829C139.21 227.583 138.876 227.46 138.472 227.46C138.067 227.46 137.728 227.586 137.452 227.838C137.183 228.09 137.048 228.386 137.048 228.726C137.048 228.901 137.098 229.092 137.197 229.297C137.303 229.496 137.432 229.695 137.584 229.895C137.736 230.094 137.936 230.346 138.182 230.65ZM159.838 237.541L159.223 235.924H153.984L153.369 237.576C153.129 238.221 152.924 238.657 152.754 238.886C152.584 239.108 152.306 239.22 151.919 239.22C151.591 239.22 151.301 239.1 151.049 238.859C150.797 238.619 150.671 238.347 150.671 238.042C150.671 237.866 150.7 237.685 150.759 237.497C150.817 237.31 150.914 237.049 151.049 236.715L154.345 228.348C154.438 228.107 154.55 227.82 154.679 227.486C154.813 227.146 154.954 226.865 155.101 226.643C155.253 226.42 155.449 226.241 155.689 226.106C155.936 225.966 156.237 225.896 156.595 225.896C156.958 225.896 157.26 225.966 157.5 226.106C157.746 226.241 157.942 226.417 158.089 226.634C158.241 226.851 158.367 227.085 158.467 227.337C158.572 227.583 158.704 227.914 158.862 228.33L162.229 236.645C162.492 237.277 162.624 237.737 162.624 238.024C162.624 238.323 162.498 238.599 162.246 238.851C162 239.097 161.701 239.22 161.35 239.22C161.145 239.22 160.969 239.182 160.822 239.105C160.676 239.035 160.553 238.938 160.453 238.815C160.354 238.687 160.245 238.493 160.128 238.235C160.017 237.972 159.92 237.74 159.838 237.541ZM154.67 233.964H158.52L156.577 228.646L154.67 233.964ZM167.106 227.478V236.855H172.397C172.819 236.855 173.142 236.958 173.364 237.163C173.593 237.368 173.707 237.626 173.707 237.937C173.707 238.253 173.596 238.511 173.373 238.71C173.15 238.903 172.825 239 172.397 239H166.096C165.527 239 165.117 238.874 164.865 238.622C164.619 238.37 164.496 237.963 164.496 237.4V227.478C164.496 226.95 164.613 226.555 164.848 226.291C165.088 226.027 165.401 225.896 165.788 225.896C166.181 225.896 166.497 226.027 166.737 226.291C166.983 226.549 167.106 226.944 167.106 227.478ZM185.511 234.931C185.511 235.341 185.408 235.786 185.203 236.267C185.004 236.741 184.688 237.21 184.254 237.673C183.82 238.13 183.267 238.502 182.593 238.789C181.919 239.076 181.134 239.22 180.237 239.22C179.558 239.22 178.939 239.155 178.383 239.026C177.826 238.897 177.319 238.698 176.862 238.429C176.411 238.153 175.995 237.793 175.614 237.348C175.274 236.943 174.984 236.492 174.744 235.994C174.504 235.49 174.322 234.954 174.199 234.386C174.082 233.817 174.023 233.214 174.023 232.575C174.023 231.538 174.173 230.609 174.472 229.789C174.776 228.969 175.21 228.269 175.772 227.688C176.335 227.103 176.994 226.657 177.75 226.353C178.506 226.048 179.312 225.896 180.167 225.896C181.21 225.896 182.139 226.104 182.953 226.52C183.768 226.936 184.392 227.451 184.825 228.066C185.259 228.676 185.476 229.253 185.476 229.798C185.476 230.097 185.37 230.36 185.159 230.589C184.948 230.817 184.693 230.932 184.395 230.932C184.061 230.932 183.809 230.853 183.639 230.694C183.475 230.536 183.29 230.264 183.085 229.877C182.745 229.238 182.344 228.761 181.881 228.444C181.424 228.128 180.858 227.97 180.185 227.97C179.112 227.97 178.257 228.377 177.618 229.191C176.985 230.006 176.669 231.163 176.669 232.663C176.669 233.665 176.81 234.5 177.091 235.168C177.372 235.83 177.771 236.325 178.286 236.653C178.802 236.981 179.405 237.146 180.097 237.146C180.847 237.146 181.479 236.961 181.995 236.592C182.517 236.217 182.909 235.669 183.173 234.948C183.284 234.608 183.422 234.333 183.586 234.122C183.75 233.905 184.014 233.797 184.377 233.797C184.688 233.797 184.954 233.905 185.177 234.122C185.399 234.339 185.511 234.608 185.511 234.931ZM193.526 225.896C194.862 225.896 196.008 226.168 196.963 226.713C197.924 227.252 198.65 228.022 199.143 229.024C199.635 230.021 199.881 231.192 199.881 232.54C199.881 233.536 199.746 234.441 199.477 235.256C199.207 236.07 198.803 236.776 198.264 237.374C197.725 237.972 197.062 238.429 196.277 238.745C195.492 239.062 194.593 239.22 193.579 239.22C192.571 239.22 191.669 239.059 190.872 238.736C190.075 238.408 189.41 237.948 188.877 237.356C188.344 236.765 187.939 236.053 187.664 235.221C187.395 234.389 187.26 233.489 187.26 232.522C187.26 231.532 187.4 230.624 187.682 229.798C187.969 228.972 188.382 228.269 188.921 227.688C189.46 227.108 190.116 226.666 190.89 226.361C191.663 226.051 192.542 225.896 193.526 225.896ZM197.235 232.522C197.235 231.579 197.083 230.762 196.778 230.07C196.474 229.379 196.037 228.857 195.469 228.506C194.906 228.148 194.259 227.97 193.526 227.97C193.005 227.97 192.521 228.069 192.076 228.269C191.637 228.462 191.256 228.746 190.934 229.121C190.617 229.496 190.365 229.977 190.178 230.562C189.996 231.143 189.905 231.796 189.905 232.522C189.905 233.255 189.996 233.917 190.178 234.509C190.365 235.101 190.626 235.593 190.96 235.985C191.3 236.372 191.687 236.662 192.12 236.855C192.56 237.049 193.04 237.146 193.562 237.146C194.229 237.146 194.842 236.979 195.398 236.645C195.961 236.311 196.406 235.795 196.734 235.098C197.068 234.4 197.235 233.542 197.235 232.522ZM204.741 227.478V231.169H210.375V227.478C210.375 226.95 210.492 226.555 210.727 226.291C210.967 226.027 211.28 225.896 211.667 225.896C212.06 225.896 212.376 226.027 212.616 226.291C212.862 226.549 212.985 226.944 212.985 227.478V237.629C212.985 238.162 212.862 238.561 212.616 238.824C212.37 239.088 212.054 239.22 211.667 239.22C211.274 239.22 210.961 239.088 210.727 238.824C210.492 238.555 210.375 238.156 210.375 237.629V233.296H204.741V237.629C204.741 238.162 204.618 238.561 204.372 238.824C204.126 239.088 203.81 239.22 203.423 239.22C203.03 239.22 202.717 239.088 202.482 238.824C202.248 238.555 202.131 238.156 202.131 237.629V227.478C202.131 226.95 202.245 226.555 202.474 226.291C202.708 226.027 203.024 225.896 203.423 225.896C203.815 225.896 204.132 226.027 204.372 226.291C204.618 226.549 204.741 226.944 204.741 227.478ZM221.458 225.896C222.794 225.896 223.939 226.168 224.895 226.713C225.855 227.252 226.582 228.022 227.074 229.024C227.566 230.021 227.812 231.192 227.812 232.54C227.812 233.536 227.678 234.441 227.408 235.256C227.139 236.07 226.734 236.776 226.195 237.374C225.656 237.972 224.994 238.429 224.209 238.745C223.424 239.062 222.524 239.22 221.511 239.22C220.503 239.22 219.601 239.059 218.804 238.736C218.007 238.408 217.342 237.948 216.809 237.356C216.275 236.765 215.871 236.053 215.596 235.221C215.326 234.389 215.191 233.489 215.191 232.522C215.191 231.532 215.332 230.624 215.613 229.798C215.9 228.972 216.313 228.269 216.853 227.688C217.392 227.108 218.048 226.666 218.821 226.361C219.595 226.051 220.474 225.896 221.458 225.896ZM225.167 232.522C225.167 231.579 225.015 230.762 224.71 230.07C224.405 229.379 223.969 228.857 223.4 228.506C222.838 228.148 222.19 227.97 221.458 227.97C220.937 227.97 220.453 228.069 220.008 228.269C219.568 228.462 219.188 228.746 218.865 229.121C218.549 229.496 218.297 229.977 218.109 230.562C217.928 231.143 217.837 231.796 217.837 232.522C217.837 233.255 217.928 233.917 218.109 234.509C218.297 235.101 218.558 235.593 218.892 235.985C219.231 236.372 219.618 236.662 220.052 236.855C220.491 237.049 220.972 237.146 221.493 237.146C222.161 237.146 222.773 236.979 223.33 236.645C223.893 236.311 224.338 235.795 224.666 235.098C225 234.4 225.167 233.542 225.167 232.522ZM232.603 227.478V236.855H237.894C238.315 236.855 238.638 236.958 238.86 237.163C239.089 237.368 239.203 237.626 239.203 237.937C239.203 238.253 239.092 238.511 238.869 238.71C238.646 238.903 238.321 239 237.894 239H231.592C231.023 239 230.613 238.874 230.361 238.622C230.115 238.37 229.992 237.963 229.992 237.4V227.478C229.992 226.95 230.109 226.555 230.344 226.291C230.584 226.027 230.897 225.896 231.284 225.896C231.677 225.896 231.993 226.027 232.233 226.291C232.479 226.549 232.603 226.944 232.603 227.478Z"
        fill="black" fill-opacity="0.5" />
    <path
        d="M6.04688 99.2305H12.8496C14.6191 99.2305 16.1367 99.3945 17.4023 99.7227C18.668 100.051 19.8164 100.666 20.8477 101.568C23.5312 103.865 24.873 107.357 24.873 112.045C24.873 113.592 24.7383 115.004 24.4688 116.281C24.1992 117.559 23.7832 118.713 23.2207 119.744C22.6582 120.764 21.9375 121.678 21.0586 122.486C20.3672 123.107 19.6113 123.605 18.791 123.98C17.9707 124.355 17.0859 124.619 16.1367 124.771C15.1992 124.924 14.1387 125 12.9551 125H6.15234C5.20312 125 4.48828 124.859 4.00781 124.578C3.52734 124.285 3.21094 123.881 3.05859 123.365C2.91797 122.838 2.84766 122.158 2.84766 121.326V102.43C2.84766 101.305 3.09961 100.49 3.60352 99.9863C4.10742 99.4824 4.92188 99.2305 6.04688 99.2305ZM8.06836 103.361V120.852H12.0234C12.8906 120.852 13.5703 120.828 14.0625 120.781C14.5547 120.734 15.0645 120.617 15.5918 120.43C16.1191 120.242 16.5762 119.979 16.9629 119.639C18.709 118.162 19.582 115.619 19.582 112.01C19.582 109.467 19.1953 107.562 18.4219 106.297C17.6602 105.031 16.7168 104.229 15.5918 103.889C14.4668 103.537 13.1074 103.361 11.5137 103.361H8.06836ZM42.5215 116.861H33.1348C33.1465 117.951 33.3633 118.912 33.7852 119.744C34.2188 120.576 34.7871 121.203 35.4902 121.625C36.2051 122.047 36.9902 122.258 37.8457 122.258C38.4199 122.258 38.9414 122.193 39.4102 122.064C39.8906 121.924 40.3535 121.713 40.7988 121.432C41.2441 121.139 41.6543 120.828 42.0293 120.5C42.4043 120.172 42.8906 119.727 43.4883 119.164C43.7344 118.953 44.0859 118.848 44.543 118.848C45.0352 118.848 45.4336 118.982 45.7383 119.252C46.043 119.521 46.1953 119.902 46.1953 120.395C46.1953 120.828 46.0254 121.338 45.6855 121.924C45.3457 122.498 44.8301 123.055 44.1387 123.594C43.459 124.121 42.5977 124.561 41.5547 124.912C40.5234 125.264 39.334 125.439 37.9863 125.439C34.9043 125.439 32.5078 124.561 30.7969 122.803C29.0859 121.045 28.2305 118.66 28.2305 115.648C28.2305 114.23 28.4414 112.918 28.8633 111.711C29.2852 110.492 29.9004 109.449 30.709 108.582C31.5176 107.715 32.5137 107.053 33.6973 106.596C34.8809 106.127 36.1934 105.893 37.6348 105.893C39.5098 105.893 41.1152 106.291 42.4512 107.088C43.7988 107.873 44.8066 108.893 45.4746 110.146C46.1426 111.4 46.4766 112.678 46.4766 113.979C46.4766 115.186 46.1309 115.971 45.4395 116.334C44.748 116.686 43.7754 116.861 42.5215 116.861ZM33.1348 114.137H41.8359C41.7188 112.496 41.2734 111.271 40.5 110.463C39.7383 109.643 38.7305 109.232 37.4766 109.232C36.2812 109.232 35.2969 109.648 34.5234 110.48C33.7617 111.301 33.2988 112.52 33.1348 114.137ZM63.9316 116.861H54.5449C54.5566 117.951 54.7734 118.912 55.1953 119.744C55.6289 120.576 56.1973 121.203 56.9004 121.625C57.6152 122.047 58.4004 122.258 59.2559 122.258C59.8301 122.258 60.3516 122.193 60.8203 122.064C61.3008 121.924 61.7637 121.713 62.209 121.432C62.6543 121.139 63.0645 120.828 63.4395 120.5C63.8145 120.172 64.3008 119.727 64.8984 119.164C65.1445 118.953 65.4961 118.848 65.9531 118.848C66.4453 118.848 66.8438 118.982 67.1484 119.252C67.4531 119.521 67.6055 119.902 67.6055 120.395C67.6055 120.828 67.4355 121.338 67.0957 121.924C66.7559 122.498 66.2402 123.055 65.5488 123.594C64.8691 124.121 64.0078 124.561 62.9648 124.912C61.9336 125.264 60.7441 125.439 59.3965 125.439C56.3145 125.439 53.918 124.561 52.207 122.803C50.4961 121.045 49.6406 118.66 49.6406 115.648C49.6406 114.23 49.8516 112.918 50.2734 111.711C50.6953 110.492 51.3105 109.449 52.1191 108.582C52.9277 107.715 53.9238 107.053 55.1074 106.596C56.291 106.127 57.6035 105.893 59.0449 105.893C60.9199 105.893 62.5254 106.291 63.8613 107.088C65.209 107.873 66.2168 108.893 66.8848 110.146C67.5527 111.4 67.8867 112.678 67.8867 113.979C67.8867 115.186 67.541 115.971 66.8496 116.334C66.1582 116.686 65.1855 116.861 63.9316 116.861ZM54.5449 114.137H63.2461C63.1289 112.496 62.6836 111.271 61.9102 110.463C61.1484 109.643 60.1406 109.232 58.8867 109.232C57.6914 109.232 56.707 109.648 55.9336 110.48C55.1719 111.301 54.709 112.52 54.5449 114.137ZM75.8848 108.617V109.197C76.7871 108.084 77.7246 107.27 78.6973 106.754C79.6699 106.227 80.7715 105.963 82.002 105.963C83.4785 105.963 84.8379 106.344 86.0801 107.105C87.3223 107.867 88.3008 108.98 89.0156 110.445C89.7422 111.91 90.1055 113.645 90.1055 115.648C90.1055 117.125 89.8945 118.484 89.4727 119.727C89.0625 120.957 88.4941 121.994 87.7676 122.838C87.041 123.67 86.1797 124.314 85.1836 124.771C84.1992 125.217 83.1387 125.439 82.002 125.439C80.6309 125.439 79.4766 125.164 78.5391 124.613C77.6133 124.062 76.7285 123.254 75.8848 122.188V129.395C75.8848 131.504 75.1172 132.559 73.582 132.559C72.6797 132.559 72.082 132.283 71.7891 131.732C71.4961 131.193 71.3496 130.402 71.3496 129.359V108.652C71.3496 107.738 71.5488 107.059 71.9473 106.613C72.3457 106.156 72.8906 105.928 73.582 105.928C74.2617 105.928 74.8125 106.162 75.2344 106.631C75.668 107.088 75.8848 107.75 75.8848 108.617ZM85.2891 115.596C85.2891 114.33 85.0957 113.246 84.709 112.344C84.3223 111.43 83.7832 110.732 83.0918 110.252C82.4121 109.76 81.6562 109.514 80.8242 109.514C79.5 109.514 78.3809 110.035 77.4668 111.078C76.5645 112.121 76.1133 113.656 76.1133 115.684C76.1133 117.594 76.5645 119.082 77.4668 120.148C78.3691 121.203 79.4883 121.73 80.8242 121.73C81.6211 121.73 82.3594 121.502 83.0391 121.045C83.7188 120.576 84.2637 119.879 84.6738 118.953C85.084 118.027 85.2891 116.908 85.2891 115.596ZM125.244 116.861C125.244 117.682 125.039 118.572 124.629 119.533C124.23 120.482 123.598 121.42 122.73 122.346C121.863 123.26 120.756 124.004 119.408 124.578C118.061 125.152 116.49 125.439 114.697 125.439C113.338 125.439 112.102 125.311 110.988 125.053C109.875 124.795 108.861 124.396 107.947 123.857C107.045 123.307 106.213 122.586 105.451 121.695C104.771 120.887 104.191 119.984 103.711 118.988C103.23 117.98 102.867 116.908 102.621 115.771C102.387 114.635 102.27 113.428 102.27 112.15C102.27 110.076 102.568 108.219 103.166 106.578C103.775 104.938 104.643 103.537 105.768 102.377C106.893 101.205 108.211 100.314 109.723 99.7051C111.234 99.0957 112.846 98.791 114.557 98.791C116.643 98.791 118.5 99.207 120.129 100.039C121.758 100.871 123.006 101.902 123.873 103.133C124.74 104.352 125.174 105.506 125.174 106.596C125.174 107.193 124.963 107.721 124.541 108.178C124.119 108.635 123.609 108.863 123.012 108.863C122.344 108.863 121.84 108.705 121.5 108.389C121.172 108.072 120.803 107.527 120.393 106.754C119.713 105.477 118.91 104.521 117.984 103.889C117.07 103.256 115.939 102.939 114.592 102.939C112.447 102.939 110.736 103.754 109.459 105.383C108.193 107.012 107.561 109.326 107.561 112.326C107.561 114.33 107.842 116 108.404 117.336C108.967 118.66 109.764 119.65 110.795 120.307C111.826 120.963 113.033 121.291 114.416 121.291C115.916 121.291 117.182 120.922 118.213 120.184C119.256 119.434 120.041 118.338 120.568 116.896C120.791 116.217 121.066 115.666 121.395 115.244C121.723 114.811 122.25 114.594 122.977 114.594C123.598 114.594 124.131 114.811 124.576 115.244C125.021 115.678 125.244 116.217 125.244 116.861ZM129.604 122.521V101.709C129.604 100.748 129.814 100.021 130.236 99.5293C130.67 99.0371 131.25 98.791 131.977 98.791C132.703 98.791 133.289 99.0371 133.734 99.5293C134.18 100.01 134.402 100.736 134.402 101.709V122.521C134.402 123.494 134.174 124.227 133.717 124.719C133.271 125.199 132.691 125.439 131.977 125.439C131.273 125.439 130.699 125.188 130.254 124.684C129.82 124.18 129.604 123.459 129.604 122.521ZM152.771 116.861H143.385C143.396 117.951 143.613 118.912 144.035 119.744C144.469 120.576 145.037 121.203 145.74 121.625C146.455 122.047 147.24 122.258 148.096 122.258C148.67 122.258 149.191 122.193 149.66 122.064C150.141 121.924 150.604 121.713 151.049 121.432C151.494 121.139 151.904 120.828 152.279 120.5C152.654 120.172 153.141 119.727 153.738 119.164C153.984 118.953 154.336 118.848 154.793 118.848C155.285 118.848 155.684 118.982 155.988 119.252C156.293 119.521 156.445 119.902 156.445 120.395C156.445 120.828 156.275 121.338 155.936 121.924C155.596 122.498 155.08 123.055 154.389 123.594C153.709 124.121 152.848 124.561 151.805 124.912C150.773 125.264 149.584 125.439 148.236 125.439C145.154 125.439 142.758 124.561 141.047 122.803C139.336 121.045 138.48 118.66 138.48 115.648C138.48 114.23 138.691 112.918 139.113 111.711C139.535 110.492 140.15 109.449 140.959 108.582C141.768 107.715 142.764 107.053 143.947 106.596C145.131 106.127 146.443 105.893 147.885 105.893C149.76 105.893 151.365 106.291 152.701 107.088C154.049 107.873 155.057 108.893 155.725 110.146C156.393 111.4 156.727 112.678 156.727 113.979C156.727 115.186 156.381 115.971 155.689 116.334C154.998 116.686 154.025 116.861 152.771 116.861ZM143.385 114.137H152.086C151.969 112.496 151.523 111.271 150.75 110.463C149.988 109.643 148.98 109.232 147.727 109.232C146.531 109.232 145.547 109.648 144.773 110.48C144.012 111.301 143.549 112.52 143.385 114.137ZM172.916 122.732C171.756 123.635 170.631 124.314 169.541 124.771C168.463 125.217 167.25 125.439 165.902 125.439C164.672 125.439 163.588 125.199 162.65 124.719C161.725 124.227 161.01 123.564 160.506 122.732C160.002 121.9 159.75 120.998 159.75 120.025C159.75 118.713 160.166 117.594 160.998 116.668C161.83 115.742 162.973 115.121 164.426 114.805C164.73 114.734 165.486 114.576 166.693 114.33C167.9 114.084 168.932 113.861 169.787 113.662C170.654 113.451 171.592 113.199 172.6 112.906C172.541 111.641 172.283 110.715 171.826 110.129C171.381 109.531 170.449 109.232 169.031 109.232C167.812 109.232 166.893 109.402 166.271 109.742C165.662 110.082 165.135 110.592 164.689 111.271C164.256 111.951 163.945 112.402 163.758 112.625C163.582 112.836 163.195 112.941 162.598 112.941C162.059 112.941 161.59 112.771 161.191 112.432C160.805 112.08 160.611 111.635 160.611 111.096C160.611 110.252 160.91 109.432 161.508 108.635C162.105 107.838 163.037 107.182 164.303 106.666C165.568 106.15 167.145 105.893 169.031 105.893C171.141 105.893 172.799 106.145 174.006 106.648C175.213 107.141 176.062 107.926 176.555 109.004C177.059 110.082 177.311 111.512 177.311 113.293C177.311 114.418 177.305 115.373 177.293 116.158C177.293 116.943 177.287 117.816 177.275 118.777C177.275 119.68 177.422 120.623 177.715 121.607C178.02 122.58 178.172 123.207 178.172 123.488C178.172 123.98 177.938 124.432 177.469 124.842C177.012 125.24 176.49 125.439 175.904 125.439C175.412 125.439 174.926 125.211 174.445 124.754C173.965 124.285 173.455 123.611 172.916 122.732ZM172.6 115.789C171.896 116.047 170.871 116.322 169.523 116.615C168.188 116.896 167.262 117.107 166.746 117.248C166.23 117.377 165.738 117.641 165.27 118.039C164.801 118.426 164.566 118.971 164.566 119.674C164.566 120.4 164.842 121.021 165.393 121.537C165.943 122.041 166.664 122.293 167.555 122.293C168.504 122.293 169.377 122.088 170.174 121.678C170.982 121.256 171.574 120.717 171.949 120.061C172.383 119.334 172.6 118.139 172.6 116.475V115.789ZM186.557 108.582V109.162C187.4 108.049 188.32 107.234 189.316 106.719C190.324 106.191 191.479 105.928 192.779 105.928C194.045 105.928 195.176 106.203 196.172 106.754C197.168 107.305 197.912 108.084 198.404 109.092C198.721 109.678 198.926 110.311 199.02 110.99C199.113 111.67 199.16 112.537 199.16 113.592V122.521C199.16 123.482 198.938 124.209 198.492 124.701C198.059 125.193 197.49 125.439 196.787 125.439C196.072 125.439 195.492 125.188 195.047 124.684C194.602 124.18 194.379 123.459 194.379 122.521V114.523C194.379 112.941 194.156 111.734 193.711 110.902C193.277 110.059 192.404 109.637 191.092 109.637C190.236 109.637 189.457 109.895 188.754 110.41C188.051 110.914 187.535 111.611 187.207 112.502C186.973 113.217 186.855 114.553 186.855 116.51V122.521C186.855 123.494 186.627 124.227 186.17 124.719C185.725 125.199 185.145 125.439 184.43 125.439C183.738 125.439 183.17 125.188 182.725 124.684C182.279 124.18 182.057 123.459 182.057 122.521V108.652C182.057 107.738 182.256 107.059 182.654 106.613C183.053 106.156 183.598 105.928 184.289 105.928C184.711 105.928 185.092 106.027 185.432 106.227C185.771 106.426 186.041 106.725 186.24 107.123C186.451 107.521 186.557 108.008 186.557 108.582ZM216.053 104.697C216.053 103.607 216.334 102.617 216.896 101.727C217.471 100.824 218.309 100.109 219.41 99.582C220.512 99.0547 221.807 98.791 223.295 98.791C224.771 98.791 226.049 99.0664 227.127 99.6172C228.205 100.168 229.008 100.889 229.535 101.779C230.074 102.67 230.344 103.596 230.344 104.557C230.344 105.869 229.91 107.012 229.043 107.984C228.176 108.957 226.898 109.947 225.211 110.955C225.797 111.646 226.342 112.297 226.846 112.906C227.35 113.516 227.836 114.084 228.305 114.611C228.773 115.139 229.201 115.59 229.588 115.965C229.764 115.637 230.033 115.021 230.396 114.119C230.771 113.217 231.117 112.566 231.434 112.168C231.762 111.77 232.219 111.57 232.805 111.57C233.355 111.57 233.842 111.77 234.264 112.168C234.686 112.555 234.896 113.029 234.896 113.592C234.896 114.107 234.715 114.84 234.352 115.789C233.988 116.727 233.461 117.77 232.77 118.918C233.203 119.293 233.889 119.861 234.826 120.623C235.775 121.385 236.355 121.906 236.566 122.188C236.789 122.457 236.9 122.82 236.9 123.277C236.9 123.887 236.678 124.402 236.232 124.824C235.799 125.234 235.312 125.439 234.773 125.439C234.223 125.439 233.689 125.264 233.174 124.912C232.658 124.561 231.562 123.699 229.887 122.328C229.125 123.043 228.334 123.629 227.514 124.086C226.705 124.543 225.832 124.883 224.895 125.105C223.969 125.328 222.932 125.439 221.783 125.439C220.318 125.439 219 125.229 217.828 124.807C216.668 124.373 215.701 123.793 214.928 123.066C214.154 122.34 213.58 121.537 213.205 120.658C212.83 119.768 212.643 118.865 212.643 117.951C212.643 117.072 212.783 116.27 213.064 115.543C213.346 114.805 213.738 114.143 214.242 113.557C214.758 112.959 215.385 112.396 216.123 111.869C216.873 111.33 217.74 110.809 218.725 110.305C217.846 109.203 217.178 108.225 216.721 107.369C216.275 106.502 216.053 105.611 216.053 104.697ZM221.027 113.117C219.832 113.809 218.936 114.5 218.338 115.191C217.752 115.883 217.459 116.703 217.459 117.652C217.459 118.191 217.564 118.707 217.775 119.199C217.998 119.691 218.314 120.148 218.725 120.57C219.146 120.992 219.633 121.314 220.184 121.537C220.734 121.76 221.314 121.871 221.924 121.871C222.521 121.871 223.102 121.777 223.664 121.59C224.227 121.402 224.76 121.139 225.264 120.799C225.768 120.447 226.289 120.014 226.828 119.498C225.785 118.537 224.848 117.588 224.016 116.65C223.184 115.701 222.188 114.523 221.027 113.117ZM222.82 108.301C224.016 107.539 224.877 106.9 225.404 106.385C225.943 105.857 226.213 105.225 226.213 104.486C226.213 103.76 225.943 103.15 225.404 102.658C224.877 102.166 224.209 101.92 223.4 101.92C222.592 101.92 221.912 102.172 221.361 102.676C220.822 103.18 220.553 103.771 220.553 104.451C220.553 104.803 220.652 105.184 220.852 105.594C221.062 105.992 221.32 106.391 221.625 106.789C221.93 107.188 222.328 107.691 222.82 108.301ZM11.5137 161.115L7.38281 144.697V162.486C7.38281 163.471 7.16016 164.209 6.71484 164.701C6.28125 165.193 5.70117 165.439 4.97461 165.439C4.27148 165.439 3.69727 165.199 3.25195 164.719C2.80664 164.227 2.58398 163.482 2.58398 162.486V142.096C2.58398 140.971 2.87695 140.215 3.46289 139.828C4.04883 139.43 4.83984 139.23 5.83594 139.23H7.45312C8.42578 139.23 9.12891 139.318 9.5625 139.494C10.0078 139.67 10.3359 139.986 10.5469 140.443C10.7578 140.9 10.998 141.645 11.2676 142.676L15.0117 156.791L18.7559 142.676C19.0254 141.645 19.2656 140.9 19.4766 140.443C19.6875 139.986 20.0098 139.67 20.4434 139.494C20.8887 139.318 21.5977 139.23 22.5703 139.23H24.1875C25.1836 139.23 25.9746 139.43 26.5605 139.828C27.1465 140.215 27.4395 140.971 27.4395 142.096V162.486C27.4395 163.471 27.2168 164.209 26.7715 164.701C26.3379 165.193 25.752 165.439 25.0137 165.439C24.3223 165.439 23.7539 165.193 23.3086 164.701C22.8633 164.209 22.6406 163.471 22.6406 162.486V144.697L18.5098 161.115C18.2402 162.182 18.0176 162.967 17.8418 163.471C17.6777 163.963 17.3672 164.414 16.9102 164.824C16.4531 165.234 15.8203 165.439 15.0117 165.439C14.4023 165.439 13.8867 165.305 13.4648 165.035C13.043 164.777 12.7148 164.443 12.4805 164.033C12.2461 163.623 12.0586 163.172 11.918 162.68C11.7891 162.176 11.6543 161.654 11.5137 161.115ZM50.4316 155.684C50.4316 157.113 50.209 158.432 49.7637 159.639C49.3184 160.846 48.6738 161.883 47.8301 162.75C46.9863 163.617 45.9785 164.285 44.8066 164.754C43.6348 165.211 42.3164 165.439 40.8516 165.439C39.3984 165.439 38.0918 165.205 36.9316 164.736C35.7715 164.268 34.7637 163.6 33.9082 162.732C33.0645 161.854 32.4199 160.822 31.9746 159.639C31.541 158.443 31.3242 157.125 31.3242 155.684C31.3242 154.23 31.5469 152.9 31.9922 151.693C32.4375 150.486 33.0762 149.455 33.9082 148.6C34.7402 147.744 35.748 147.088 36.9316 146.631C38.1152 146.162 39.4219 145.928 40.8516 145.928C42.3047 145.928 43.623 146.162 44.8066 146.631C45.9902 147.1 47.0039 147.768 47.8477 148.635C48.6914 149.502 49.3301 150.533 49.7637 151.729C50.209 152.924 50.4316 154.242 50.4316 155.684ZM45.6152 155.684C45.6152 153.727 45.1816 152.203 44.3145 151.113C43.459 150.023 42.3047 149.479 40.8516 149.479C39.9141 149.479 39.0879 149.725 38.373 150.217C37.6582 150.697 37.1074 151.412 36.7207 152.361C36.334 153.311 36.1406 154.418 36.1406 155.684C36.1406 156.938 36.3281 158.033 36.7031 158.971C37.0898 159.908 37.6348 160.629 38.3379 161.133C39.0527 161.625 39.8906 161.871 40.8516 161.871C42.3047 161.871 43.459 161.326 44.3145 160.236C45.1816 159.135 45.6152 157.617 45.6152 155.684ZM59.0273 148.652V162.521C59.0273 163.482 58.7988 164.209 58.3418 164.701C57.8848 165.193 57.3047 165.439 56.6016 165.439C55.8984 165.439 55.3242 165.188 54.8789 164.684C54.4453 164.18 54.2285 163.459 54.2285 162.521V148.793C54.2285 147.844 54.4453 147.129 54.8789 146.648C55.3242 146.168 55.8984 145.928 56.6016 145.928C57.3047 145.928 57.8848 146.168 58.3418 146.648C58.7988 147.129 59.0273 147.797 59.0273 148.652ZM56.6543 143.695C55.9863 143.695 55.4121 143.49 54.9316 143.08C54.4629 142.67 54.2285 142.09 54.2285 141.34C54.2285 140.66 54.4688 140.104 54.9492 139.67C55.4414 139.225 56.0098 139.002 56.6543 139.002C57.2754 139.002 57.8262 139.201 58.3066 139.6C58.7871 139.998 59.0273 140.578 59.0273 141.34C59.0273 142.078 58.793 142.658 58.3242 143.08C57.8555 143.49 57.2988 143.695 56.6543 143.695ZM79.4531 159.164C79.4531 160.488 79.1309 161.625 78.4863 162.574C77.8418 163.512 76.8867 164.227 75.6211 164.719C74.3672 165.199 72.8379 165.439 71.0332 165.439C69.3105 165.439 67.834 165.176 66.6035 164.648C65.373 164.121 64.4648 163.465 63.8789 162.68C63.293 161.883 63 161.086 63 160.289C63 159.762 63.1875 159.311 63.5625 158.936C63.9375 158.561 64.4121 158.373 64.9863 158.373C65.4902 158.373 65.877 158.496 66.1465 158.742C66.416 158.988 66.6738 159.334 66.9199 159.779C67.4121 160.635 67.998 161.273 68.6777 161.695C69.3691 162.117 70.3066 162.328 71.4902 162.328C72.4512 162.328 73.2363 162.117 73.8457 161.695C74.4668 161.262 74.7773 160.77 74.7773 160.219C74.7773 159.375 74.4551 158.76 73.8105 158.373C73.1777 157.986 72.1289 157.617 70.6641 157.266C69.0117 156.855 67.6641 156.428 66.6211 155.982C65.5898 155.525 64.7637 154.928 64.1426 154.189C63.5215 153.451 63.2109 152.543 63.2109 151.465C63.2109 150.504 63.498 149.596 64.0723 148.74C64.6465 147.885 65.4902 147.205 66.6035 146.701C67.7285 146.186 69.082 145.928 70.6641 145.928C71.9062 145.928 73.0195 146.057 74.0039 146.314C75 146.572 75.8262 146.918 76.4824 147.352C77.1504 147.785 77.6543 148.266 77.9941 148.793C78.3457 149.32 78.5215 149.836 78.5215 150.34C78.5215 150.891 78.334 151.342 77.959 151.693C77.5957 152.045 77.0742 152.221 76.3945 152.221C75.9023 152.221 75.4805 152.08 75.1289 151.799C74.7891 151.518 74.3965 151.096 73.9512 150.533C73.5879 150.064 73.1602 149.689 72.668 149.408C72.1758 149.127 71.5078 148.986 70.6641 148.986C69.7969 148.986 69.0762 149.174 68.502 149.549C67.9277 149.912 67.6406 150.369 67.6406 150.92C67.6406 151.424 67.8516 151.84 68.2734 152.168C68.6953 152.484 69.2637 152.748 69.9785 152.959C70.6934 153.17 71.6777 153.428 72.9316 153.732C74.4199 154.096 75.6328 154.529 76.5703 155.033C77.5195 155.537 78.2344 156.135 78.7148 156.826C79.207 157.506 79.4531 158.285 79.4531 159.164ZM83.7773 146.35H84.3047V143.467C84.3047 142.693 84.3223 142.09 84.3574 141.656C84.4043 141.211 84.5215 140.83 84.709 140.514C84.8965 140.186 85.166 139.922 85.5176 139.723C85.8691 139.512 86.2617 139.406 86.6953 139.406C87.3047 139.406 87.8555 139.635 88.3477 140.092C88.6758 140.396 88.8809 140.771 88.9629 141.217C89.0566 141.65 89.1035 142.271 89.1035 143.08V146.35H90.8613C91.541 146.35 92.0566 146.514 92.4082 146.842C92.7715 147.158 92.9531 147.568 92.9531 148.072C92.9531 148.717 92.6953 149.168 92.1797 149.426C91.6758 149.684 90.9492 149.812 90 149.812H89.1035V158.637C89.1035 159.387 89.127 159.967 89.1738 160.377C89.2324 160.775 89.373 161.104 89.5957 161.361C89.8301 161.607 90.2051 161.73 90.7207 161.73C91.002 161.73 91.3828 161.684 91.8633 161.59C92.3438 161.484 92.7188 161.432 92.9883 161.432C93.375 161.432 93.7207 161.59 94.0254 161.906C94.3418 162.211 94.5 162.592 94.5 163.049C94.5 163.822 94.0781 164.414 93.2344 164.824C92.3906 165.234 91.1777 165.439 89.5957 165.439C88.0957 165.439 86.959 165.188 86.1855 164.684C85.4121 164.18 84.9023 163.482 84.6562 162.592C84.4219 161.701 84.3047 160.512 84.3047 159.023V149.812H83.6719C82.9805 149.812 82.4531 149.648 82.0898 149.32C81.7266 148.992 81.5449 148.576 81.5449 148.072C81.5449 147.568 81.7324 147.158 82.1074 146.842C82.4941 146.514 83.0508 146.35 83.7773 146.35ZM108.738 162.732V162.117C108.164 162.844 107.561 163.453 106.928 163.945C106.295 164.438 105.604 164.801 104.854 165.035C104.104 165.281 103.248 165.404 102.287 165.404C101.127 165.404 100.084 165.164 99.1582 164.684C98.2441 164.203 97.5352 163.541 97.0312 162.697C96.4336 161.678 96.1348 160.213 96.1348 158.303V148.793C96.1348 147.832 96.3516 147.117 96.7852 146.648C97.2188 146.168 97.793 145.928 98.5078 145.928C99.2344 145.928 99.8203 146.168 100.266 146.648C100.711 147.129 100.934 147.844 100.934 148.793V156.475C100.934 157.588 101.027 158.525 101.215 159.287C101.402 160.037 101.736 160.629 102.217 161.062C102.709 161.484 103.371 161.695 104.203 161.695C105.012 161.695 105.773 161.455 106.488 160.975C107.203 160.494 107.725 159.867 108.053 159.094C108.322 158.414 108.457 156.926 108.457 154.629V148.793C108.457 147.844 108.68 147.129 109.125 146.648C109.57 146.168 110.15 145.928 110.865 145.928C111.58 145.928 112.154 146.168 112.588 146.648C113.021 147.117 113.238 147.832 113.238 148.793V162.697C113.238 163.611 113.027 164.297 112.605 164.754C112.195 165.211 111.662 165.439 111.006 165.439C110.35 165.439 109.805 165.205 109.371 164.736C108.949 164.256 108.738 163.588 108.738 162.732ZM122.801 158.514V162.521C122.801 163.494 122.572 164.227 122.115 164.719C121.658 165.199 121.078 165.439 120.375 165.439C119.684 165.439 119.115 165.193 118.67 164.701C118.225 164.209 118.002 163.482 118.002 162.521V149.162C118.002 147.006 118.781 145.928 120.34 145.928C121.137 145.928 121.711 146.18 122.062 146.684C122.414 147.188 122.607 147.932 122.643 148.916C123.217 147.932 123.803 147.188 124.4 146.684C125.01 146.18 125.818 145.928 126.826 145.928C127.834 145.928 128.812 146.18 129.762 146.684C130.711 147.188 131.186 147.855 131.186 148.688C131.186 149.273 130.98 149.76 130.57 150.146C130.172 150.521 129.738 150.709 129.27 150.709C129.094 150.709 128.666 150.604 127.986 150.393C127.318 150.17 126.727 150.059 126.211 150.059C125.508 150.059 124.934 150.246 124.488 150.621C124.043 150.984 123.697 151.529 123.451 152.256C123.205 152.982 123.035 153.85 122.941 154.857C122.848 155.854 122.801 157.072 122.801 158.514ZM138.621 148.652V162.521C138.621 163.482 138.393 164.209 137.936 164.701C137.479 165.193 136.898 165.439 136.195 165.439C135.492 165.439 134.918 165.188 134.473 164.684C134.039 164.18 133.822 163.459 133.822 162.521V148.793C133.822 147.844 134.039 147.129 134.473 146.648C134.918 146.168 135.492 145.928 136.195 145.928C136.898 145.928 137.479 146.168 137.936 146.648C138.393 147.129 138.621 147.797 138.621 148.652ZM136.248 143.695C135.58 143.695 135.006 143.49 134.525 143.08C134.057 142.67 133.822 142.09 133.822 141.34C133.822 140.66 134.062 140.104 134.543 139.67C135.035 139.225 135.604 139.002 136.248 139.002C136.869 139.002 137.42 139.201 137.9 139.6C138.381 139.998 138.621 140.578 138.621 141.34C138.621 142.078 138.387 142.658 137.918 143.08C137.449 143.49 136.893 143.695 136.248 143.695ZM156.639 151.43L147.85 161.256H157.254C158.016 161.256 158.59 161.438 158.977 161.801C159.363 162.152 159.557 162.609 159.557 163.172C159.557 163.711 159.363 164.15 158.977 164.49C158.602 164.83 158.027 165 157.254 165H144.246C143.332 165 142.646 164.801 142.189 164.402C141.744 164.004 141.521 163.459 141.521 162.768C141.521 162.357 141.68 161.947 141.996 161.537C142.312 161.115 142.969 160.348 143.965 159.234C145.02 158.062 145.975 157.002 146.83 156.053C147.697 155.104 148.5 154.219 149.238 153.398C149.977 152.566 150.586 151.863 151.066 151.289C151.559 150.715 151.951 150.223 152.244 149.812H145.107C144.123 149.812 143.379 149.725 142.875 149.549C142.371 149.373 142.119 148.91 142.119 148.16C142.119 147.609 142.307 147.17 142.682 146.842C143.068 146.514 143.613 146.35 144.316 146.35H155.338C156.357 146.35 157.137 146.502 157.676 146.807C158.227 147.1 158.502 147.633 158.502 148.406C158.502 148.664 158.449 148.934 158.344 149.215C158.238 149.484 158.121 149.707 157.992 149.883C157.863 150.059 157.688 150.275 157.465 150.533C157.242 150.779 156.967 151.078 156.639 151.43ZM175.271 156.861H165.885C165.896 157.951 166.113 158.912 166.535 159.744C166.969 160.576 167.537 161.203 168.24 161.625C168.955 162.047 169.74 162.258 170.596 162.258C171.17 162.258 171.691 162.193 172.16 162.064C172.641 161.924 173.104 161.713 173.549 161.432C173.994 161.139 174.404 160.828 174.779 160.5C175.154 160.172 175.641 159.727 176.238 159.164C176.484 158.953 176.836 158.848 177.293 158.848C177.785 158.848 178.184 158.982 178.488 159.252C178.793 159.521 178.945 159.902 178.945 160.395C178.945 160.828 178.775 161.338 178.436 161.924C178.096 162.498 177.58 163.055 176.889 163.594C176.209 164.121 175.348 164.561 174.305 164.912C173.273 165.264 172.084 165.439 170.736 165.439C167.654 165.439 165.258 164.561 163.547 162.803C161.836 161.045 160.98 158.66 160.98 155.648C160.98 154.23 161.191 152.918 161.613 151.711C162.035 150.492 162.65 149.449 163.459 148.582C164.268 147.715 165.264 147.053 166.447 146.596C167.631 146.127 168.943 145.893 170.385 145.893C172.26 145.893 173.865 146.291 175.201 147.088C176.549 147.873 177.557 148.893 178.225 150.146C178.893 151.4 179.227 152.678 179.227 153.979C179.227 155.186 178.881 155.971 178.189 156.334C177.498 156.686 176.525 156.861 175.271 156.861ZM165.885 154.137H174.586C174.469 152.496 174.023 151.271 173.25 150.463C172.488 149.643 171.48 149.232 170.227 149.232C169.031 149.232 168.047 149.648 167.273 150.48C166.512 151.301 166.049 152.52 165.885 154.137ZM188.051 158.514V162.521C188.051 163.494 187.822 164.227 187.365 164.719C186.908 165.199 186.328 165.439 185.625 165.439C184.934 165.439 184.365 165.193 183.92 164.701C183.475 164.209 183.252 163.482 183.252 162.521V149.162C183.252 147.006 184.031 145.928 185.59 145.928C186.387 145.928 186.961 146.18 187.312 146.684C187.664 147.188 187.857 147.932 187.893 148.916C188.467 147.932 189.053 147.188 189.65 146.684C190.26 146.18 191.068 145.928 192.076 145.928C193.084 145.928 194.062 146.18 195.012 146.684C195.961 147.188 196.436 147.855 196.436 148.688C196.436 149.273 196.23 149.76 195.82 150.146C195.422 150.521 194.988 150.709 194.52 150.709C194.344 150.709 193.916 150.604 193.236 150.393C192.568 150.17 191.977 150.059 191.461 150.059C190.758 150.059 190.184 150.246 189.738 150.621C189.293 150.984 188.947 151.529 188.701 152.256C188.455 152.982 188.285 153.85 188.191 154.857C188.098 155.854 188.051 157.072 188.051 158.514Z"
        fill="black" fill-opacity="0.5" />
    <path
        d="M8.47534 199.14L5.43457 187.055V200.15C5.43457 200.874 5.27067 201.418 4.94287 201.78C4.6237 202.142 4.1967 202.323 3.66187 202.323C3.14429 202.323 2.7216 202.147 2.3938 201.793C2.066 201.431 1.9021 200.883 1.9021 200.15V185.14C1.9021 184.312 2.11776 183.755 2.54907 183.471C2.98039 183.177 3.56266 183.031 4.2959 183.031H5.48633C6.20231 183.031 6.71989 183.095 7.03906 183.225C7.36686 183.354 7.6084 183.587 7.76367 183.924C7.91895 184.26 8.09578 184.808 8.29419 185.567L11.0503 195.957L13.8064 185.567C14.0048 184.808 14.1816 184.26 14.3369 183.924C14.4922 183.587 14.7294 183.354 15.0486 183.225C15.3764 183.095 15.8983 183.031 16.6143 183.031H17.8047C18.5379 183.031 19.1202 183.177 19.5515 183.471C19.9828 183.755 20.1985 184.312 20.1985 185.14V200.15C20.1985 200.874 20.0346 201.418 19.7068 201.78C19.3876 202.142 18.9563 202.323 18.4128 202.323C17.9039 202.323 17.4855 202.142 17.1577 201.78C16.8299 201.418 16.666 200.874 16.666 200.15V187.055L13.6252 199.14C13.4268 199.925 13.2629 200.503 13.1335 200.874C13.0128 201.237 12.7842 201.569 12.4478 201.871C12.1113 202.173 11.6455 202.323 11.0503 202.323C10.6017 202.323 10.2222 202.224 9.91162 202.026C9.60107 201.836 9.35954 201.59 9.18701 201.288C9.01449 200.986 8.87646 200.654 8.77295 200.292C8.67806 199.921 8.57886 199.537 8.47534 199.14ZM32.8274 200.331C31.9734 200.995 31.1453 201.495 30.343 201.832C29.5494 202.16 28.6566 202.323 27.6646 202.323C26.7588 202.323 25.9609 202.147 25.2708 201.793C24.5893 201.431 24.0631 200.943 23.6921 200.331C23.3212 199.718 23.1357 199.054 23.1357 198.338C23.1357 197.372 23.442 196.548 24.0544 195.867C24.6669 195.185 25.508 194.728 26.5776 194.495C26.8019 194.443 27.3583 194.327 28.2468 194.146C29.1353 193.965 29.8944 193.801 30.5242 193.654C31.1625 193.499 31.8526 193.313 32.5945 193.098C32.5514 192.166 32.3616 191.485 32.0251 191.053C31.6973 190.613 31.0116 190.393 29.9678 190.393C29.0706 190.393 28.3935 190.518 27.9363 190.769C27.4877 191.019 27.0995 191.394 26.7717 191.894C26.4526 192.395 26.224 192.727 26.0859 192.891C25.9565 193.046 25.6719 193.124 25.2319 193.124C24.8351 193.124 24.4901 192.998 24.1968 192.748C23.9121 192.49 23.7698 192.162 23.7698 191.765C23.7698 191.144 23.9897 190.54 24.4297 189.953C24.8696 189.367 25.5554 188.884 26.4871 188.504C27.4187 188.125 28.5789 187.935 29.9678 187.935C31.5205 187.935 32.7411 188.12 33.6296 188.491C34.5181 188.854 35.1436 189.431 35.5059 190.225C35.8768 191.019 36.0623 192.071 36.0623 193.382C36.0623 194.21 36.0579 194.913 36.0493 195.491C36.0493 196.069 36.045 196.712 36.0364 197.419C36.0364 198.084 36.1442 198.778 36.3599 199.503C36.5841 200.219 36.6963 200.68 36.6963 200.887C36.6963 201.25 36.5238 201.582 36.1787 201.884C35.8423 202.177 35.4584 202.323 35.0271 202.323C34.6648 202.323 34.3068 202.155 33.9531 201.819C33.5994 201.474 33.2242 200.978 32.8274 200.331ZM32.5945 195.22C32.0769 195.41 31.3221 195.612 30.3301 195.828C29.3467 196.035 28.6652 196.19 28.2856 196.294C27.9061 196.389 27.5438 196.583 27.1987 196.876C26.8537 197.161 26.6812 197.562 26.6812 198.079C26.6812 198.614 26.8839 199.071 27.2893 199.451C27.6947 199.822 28.2253 200.007 28.8809 200.007C29.5796 200.007 30.2222 199.856 30.8088 199.554C31.4041 199.244 31.8397 198.847 32.1157 198.364C32.4349 197.829 32.5945 196.949 32.5945 195.724V195.22ZM48.4583 200.706L45.3398 195.582L43.4248 197.394V200.201C43.4248 200.883 43.2437 201.409 42.8813 201.78C42.5277 202.142 42.1179 202.323 41.6521 202.323C41.1086 202.323 40.6816 202.142 40.3711 201.78C40.0605 201.418 39.9053 200.883 39.9053 200.176V185.114C39.9053 184.329 40.0562 183.734 40.3582 183.328C40.6601 182.914 41.0914 182.707 41.6521 182.707C42.1956 182.707 42.6269 182.893 42.946 183.264C43.2652 183.635 43.4248 184.182 43.4248 184.907V193.473L47.3972 189.306C47.8889 188.789 48.2642 188.435 48.5229 188.245C48.7817 188.056 49.0966 187.961 49.4675 187.961C49.9075 187.961 50.2741 188.103 50.5674 188.388C50.8607 188.664 51.0073 189.013 51.0073 189.436C51.0073 189.953 50.5286 190.643 49.571 191.506L47.6948 193.227L51.3179 198.92C51.5853 199.343 51.7751 199.667 51.8872 199.891C52.008 200.107 52.0684 200.314 52.0684 200.512C52.0684 201.073 51.9131 201.517 51.6025 201.845C51.3006 202.164 50.8995 202.323 50.3992 202.323C49.9679 202.323 49.6357 202.207 49.4028 201.974C49.1699 201.741 48.8551 201.319 48.4583 200.706ZM63.7009 196.009H56.7913C56.7999 196.811 56.9595 197.519 57.27 198.131C57.5892 198.744 58.0076 199.205 58.5251 199.516C59.0514 199.826 59.6293 199.981 60.259 199.981C60.6817 199.981 61.0656 199.934 61.4106 199.839C61.7643 199.736 62.1051 199.58 62.4329 199.373C62.7607 199.158 63.0626 198.929 63.3386 198.688C63.6147 198.446 63.9727 198.118 64.4126 197.704C64.5938 197.549 64.8525 197.471 65.189 197.471C65.5513 197.471 65.8446 197.57 66.0688 197.769C66.2931 197.967 66.4053 198.248 66.4053 198.61C66.4053 198.929 66.2802 199.304 66.03 199.736C65.7799 200.158 65.4003 200.568 64.8914 200.965C64.391 201.353 63.757 201.677 62.9893 201.935C62.2301 202.194 61.3546 202.323 60.3625 202.323C58.0938 202.323 56.3298 201.677 55.0703 200.383C53.8109 199.089 53.1812 197.333 53.1812 195.116C53.1812 194.072 53.3364 193.106 53.647 192.218C53.9575 191.321 54.4104 190.553 55.0056 189.915C55.6008 189.276 56.3341 188.789 57.2053 188.452C58.0766 188.107 59.0427 187.935 60.1038 187.935C61.484 187.935 62.6658 188.228 63.6492 188.815C64.6412 189.393 65.3831 190.143 65.8748 191.066C66.3665 191.989 66.6123 192.929 66.6123 193.887C66.6123 194.775 66.3578 195.353 65.8489 195.621C65.3399 195.88 64.6239 196.009 63.7009 196.009ZM56.7913 194.003H63.1963C63.11 192.796 62.7822 191.894 62.2129 191.299C61.6522 190.695 60.9103 190.393 59.9873 190.393C59.1074 190.393 58.3828 190.7 57.8135 191.312C57.2528 191.916 56.912 192.813 56.7913 194.003ZM74.2466 196.669H70.1577C69.5366 196.669 69.0622 196.527 68.7344 196.242C68.4152 195.949 68.2556 195.573 68.2556 195.116C68.2556 194.65 68.4109 194.275 68.7214 193.99C69.0406 193.697 69.5194 193.551 70.1577 193.551H74.2466C74.8849 193.551 75.3594 193.697 75.6699 193.99C75.9891 194.275 76.1487 194.65 76.1487 195.116C76.1487 195.573 75.9934 195.949 75.6829 196.242C75.3723 196.527 74.8936 196.669 74.2466 196.669ZM78.6978 194.159V185.036C78.6978 184.26 78.8703 183.678 79.2153 183.29C79.569 182.901 80.0305 182.707 80.5999 182.707C81.1951 182.707 81.6652 182.901 82.0103 183.29C82.3639 183.678 82.5408 184.26 82.5408 185.036V194.366C82.5408 195.427 82.6572 196.315 82.8901 197.031C83.1317 197.739 83.5544 198.291 84.1582 198.688C84.762 199.076 85.6074 199.27 86.6943 199.27C88.1953 199.27 89.2563 198.873 89.8774 198.079C90.4985 197.277 90.8091 196.065 90.8091 194.443V185.036C90.8091 184.251 90.9816 183.669 91.3267 183.29C91.6717 182.901 92.1332 182.707 92.7112 182.707C93.2891 182.707 93.755 182.901 94.1086 183.29C94.4709 183.669 94.6521 184.251 94.6521 185.036V194.159C94.6521 195.642 94.5055 196.88 94.2122 197.872C93.9275 198.864 93.384 199.736 92.5818 200.486C91.8917 201.124 91.0894 201.59 90.175 201.884C89.2607 202.177 88.191 202.323 86.9661 202.323C85.5082 202.323 84.2531 202.168 83.2007 201.858C82.1483 201.538 81.29 201.051 80.6257 200.396C79.9615 199.731 79.4741 198.886 79.1636 197.859C78.853 196.824 78.6978 195.591 78.6978 194.159ZM101.821 189.94V190.367C102.485 189.548 103.175 188.948 103.891 188.569C104.607 188.181 105.418 187.987 106.323 187.987C107.41 187.987 108.411 188.267 109.325 188.828C110.24 189.388 110.96 190.208 111.486 191.286C112.021 192.364 112.289 193.641 112.289 195.116C112.289 196.203 112.133 197.204 111.823 198.118C111.521 199.024 111.102 199.787 110.568 200.408C110.033 201.021 109.399 201.495 108.666 201.832C107.941 202.16 107.16 202.323 106.323 202.323C105.314 202.323 104.465 202.121 103.774 201.715C103.093 201.31 102.442 200.715 101.821 199.93V205.235C101.821 206.788 101.256 207.564 100.125 207.564C99.4613 207.564 99.0213 207.361 98.8057 206.956C98.59 206.559 98.4822 205.977 98.4822 205.209V189.966C98.4822 189.293 98.6288 188.793 98.9221 188.465C99.2154 188.129 99.6165 187.961 100.125 187.961C100.626 187.961 101.031 188.133 101.342 188.478C101.661 188.815 101.821 189.302 101.821 189.94ZM108.743 195.077C108.743 194.146 108.601 193.348 108.316 192.684C108.031 192.011 107.635 191.497 107.126 191.144C106.625 190.781 106.069 190.6 105.457 190.6C104.482 190.6 103.658 190.984 102.985 191.752C102.321 192.52 101.989 193.65 101.989 195.142C101.989 196.548 102.321 197.644 102.985 198.429C103.649 199.205 104.473 199.593 105.457 199.593C106.043 199.593 106.587 199.425 107.087 199.089C107.587 198.744 107.988 198.23 108.29 197.549C108.592 196.867 108.743 196.044 108.743 195.077ZM133.781 193.887H132.435V199.981C132.435 200.784 132.258 201.375 131.905 201.754C131.551 202.134 131.09 202.323 130.52 202.323C129.908 202.323 129.433 202.125 129.097 201.728C128.76 201.331 128.592 200.749 128.592 199.981V185.386C128.592 184.558 128.778 183.958 129.149 183.587C129.52 183.216 130.119 183.031 130.947 183.031H137.197C138.06 183.031 138.797 183.07 139.41 183.147C140.022 183.216 140.574 183.363 141.066 183.587C141.661 183.837 142.187 184.195 142.645 184.661C143.102 185.127 143.447 185.67 143.68 186.292C143.921 186.904 144.042 187.555 144.042 188.245C144.042 189.66 143.641 190.79 142.839 191.635C142.045 192.481 140.837 193.08 139.216 193.434C139.897 193.796 140.548 194.331 141.169 195.039C141.791 195.746 142.343 196.501 142.826 197.303C143.317 198.097 143.697 198.817 143.964 199.464C144.24 200.102 144.378 200.542 144.378 200.784C144.378 201.034 144.296 201.284 144.133 201.534C143.977 201.776 143.762 201.965 143.486 202.104C143.21 202.25 142.89 202.323 142.528 202.323C142.097 202.323 141.734 202.22 141.441 202.013C141.148 201.815 140.893 201.56 140.678 201.25C140.471 200.939 140.186 200.482 139.824 199.878L138.284 197.316C137.732 196.376 137.236 195.66 136.796 195.168C136.365 194.676 135.925 194.34 135.476 194.159C135.028 193.978 134.462 193.887 133.781 193.887ZM135.981 185.916H132.435V191.131H135.877C136.8 191.131 137.577 191.053 138.206 190.898C138.836 190.734 139.315 190.462 139.643 190.083C139.979 189.695 140.147 189.164 140.147 188.491C140.147 187.965 140.014 187.503 139.746 187.107C139.479 186.701 139.108 186.399 138.633 186.201C138.185 186.011 137.301 185.916 135.981 185.916ZM156.632 196.009H149.722C149.731 196.811 149.891 197.519 150.201 198.131C150.52 198.744 150.939 199.205 151.456 199.516C151.983 199.826 152.56 199.981 153.19 199.981C153.613 199.981 153.997 199.934 154.342 199.839C154.695 199.736 155.036 199.58 155.364 199.373C155.692 199.158 155.994 198.929 156.27 198.688C156.546 198.446 156.904 198.118 157.344 197.704C157.525 197.549 157.784 197.471 158.12 197.471C158.482 197.471 158.776 197.57 159 197.769C159.224 197.967 159.336 198.248 159.336 198.61C159.336 198.929 159.211 199.304 158.961 199.736C158.711 200.158 158.331 200.568 157.823 200.965C157.322 201.353 156.688 201.677 155.92 201.935C155.161 202.194 154.286 202.323 153.294 202.323C151.025 202.323 149.261 201.677 148.001 200.383C146.742 199.089 146.112 197.333 146.112 195.116C146.112 194.072 146.268 193.106 146.578 192.218C146.889 191.321 147.342 190.553 147.937 189.915C148.532 189.276 149.265 188.789 150.136 188.452C151.008 188.107 151.974 187.935 153.035 187.935C154.415 187.935 155.597 188.228 156.58 188.815C157.572 189.393 158.314 190.143 158.806 191.066C159.298 191.989 159.543 192.929 159.543 193.887C159.543 194.775 159.289 195.353 158.78 195.621C158.271 195.88 157.555 196.009 156.632 196.009ZM149.722 194.003H156.127C156.041 192.796 155.713 191.894 155.144 191.299C154.583 190.695 153.841 190.393 152.918 190.393C152.039 190.393 151.314 190.7 150.745 191.312C150.184 191.916 149.843 192.813 149.722 194.003ZM174.281 195.401V200.098C174.281 200.84 174.113 201.396 173.777 201.767C173.44 202.138 172.996 202.323 172.444 202.323C171.909 202.323 171.474 202.138 171.137 201.767C170.809 201.396 170.646 200.84 170.646 200.098V194.469C170.646 193.581 170.615 192.891 170.555 192.399C170.495 191.907 170.331 191.506 170.063 191.196C169.796 190.876 169.373 190.717 168.795 190.717C167.639 190.717 166.876 191.114 166.505 191.907C166.143 192.701 165.961 193.84 165.961 195.323V200.098C165.961 200.831 165.793 201.388 165.457 201.767C165.129 202.138 164.693 202.323 164.15 202.323C163.615 202.323 163.175 202.138 162.83 201.767C162.494 201.388 162.325 200.831 162.325 200.098V189.992C162.325 189.328 162.476 188.823 162.778 188.478C163.089 188.133 163.494 187.961 163.995 187.961C164.478 187.961 164.879 188.125 165.198 188.452C165.526 188.772 165.69 189.216 165.69 189.785V190.122C166.302 189.388 166.958 188.849 167.656 188.504C168.355 188.159 169.132 187.987 169.986 187.987C170.874 187.987 171.638 188.163 172.276 188.517C172.914 188.871 173.44 189.406 173.854 190.122C174.45 189.397 175.088 188.862 175.77 188.517C176.451 188.163 177.206 187.987 178.034 187.987C179 187.987 179.833 188.176 180.531 188.556C181.23 188.935 181.752 189.479 182.097 190.186C182.399 190.825 182.55 191.83 182.55 193.201V200.098C182.55 200.84 182.382 201.396 182.045 201.767C181.709 202.138 181.264 202.323 180.712 202.323C180.178 202.323 179.738 202.138 179.393 201.767C179.056 201.388 178.888 200.831 178.888 200.098V194.159C178.888 193.4 178.853 192.791 178.784 192.334C178.724 191.877 178.552 191.493 178.267 191.183C177.982 190.872 177.551 190.717 176.973 190.717C176.507 190.717 176.063 190.855 175.64 191.131C175.226 191.407 174.903 191.778 174.67 192.244C174.411 192.839 174.281 193.891 174.281 195.401ZM199.203 195.142C199.203 196.194 199.039 197.165 198.711 198.053C198.383 198.942 197.909 199.705 197.288 200.344C196.667 200.982 195.925 201.474 195.062 201.819C194.2 202.155 193.229 202.323 192.151 202.323C191.081 202.323 190.119 202.151 189.265 201.806C188.411 201.461 187.67 200.969 187.04 200.331C186.419 199.684 185.944 198.925 185.616 198.053C185.297 197.174 185.138 196.203 185.138 195.142C185.138 194.072 185.302 193.093 185.629 192.205C185.957 191.316 186.427 190.557 187.04 189.927C187.652 189.298 188.394 188.815 189.265 188.478C190.137 188.133 191.098 187.961 192.151 187.961C193.221 187.961 194.191 188.133 195.062 188.478C195.934 188.823 196.68 189.315 197.301 189.953C197.922 190.592 198.392 191.351 198.711 192.231C199.039 193.111 199.203 194.081 199.203 195.142ZM195.657 195.142C195.657 193.701 195.338 192.58 194.7 191.778C194.07 190.976 193.221 190.574 192.151 190.574C191.461 190.574 190.853 190.756 190.326 191.118C189.8 191.472 189.395 191.998 189.11 192.697C188.825 193.395 188.683 194.21 188.683 195.142C188.683 196.065 188.821 196.872 189.097 197.562C189.382 198.252 189.783 198.782 190.301 199.153C190.827 199.516 191.444 199.697 192.151 199.697C193.221 199.697 194.07 199.296 194.7 198.493C195.338 197.683 195.657 196.565 195.657 195.142ZM204.133 190.16L206.992 198.183L210.072 189.811C210.314 189.138 210.551 188.664 210.784 188.388C211.017 188.103 211.37 187.961 211.845 187.961C212.293 187.961 212.673 188.112 212.983 188.414C213.303 188.715 213.462 189.065 213.462 189.462C213.462 189.617 213.432 189.798 213.372 190.005C213.32 190.212 213.255 190.406 213.177 190.587C213.108 190.769 213.027 190.976 212.932 191.208L209.542 199.619C209.447 199.861 209.322 200.167 209.166 200.538C209.02 200.909 208.851 201.228 208.662 201.495C208.48 201.754 208.252 201.957 207.976 202.104C207.708 202.25 207.381 202.323 206.992 202.323C206.492 202.323 206.091 202.211 205.789 201.987C205.496 201.754 205.276 201.504 205.129 201.237C204.991 200.961 204.754 200.421 204.417 199.619L201.053 191.299C200.976 191.092 200.894 190.885 200.807 190.678C200.73 190.471 200.661 190.26 200.6 190.044C200.549 189.828 200.523 189.643 200.523 189.488C200.523 189.246 200.596 189.009 200.743 188.776C200.889 188.534 201.092 188.34 201.351 188.194C201.61 188.038 201.89 187.961 202.192 187.961C202.778 187.961 203.18 188.129 203.395 188.465C203.62 188.802 203.865 189.367 204.133 190.16ZM225.496 196.009H218.586C218.595 196.811 218.754 197.519 219.065 198.131C219.384 198.744 219.802 199.205 220.32 199.516C220.846 199.826 221.424 199.981 222.054 199.981C222.477 199.981 222.861 199.934 223.206 199.839C223.559 199.736 223.9 199.58 224.228 199.373C224.556 199.158 224.858 198.929 225.134 198.688C225.41 198.446 225.768 198.118 226.208 197.704C226.389 197.549 226.647 197.471 226.984 197.471C227.346 197.471 227.639 197.57 227.864 197.769C228.088 197.967 228.2 198.248 228.2 198.61C228.2 198.929 228.075 199.304 227.825 199.736C227.575 200.158 227.195 200.568 226.686 200.965C226.186 201.353 225.552 201.677 224.784 201.935C224.025 202.194 223.149 202.323 222.157 202.323C219.889 202.323 218.125 201.677 216.865 200.383C215.606 199.089 214.976 197.333 214.976 195.116C214.976 194.072 215.131 193.106 215.442 192.218C215.752 191.321 216.205 190.553 216.801 189.915C217.396 189.276 218.129 188.789 219 188.452C219.872 188.107 220.838 187.935 221.899 187.935C223.279 187.935 224.461 188.228 225.444 188.815C226.436 189.393 227.178 190.143 227.67 191.066C228.161 191.989 228.407 192.929 228.407 193.887C228.407 194.775 228.153 195.353 227.644 195.621C227.135 195.88 226.419 196.009 225.496 196.009ZM218.586 194.003H224.991C224.905 192.796 224.577 191.894 224.008 191.299C223.447 190.695 222.705 190.393 221.782 190.393C220.902 190.393 220.178 190.7 219.608 191.312C219.048 191.916 218.707 192.813 218.586 194.003ZM234.903 197.225V200.176C234.903 200.892 234.735 201.431 234.398 201.793C234.062 202.147 233.635 202.323 233.117 202.323C232.608 202.323 232.19 202.142 231.862 201.78C231.534 201.418 231.37 200.883 231.37 200.176V190.342C231.37 188.754 231.944 187.961 233.091 187.961C233.678 187.961 234.101 188.146 234.359 188.517C234.618 188.888 234.76 189.436 234.786 190.16C235.209 189.436 235.64 188.888 236.08 188.517C236.529 188.146 237.124 187.961 237.866 187.961C238.608 187.961 239.328 188.146 240.027 188.517C240.726 188.888 241.075 189.38 241.075 189.992C241.075 190.424 240.924 190.781 240.622 191.066C240.329 191.342 240.01 191.48 239.665 191.48C239.535 191.48 239.22 191.403 238.72 191.247C238.228 191.083 237.793 191.001 237.413 191.001C236.896 191.001 236.473 191.139 236.145 191.416C235.817 191.683 235.563 192.084 235.382 192.619C235.2 193.154 235.075 193.792 235.006 194.534C234.937 195.267 234.903 196.164 234.903 197.225Z"
        fill="#1E1E1E" />
    <path
        d="M40.7227 40.9199C38.5742 43.459 36.1654 45.3796 33.4961 46.6816C30.8594 47.9512 27.9297 48.5859 24.707 48.5859C21.6471 48.5859 18.7826 48 16.1133 46.8281C13.4766 45.6237 11.1816 43.9635 9.22852 41.8477C7.30794 39.6992 5.82682 37.209 4.78516 34.377C3.74349 31.5124 3.22266 28.5176 3.22266 25.3926C3.22266 22.0397 3.80859 18.8659 4.98047 15.8711C6.15234 12.8438 7.82878 10.2233 10.0098 8.00977C12.1908 5.79622 14.7786 4.07096 17.7734 2.83398C20.8008 1.59701 24.1374 0.978516 27.7832 0.978516C31.9824 0.978516 35.7259 1.74349 39.0137 3.27344C42.3014 4.80339 45.0684 7.0332 47.3145 9.96289C49.5605 12.86 51.2858 16.5221 52.4902 20.9492C53.6947 25.3763 54.2969 30.3893 54.2969 35.9883C54.2969 42.2383 53.6621 47.7559 52.3926 52.541C51.123 57.2936 49.2676 61.2975 46.8262 64.5527C44.4173 67.7754 41.5202 70.1842 38.1348 71.7793C34.7493 73.3418 30.9082 74.123 26.6113 74.123C22.3796 74.123 18.7012 73.3255 15.5762 71.7305C12.4512 70.1029 10.0749 68.1009 8.44727 65.7246C6.81966 63.3158 6.00586 61.0046 6.00586 58.791C6.00586 57.4238 6.51042 56.2031 7.51953 55.1289C8.52865 54.0547 9.81445 53.5176 11.377 53.5176C12.8092 53.5176 14.0951 53.9245 15.2344 54.7383C16.3737 55.5195 17.2363 56.7077 17.8223 58.3027C18.5384 60.2559 19.7266 61.8346 21.3867 63.0391C23.0469 64.2109 24.9186 64.7969 27.002 64.7969C28.8574 64.7969 30.6152 64.3249 32.2754 63.3809C33.9355 62.4368 35.3516 61.1022 36.5234 59.377C38.8672 55.8939 40.2669 49.7415 40.7227 40.9199ZM39.5996 25.9785C39.5996 23.765 39.2904 21.7305 38.6719 19.875C38.0859 17.987 37.2396 16.3594 36.1328 14.9922C35.0586 13.625 33.7565 12.5508 32.2266 11.7695C30.7292 10.9883 29.0853 10.5977 27.2949 10.5977C24.2025 10.5977 21.582 11.9323 19.4336 14.6016C17.2852 17.2383 16.2109 20.7376 16.2109 25.0996C16.2109 29.429 17.2852 32.8796 19.4336 35.4512C21.582 38.0228 24.3001 39.3086 27.5879 39.3086C29.6061 39.3086 31.5267 38.7878 33.3496 37.7461C35.2051 36.6719 36.7025 35.1257 37.8418 33.1074C39.0137 31.0892 39.5996 28.7129 39.5996 25.9785ZM100.195 40.9199C98.0469 43.459 95.638 45.3796 92.9688 46.6816C90.332 47.9512 87.4023 48.5859 84.1797 48.5859C81.1198 48.5859 78.2552 48 75.5859 46.8281C72.9492 45.6237 70.6543 43.9635 68.7012 41.8477C66.7806 39.6992 65.2995 37.209 64.2578 34.377C63.2161 31.5124 62.6953 28.5176 62.6953 25.3926C62.6953 22.0397 63.2812 18.8659 64.4531 15.8711C65.625 12.8438 67.3014 10.2233 69.4824 8.00977C71.6634 5.79622 74.2513 4.07096 77.2461 2.83398C80.2734 1.59701 83.61 0.978516 87.2559 0.978516C91.4551 0.978516 95.1986 1.74349 98.4863 3.27344C101.774 4.80339 104.541 7.0332 106.787 9.96289C109.033 12.86 110.758 16.5221 111.963 20.9492C113.167 25.3763 113.77 30.3893 113.77 35.9883C113.77 42.2383 113.135 47.7559 111.865 52.541C110.596 57.2936 108.74 61.2975 106.299 64.5527C103.89 67.7754 100.993 70.1842 97.6074 71.7793C94.222 73.3418 90.3809 74.123 86.084 74.123C81.8522 74.123 78.1738 73.3255 75.0488 71.7305C71.9238 70.1029 69.5475 68.1009 67.9199 65.7246C66.2923 63.3158 65.4785 61.0046 65.4785 58.791C65.4785 57.4238 65.9831 56.2031 66.9922 55.1289C68.0013 54.0547 69.2871 53.5176 70.8496 53.5176C72.2819 53.5176 73.5677 53.9245 74.707 54.7383C75.8464 55.5195 76.709 56.7077 77.2949 58.3027C78.0111 60.2559 79.1992 61.8346 80.8594 63.0391C82.5195 64.2109 84.3913 64.7969 86.4746 64.7969C88.3301 64.7969 90.0879 64.3249 91.748 63.3809C93.4082 62.4368 94.8242 61.1022 95.9961 59.377C98.3398 55.8939 99.7396 49.7415 100.195 40.9199ZM99.0723 25.9785C99.0723 23.765 98.763 21.7305 98.1445 19.875C97.5586 17.987 96.7122 16.3594 95.6055 14.9922C94.5312 13.625 93.2292 12.5508 91.6992 11.7695C90.2018 10.9883 88.5579 10.5977 86.7676 10.5977C83.6751 10.5977 81.0547 11.9323 78.9062 14.6016C76.7578 17.2383 75.6836 20.7376 75.6836 25.0996C75.6836 29.429 76.7578 32.8796 78.9062 35.4512C81.0547 38.0228 83.7728 39.3086 87.0605 39.3086C89.0788 39.3086 90.9993 38.7878 92.8223 37.7461C94.6777 36.6719 96.1751 35.1257 97.3145 33.1074C98.4863 31.0892 99.0723 28.7129 99.0723 25.9785ZM151.953 19.7773C151.953 25.9948 150.586 30.6172 147.852 33.6445C145.117 36.6719 141.374 38.1855 136.621 38.1855C133.691 38.1855 131.055 37.5508 128.711 36.2812C126.4 34.9792 124.593 32.9609 123.291 30.2266C121.989 27.4922 121.338 24.1556 121.338 20.2168C121.338 15.985 121.842 12.4531 122.852 9.62109C123.861 6.78906 125.488 4.64062 127.734 3.17578C130.013 1.71094 132.91 0.978516 136.426 0.978516C138.965 0.978516 141.195 1.36914 143.115 2.15039C145.036 2.93164 146.663 4.13607 147.998 5.76367C149.333 7.35872 150.326 9.31185 150.977 11.623C151.628 13.9342 151.953 16.6523 151.953 19.7773ZM142.822 19.2891C142.822 15.0247 142.367 11.9323 141.455 10.0117C140.544 8.05859 138.932 7.08203 136.621 7.08203C135.059 7.08203 133.805 7.55404 132.861 8.49805C131.95 9.40951 131.315 10.7767 130.957 12.5996C130.632 14.39 130.469 16.6849 130.469 19.4844C130.469 22.3815 130.632 24.7415 130.957 26.5645C131.315 28.3874 131.95 29.7708 132.861 30.7148C133.773 31.6263 135.026 32.082 136.621 32.082C139.03 32.082 140.658 31.0566 141.504 29.0059C142.383 26.9551 142.822 23.7161 142.822 19.2891ZM201.953 55.0801C201.953 61.2975 200.586 65.9199 197.852 68.9473C195.117 71.9746 191.374 73.4883 186.621 73.4883C183.659 73.4883 181.006 72.8372 178.662 71.5352C176.351 70.2331 174.528 68.2311 173.193 65.5293C171.891 62.8275 171.24 59.4909 171.24 55.5195C171.24 49.1719 172.445 44.403 174.854 41.2129C177.295 37.9902 181.152 36.3789 186.426 36.3789C188.965 36.3789 191.178 36.7695 193.066 37.5508C194.987 38.332 196.615 39.5039 197.949 41.0664C199.316 42.6289 200.326 44.582 200.977 46.9258C201.628 49.237 201.953 51.9551 201.953 55.0801ZM192.822 54.5918C192.822 50.3926 192.367 47.3327 191.455 45.4121C190.544 43.459 188.932 42.4824 186.621 42.4824C184.993 42.4824 183.724 42.9382 182.812 43.8496C181.901 44.7611 181.25 46.112 180.859 47.9023C180.501 49.6602 180.322 51.9551 180.322 54.7871C180.322 59.1491 180.778 62.3392 181.689 64.3574C182.633 66.3757 184.277 67.3848 186.621 67.3848C188.997 67.3848 190.625 66.3594 191.504 64.3086C192.383 62.2253 192.822 58.9863 192.822 54.5918ZM184.521 7.42383L143.848 73C142.806 74.7904 141.634 75.6855 140.332 75.6855C139.583 75.6855 138.835 75.3926 138.086 74.8066C137.337 74.2533 136.963 73.5208 136.963 72.6094C136.963 71.9258 137.288 71.0957 137.939 70.1191L178.857 4.00586C179.574 2.80143 180.192 1.90625 180.713 1.32031C181.266 0.701823 182.048 0.392578 183.057 0.392578C184.033 0.392578 184.814 0.685547 185.4 1.27148C186.019 1.82487 186.328 2.57357 186.328 3.51758C186.328 4.20117 185.726 5.50326 184.521 7.42383Z"
        fill="black" />
</svg>
    