<svg id="Layer_1" data-name="Layer 1" xmlns="http://www.w3.org/2000/svg" viewBox="0 0 120 14.68"><defs><style>.cls-1{fill:#fff;}.cls-2{fill:#09f;}</style></defs><rect class="cls-1" x="106.77" y="0.01" width="1.61" height="14.68"/><polygon class="cls-1" points="118.39 0.02 118.39 5.52 107.94 5.52 107.94 7.13 118.39 7.13 118.39 14.7 120 14.7 120 0.02 118.39 0.02"/><polygon class="cls-1" points="41.92 14.69 41.92 0.02 40.32 0.02 40.32 12.69 30.71 0.02 28.89 0.02 28.89 8.1 30.5 8.1 30.5 2.41 39.81 14.69 41.92 14.69"/><path class="cls-2" d="M13.33,9.77a5.18,5.18,0,0,0-1.74-1.13l-.11-.05-.11,0c-.15-.06-.3-.1-.45-.15h0a6,6,0,0,0-1.24-.22H4.07l-.34,0a1.65,1.65,0,0,1-.31,0h0l-.26,0L3.05,8,2.79,8l-.27-.1-.07,0L2.3,7.75l-.18-.09-.24-.15-.23-.15-.22-.18A1.9,1.9,0,0,1,1.22,7L1,6.79a2.65,2.65,0,0,1-.21-.26L.68,6.34C.63,6.26.58,6.18.54,6.1L.4,5.85h0A4,4,0,0,1,0,4.09V4a1.41,1.41,0,0,1,0-.21A1.23,1.23,0,0,1,0,3.6,4.07,4.07,0,0,1,4.07,0h6V1.63h-6A2.46,2.46,0,0,0,1.61,4.09a2.09,2.09,0,0,0,0,.25l0,.17c0,.07,0,.14,0,.21l.06.19a.08.08,0,0,0,0,0,.87.87,0,0,0,.07.17v0a1,1,0,0,0,.07.15L2,5.43a2.28,2.28,0,0,0,.73.72l.12.08L3,6.29l.07,0,.15.07h0l.16,0,.21,0a.85.85,0,0,0,.23,0,1,1,0,0,0,.25,0H6a24.24,24.24,0,0,1,3.3.07c.3,0,.6.11.9.19A5.39,5.39,0,0,1,12,7.69,3.43,3.43,0,0,1,13.23,9.4C13.27,9.52,13.3,9.64,13.33,9.77Z"/><path class="cls-2" d="M104.9,9.77a5.18,5.18,0,0,0-1.74-1.13l-.11-.05-.11,0c-.15-.06-.3-.1-.45-.15h0a6,6,0,0,0-1.24-.22H95.64l-.34,0a1.65,1.65,0,0,1-.31,0h0l-.26,0-.07,0L94.36,8l-.27-.1-.07,0-.15-.07-.18-.09-.24-.15-.23-.15L93,7.18A1.9,1.9,0,0,1,92.79,7l-.19-.2a2.65,2.65,0,0,1-.21-.26l-.14-.19c0-.08-.1-.16-.14-.24L92,5.85h0a4,4,0,0,1-.4-1.75V4a1.41,1.41,0,0,1,0-.21,1.23,1.23,0,0,1,0-.19,4.07,4.07,0,0,1,4-3.58h6V1.63h-6a2.46,2.46,0,0,0-2.46,2.46,2.09,2.09,0,0,0,0,.25l0,.17c0,.07,0,.14,0,.21l.06.19a.08.08,0,0,0,0,0,.87.87,0,0,0,.07.17v0a1,1,0,0,0,.07.15l.09.14a2.28,2.28,0,0,0,.73.72l.12.08.11.06.07,0,.15.07h0l.16,0,.21,0a.85.85,0,0,0,.23,0,1,1,0,0,0,.25,0h2a24.24,24.24,0,0,1,3.3.07c.3,0,.6.11.9.19a5.39,5.39,0,0,1,1.82.88A3.43,3.43,0,0,1,104.8,9.4C104.84,9.52,104.87,9.64,104.9,9.77Z"/><polygon class="cls-1" points="22.98 0.02 21.27 0.02 13.56 14.69 15.38 14.69 22.12 1.85 28.02 13.08 20.06 13.08 20.06 14.69 28.13 14.69 28.86 14.69 30.68 14.69 22.98 0.02"/><polygon class="cls-1" points="52.39 0.02 50.68 0.02 42.97 14.69 44.79 14.69 51.53 1.85 57.43 13.08 49.47 13.08 49.47 14.69 57.54 14.69 58.27 14.69 60.09 14.69 52.39 0.02"/><polygon class="cls-1" points="82.75 0.02 81.04 0.02 73.34 14.69 75.16 14.69 81.9 1.85 87.8 13.08 79.84 13.08 79.84 14.69 87.91 14.69 88.64 14.69 90.46 14.69 82.75 0.02"/><path class="cls-1" d="M71.83,14.71H65.6A7.36,7.36,0,0,1,65.6,0h6.23V1.61H65.6a5.75,5.75,0,0,0,0,11.49h6.23Z"/><path class="cls-1" d="M13.31,11.14a.83.83,0,0,0-.08-.28,1.83,1.83,0,0,0-.71-.67,5.86,5.86,0,0,0-.55-.3l-.15-.07-.17-.07v0a2.76,2.76,0,0,1,.08.27,2.32,2.32,0,0,1,.06.38,1.27,1.27,0,0,1,0,.2,1.23,1.23,0,0,1,0,.27,2.46,2.46,0,0,1-2.44,2.19h-9v1.6h9a3.76,3.76,0,0,0,1.22-.19,3.66,3.66,0,0,0,.92-.42,4.5,4.5,0,0,0,1.42-1.49A2.44,2.44,0,0,0,13.31,11.14Z"/><path class="cls-1" d="M104.88,11.14a.83.83,0,0,0-.08-.28,1.83,1.83,0,0,0-.71-.67,5.86,5.86,0,0,0-.55-.3l-.15-.07-.17-.07v0a2.76,2.76,0,0,1,.08.27,2.32,2.32,0,0,1,.06.38,1.27,1.27,0,0,1,0,.2,1.23,1.23,0,0,1,0,.27,2.46,2.46,0,0,1-2.44,2.19h-9v1.6h9a3.76,3.76,0,0,0,1.22-.19,3.66,3.66,0,0,0,.92-.42,4.5,4.5,0,0,0,1.42-1.49A2.44,2.44,0,0,0,104.88,11.14Z"/></svg>
